<svg width="43" height="42" viewBox="0 0 43 42" fill="none" xmlns="http://www.w3.org/2000/svg">
<path d="M5.07021 33.9992L39.1918 30.7036C40.4889 28.0454 41.2176 25.059 41.2176 21.902C41.2176 10.8023 32.2195 1.8042 21.1198 1.8042C10.0201 1.8042 1.02197 10.8023 1.02197 21.902C1.02197 26.444 2.52938 30.6336 5.07021 33.9992Z" fill="#5D135C"/>
<path d="M29.8446 17.8198C28.2615 17.8198 26.9735 16.5318 26.9735 14.9487V6.33019L26.9398 6.30558C26.0177 5.6335 25.4898 4.79358 25.3711 3.80912C25.19 2.30795 26.0019 0.799805 26.5299 0H15.4528C14.6586 1.0509 12.8797 4.0539 15.7763 6.95051V10.005C15.7763 10.005 12.2079 12.9388 15.7763 17.2864V19.9935C15.7763 19.9935 12.2489 23.6439 15.7763 27.7044V30.9007C15.7763 33.1058 17.1077 35.0926 19.1471 35.9309L20.1966 36.3623C20.6269 34.1408 21.673 32.0673 23.2492 30.4032C24.4291 29.1574 25.4754 27.7928 25.4754 26.8705H32.0557V16.778C31.5287 17.414 30.7332 17.8198 29.8446 17.8198Z" fill="#FD77A6"/>
<path d="M29.3262 0H26.4296C25.5769 1.3043 24.0861 4.32715 26.8917 6.37186V14.9487C26.8917 16.5797 28.2138 17.9018 29.8448 17.9018C30.7251 17.9018 31.5149 17.5162 32.0559 16.9052V2.72975C32.0559 1.22842 30.8275 0 29.3262 0Z" fill="#FEA2C8"/>
<path d="M7.80007 0C6.29873 0 5.07031 1.22842 5.07031 2.72975V33.9994C6.64776 36.0881 8.61615 37.8503 10.866 39.1879L16.3917 41.4376C17.5677 41.7216 18.767 41.8987 19.9749 41.9669V38.6756C19.9749 37.8728 20.0549 37.0773 20.2096 36.3001L19.3115 35.931C17.2721 35.0926 15.9407 33.1058 15.9407 30.9008V27.7044C12.4133 23.6439 15.9407 19.9935 15.9407 19.9935V17.2864C12.3723 12.9388 15.9407 10.005 15.9407 10.005V6.95051C13.0441 4.05382 14.823 1.05082 15.6172 0H7.80007Z" fill="#FE3D97"/>
<path d="M27.4259 6.10261C26.3483 5.02504 24.6012 5.02504 23.5237 6.10261L20.8052 8.82104C19.7277 9.8986 19.7277 11.6457 20.8052 12.7233C21.8828 13.8008 23.6299 13.8008 24.7075 12.7233L27.4259 10.0048C28.5035 8.92727 28.5035 7.18017 27.4259 6.10261Z" fill="#E51E82"/>
<path d="M35.5303 15.4508L36.3937 17.2631C37.0492 18.6389 38.6959 19.2228 40.0716 18.5673C41.4474 17.9118 42.0312 16.2651 41.3757 14.8895L40.5123 13.0771L35.5303 15.4508Z" fill="#FFC242"/>
<path d="M36.0443 10.1146C34.6685 10.7701 34.0846 12.4167 34.7401 13.7924L35.5669 15.5278L40.5489 13.1541L39.7221 11.4187C39.0666 10.0431 37.42 9.45918 36.0443 10.1146Z" fill="#FEF156"/>
<path d="M11.1198 7.40186L9.70026 8.82141C8.6227 9.89897 8.6227 11.6461 9.70026 12.7236C10.7778 13.8012 12.5249 13.8012 13.6025 12.7236L15.022 11.3041L11.1198 7.40186Z" fill="#FFC242"/>
<path d="M16.3211 6.10261C15.2435 5.02504 13.4964 5.02504 12.4188 6.10261L11.0596 7.46186L14.9618 11.3641L16.3211 10.0048C17.3986 8.92727 17.3986 7.18017 16.3211 6.10261Z" fill="#FEF156"/>
<path d="M22.2248 17.9087L20.8052 19.3282C19.7277 20.4058 19.7277 22.1529 20.8052 23.2305C21.8828 24.308 23.6299 24.308 24.7075 23.2305L26.127 21.8109L22.2248 17.9087Z" fill="#FFC242"/>
<path d="M27.4255 16.6094C26.348 15.5319 24.6009 15.5319 23.5233 16.6094L22.1641 17.9687L26.0663 21.8709L27.4255 20.5117C28.5031 19.4341 28.5031 17.687 27.4255 16.6094Z" fill="#FEF156"/>
<path d="M11.1198 17.9087L9.70026 19.3282C8.6227 20.4058 8.6227 22.1529 9.70026 23.2305C10.7778 24.308 12.5249 24.308 13.6025 23.2305L15.022 21.8109L11.1198 17.9087Z" fill="#FFC242"/>
<path d="M16.3211 16.6094C15.2435 15.5319 13.4964 15.5319 12.4188 16.6094L11.0596 17.9687L14.9618 21.8709L16.3211 20.5117C17.3986 19.4341 17.3986 17.687 16.3211 16.6094Z" fill="#FEF156"/>
<path d="M11.1198 28.4155L9.70026 29.8351C8.6227 30.9126 8.6227 32.6597 9.70026 33.7373C10.7778 34.8149 12.5249 34.8149 13.6025 33.7373L15.022 32.3178L11.1198 28.4155Z" fill="#FFC242"/>
<path d="M16.3209 27.1163C15.2434 26.0387 13.4963 26.0387 12.4187 27.1163L11.0595 28.4755L14.9617 32.3778L16.3209 31.0185C17.3985 29.9409 17.3985 28.1938 16.3209 27.1163ZM12.4187 37.6232L10.8574 39.1845C12.5814 40.2109 14.4501 40.9718 16.4008 41.4414C17.3973 40.3589 17.3709 38.6733 16.3209 37.6233C15.2434 36.5455 13.4963 36.5455 12.4187 37.6232Z" fill="#FEF156"/>
<path d="M28.7482 32.7217H21.4545C20.4356 34.5225 19.8926 36.574 19.8926 38.6754V41.9614C20.2986 41.9859 20.7075 41.9998 21.1196 41.9998C23.7562 41.9998 26.2738 41.4916 28.5806 40.5685C27.6982 37.5092 28.0647 34.7955 28.7482 32.7217Z" fill="#27A6FF"/>
<path d="M38.058 32.7217H28.6644C28.0134 34.7254 27.6084 37.4801 28.5052 40.5984C32.4573 39.0356 35.7956 36.2562 38.058 32.7217Z" fill="#02C0FC"/>
<path d="M29.3018 31.2979C29.8142 30.1603 30.9524 29.4252 32.2016 29.4252H38.0474C37.268 28.4829 36.6917 27.5549 36.6917 26.8706H25.3937C25.3937 27.7929 24.3474 29.1576 23.1674 30.4034C22.483 31.1267 21.8922 31.9332 21.4092 32.804H28.721C28.8866 32.2916 29.0805 31.7888 29.3018 31.2979Z" fill="#FFC242"/>
<path d="M38.0054 32.8041C38.4426 32.1284 38.8387 31.4272 39.1917 30.704C39.1022 30.6022 39.0109 30.502 38.9178 30.4034C38.5881 30.0552 38.2688 29.6978 37.9798 29.3433H32.2015C30.9184 29.3433 29.7539 30.0944 29.2269 31.2643C29.0014 31.7659 28.8048 32.28 28.6382 32.8041H38.0054Z" fill="#FEF156"/>
<path d="M29.7613 24.8968C29.7613 23.5801 30.8286 22.5127 32.1453 22.5127H24.4908C23.7017 22.5127 23.062 23.1524 23.062 23.9415V25.852C23.062 26.6412 23.7018 27.2808 24.4908 27.2808H32.1453C30.8286 27.2809 29.7613 26.2135 29.7613 24.8968Z" fill="#ADE9F7"/>
<path d="M39.0235 25.852V23.9415C39.0235 23.1524 38.3839 22.5127 37.5947 22.5127H32.0633C30.7466 22.5127 29.6792 23.5801 29.6792 24.8968C29.6792 26.2135 30.7466 27.2809 32.0633 27.2809H37.5947C38.3839 27.2808 39.0235 26.6412 39.0235 25.852Z" fill="#E8F8FC"/>
</svg>
