<svg width="42" height="42" viewBox="0 0 42 42" fill="none" xmlns="http://www.w3.org/2000/svg">
<g clip-path="url(#clip0_175_9688)">
<path d="M41.8724 21.1285C41.8724 21.5874 41.8559 22.0423 41.8268 22.4937H0.173508C0.143644 22.0393 0.128443 21.584 0.12793 21.1285C0.12793 9.60145 9.47272 0.256836 21.0001 0.256836C32.5276 0.256836 41.8724 9.60145 41.8724 21.1285Z" fill="#00A4FB"/>
<path d="M41.8389 22.3213C41.6328 25.9809 40.4838 29.3885 38.6309 32.3052C38.5667 32.4063 38.4737 32.3319 38.4078 32.4318C38.1436 32.8322 37.8657 33.2235 37.5747 33.6049C37.4926 33.7125 37.4373 33.9942 37.3531 34.1002C36.7607 34.8459 36.1183 35.5505 35.4302 36.209C35.3333 36.3018 34.9639 36.2126 34.8651 36.3035C34.5599 36.5845 34.2464 36.8565 33.9251 37.1191C33.8481 37.182 34.0423 37.4254 33.9643 37.4873C30.4036 40.3127 25.899 42.0003 21.0003 42.0003C14.2032 42.0003 8.16515 38.7512 4.35414 33.7215C4.29408 33.6423 4.5299 33.489 4.47094 33.4089C4.26786 33.1328 4.07158 32.8517 3.88226 32.566C3.83915 32.5009 3.50111 32.5091 3.45868 32.4435C3.0397 31.7954 2.65705 31.1245 2.3125 30.4339V22.3214L41.8389 22.3213Z" fill="#65BEFC"/>
<path d="M15.8324 21.1666C15.4332 21.5657 14.7928 21.5727 14.4021 21.1819L14.0666 20.8466C14.0058 20.8196 13.9479 20.7865 13.8937 20.7479L9.0591 17.2931C8.60954 16.9718 8.51123 16.3389 8.83948 15.8796C9.16773 15.4203 9.79832 15.3083 10.2479 15.6297L14.7415 18.8408H15.5208C15.6338 18.8408 15.7421 18.8857 15.822 18.9656C15.9019 19.0455 15.9468 19.1538 15.9468 19.2668C15.9468 19.4211 15.864 19.5549 15.7411 19.6297L15.8478 19.7364C16.2385 20.127 16.2316 20.7674 15.8324 21.1666Z" fill="#F6A96C"/>
<path d="M30.7111 27.0504V34.836C30.7111 35.5067 30.1674 36.0504 29.4966 36.0504H28.1553V27.0504C28.1553 26.3446 28.7274 25.7725 29.4332 25.7725C30.1389 25.7725 30.7111 26.3447 30.7111 27.0504Z" fill="#00429C"/>
<path d="M30.711 34.8906V36.2003C30.711 36.6282 30.3566 36.9751 29.9194 36.9751H26.6954C26.2582 36.9751 25.9038 36.6282 25.9038 36.2003C25.9038 35.8122 26.1971 35.4841 26.59 35.4325L30.711 34.8906Z" fill="#93D0FD"/>
<path d="M40.4272 11.0865L38.1043 12.355C38.0451 12.3873 37.993 12.4311 37.9509 12.4838C37.9087 12.5365 37.8775 12.597 37.8591 12.6618C37.8406 12.7267 37.8352 12.7946 37.8432 12.8615C37.8512 12.9285 37.8724 12.9932 37.9056 13.0519L39.2103 15.3545C39.405 15.6982 39.1507 16.1229 38.7558 16.1135L36.1099 16.0507C36.0424 16.0491 35.9754 16.061 35.9126 16.0855C35.8498 16.1101 35.7925 16.1469 35.7441 16.1938C35.6956 16.2408 35.657 16.2969 35.6304 16.3588C35.6039 16.4208 35.5899 16.4875 35.5893 16.5549L35.5678 19.2014C35.5645 19.5964 35.1319 19.837 34.7947 19.6315L32.5347 18.2542C32.4771 18.2191 32.4131 18.1958 32.3464 18.1857C32.2797 18.1755 32.2117 18.1788 32.1463 18.1952C32.0809 18.2116 32.0194 18.2409 31.9654 18.2813C31.9114 18.3217 31.866 18.3724 31.8317 18.4305L30.4898 20.7117C30.2895 21.0522 29.7945 21.0442 29.6052 20.6976L28.3366 18.3748C28.3043 18.3156 28.2605 18.2634 28.2079 18.2213C28.1552 18.1792 28.0947 18.148 28.0298 18.1295C27.9649 18.111 27.8971 18.1056 27.8301 18.1136C27.7631 18.1216 27.6984 18.1429 27.6398 18.1761L25.337 19.4808C24.9933 19.6754 24.5686 19.4211 24.578 19.0263L24.6408 16.3804C24.6424 16.313 24.6306 16.246 24.606 16.1832C24.5814 16.1203 24.5446 16.0631 24.4977 16.0146C24.4508 15.9662 24.3947 15.9276 24.3327 15.901C24.2707 15.8744 24.2041 15.8605 24.1366 15.8599L21.49 15.8384C21.0951 15.8351 20.8544 15.4025 21.06 15.0653L22.4373 12.8053C22.4724 12.7477 22.4957 12.6837 22.5058 12.6171C22.5159 12.5504 22.5127 12.4824 22.4963 12.417C22.4798 12.3516 22.4506 12.2901 22.4102 12.2361C22.3697 12.1821 22.319 12.1367 22.2609 12.1025L19.9797 10.7605C19.6392 10.5602 19.6471 10.0654 19.9938 9.87598L22.3167 8.60746C22.3758 8.57513 22.428 8.53136 22.4701 8.47868C22.5122 8.426 22.5434 8.36548 22.5619 8.30062C22.5804 8.23577 22.5858 8.16788 22.5778 8.10092C22.5698 8.03396 22.5486 7.96925 22.5153 7.91058L21.2107 5.60782C21.016 5.26415 21.2703 4.83947 21.6652 4.84884L24.3111 4.91163C24.3785 4.91322 24.4456 4.90139 24.5084 4.87682C24.5712 4.85226 24.6285 4.81544 24.6769 4.76852C24.7254 4.7216 24.764 4.66552 24.7906 4.60353C24.8171 4.54154 24.8311 4.47489 24.8316 4.40746L24.8532 1.76095C24.8564 1.36599 25.289 1.12532 25.6263 1.33089L27.8863 2.7082C27.9439 2.74329 28.0079 2.76658 28.0746 2.7767C28.1412 2.78682 28.2093 2.78359 28.2747 2.76717C28.3401 2.75076 28.4016 2.72151 28.4556 2.68111C28.5096 2.64071 28.555 2.58997 28.5892 2.53185L29.9312 0.25065C30.1315 -0.0897799 30.6264 -0.081857 30.8157 0.264792L32.0843 2.58757C32.1167 2.64676 32.1605 2.69893 32.2131 2.74104C32.2658 2.78315 32.3264 2.81435 32.3912 2.83284C32.4561 2.85133 32.524 2.85673 32.5909 2.84873C32.6579 2.84073 32.7226 2.81949 32.7813 2.78624L35.0841 1.48168C35.4277 1.28702 35.8524 1.54132 35.843 1.93619L35.7803 4.58202C35.7787 4.64944 35.7905 4.7165 35.8151 4.7793C35.8396 4.84211 35.8764 4.8994 35.9234 4.94784C35.9703 4.99628 36.0264 5.0349 36.0884 5.06146C36.1503 5.08802 36.217 5.10199 36.2844 5.10254L38.931 5.1241C39.326 5.12734 39.5666 5.55994 39.3611 5.89714L37.9838 8.15713C37.9487 8.21472 37.9254 8.2787 37.9153 8.34537C37.9052 8.41204 37.9084 8.48006 37.9248 8.54547C37.9412 8.61087 37.9705 8.67236 38.0109 8.72635C38.0513 8.78035 38.102 8.82577 38.1601 8.85997L40.4413 10.2019C40.7817 10.4022 40.7738 10.8972 40.4272 11.0865Z" fill="#BDE2FD"/>
<path d="M37.352 34.0991V30.2696H28.4068V36.2081H35.4297C34.9609 36.6565 34.4717 37.0829 33.9635 37.486H27.7679C27.6839 37.486 27.6008 37.4695 27.5233 37.4374C27.4458 37.4053 27.3754 37.3582 27.316 37.2989C27.2567 37.2396 27.2096 37.1691 27.1775 37.0916C27.1454 37.0141 27.1289 36.931 27.1289 36.8471V29.6306C27.1289 29.4612 27.1962 29.2987 27.316 29.1788C27.4359 29.059 27.5984 28.9917 27.7679 28.9917H37.991C38.3439 28.9917 38.6299 29.2777 38.6299 29.6306V32.3042C38.2358 32.9246 37.8092 33.5237 37.352 34.0991Z" fill="#0396FD"/>
<path d="M39.6948 18.556V29.1145C39.6948 29.585 39.3134 29.9664 38.8429 29.9664H37.139C36.6685 29.9664 36.2871 29.585 36.2871 29.1145V18.556C36.2871 18.0856 36.6685 17.7041 37.139 17.7041H38.8429C39.3134 17.7042 39.6948 18.0856 39.6948 18.556Z" fill="#A44F3E"/>
<path d="M30.9945 22.0186C30.7823 22.5417 30.1951 22.7975 29.6831 22.5897L24.1767 20.356C23.6646 20.1483 23.4217 19.5557 23.6339 19.0325C23.8461 18.5094 24.4332 18.2536 24.9453 18.4614L30.4517 20.6951C30.9637 20.9029 31.2067 21.4954 30.9945 22.0186Z" fill="#F6A96C"/>
<path d="M32.5802 15.9913L31.01 21.7221C30.8639 22.2551 30.3041 22.5661 29.7596 22.417C29.2151 22.2678 28.892 21.7148 29.038 21.1818L30.6083 15.4509C30.7543 14.918 31.3141 14.6069 31.8587 14.7561C32.4032 14.9053 32.7263 15.4583 32.5802 15.9913Z" fill="#F6A96C"/>
<path d="M31.8536 14.3451L32.1868 14.4363C32.8675 14.6228 33.2681 15.3258 33.0816 16.0064L32.325 18.7678C32.3102 18.8218 32.285 18.8723 32.2507 18.9165C32.2163 18.9607 32.1737 18.9977 32.1251 19.0254C32.0765 19.0531 32.0229 19.0709 31.9674 19.0779C31.9119 19.0849 31.8555 19.0809 31.8016 19.0661L29.8251 18.5246C29.7162 18.4948 29.6235 18.4229 29.5676 18.3247C29.5117 18.2266 29.497 18.1102 29.5268 18.0013L30.2834 15.2398C30.4699 14.5591 31.1729 14.1586 31.8536 14.3451Z" fill="#FF4343"/>
<path d="M25.5179 19.5252C25.3944 20.0761 24.8572 20.4248 24.318 20.3039L23.4833 20.1169C22.9441 19.9961 22.6071 19.4515 22.7306 18.9006C22.854 18.3497 23.3912 18.001 23.9304 18.1219L24.0776 18.1548C24.075 18.0111 24.1437 17.8695 24.2741 17.7869C24.3213 17.7569 24.374 17.7366 24.4291 17.727C24.4842 17.7174 24.5407 17.7188 24.5953 17.731C24.6499 17.7432 24.7015 17.7661 24.7472 17.7983C24.793 17.8305 24.832 17.8714 24.8619 17.9186L25.318 18.6381C25.3277 18.6534 25.3342 18.6696 25.3417 18.6855C25.4298 18.8045 25.4911 18.9412 25.5215 19.0861C25.5519 19.231 25.5507 19.3808 25.5179 19.5252Z" fill="#FFBD86"/>
<path d="M34.0723 27.0504C34.0723 27.7561 33.5002 28.3282 32.7944 28.3282H25.2032C24.4974 28.3282 23.9253 27.7561 23.9253 27.0504C23.9253 26.3446 24.4974 25.7725 25.2032 25.7725H32.7944C33.5003 25.7725 34.0723 26.3447 34.0723 27.0504Z" fill="#0055CA"/>
<path d="M36.6161 24.4559V27.4765C36.6161 27.947 36.2347 28.3284 35.7642 28.3284H33.0258C32.5552 28.3284 32.1738 27.947 32.1738 27.4765V24.4559C32.1738 23.9854 32.5552 23.604 33.0258 23.604H35.7642C36.2346 23.604 36.6161 23.9854 36.6161 24.4559Z" fill="#00429C"/>
<path d="M34.0723 24.4559V27.4765C34.0723 27.947 33.6909 28.3284 33.2204 28.3284H31.5048C31.0342 28.3284 30.6528 27.947 30.6528 27.4765V24.4559C30.6528 23.9854 31.0342 23.604 31.5048 23.604H33.2204C33.6909 23.604 34.0723 23.9854 34.0723 24.4559Z" fill="#0055CA"/>
<path d="M34.0605 13.5054C35.4721 13.5054 36.6163 14.6496 36.6163 16.0611V24.576H30.6528V16.9129C30.6528 15.031 32.1785 13.5054 34.0605 13.5054Z" fill="#FF5757"/>
<path d="M37.078 16.3142L36.1023 22.1756C36.1 22.1894 36.0963 22.2027 36.0934 22.2162C36.0612 22.4852 35.9232 22.7386 35.688 22.9066L30.8534 26.3614C30.4038 26.6827 29.7732 26.5707 29.4449 26.1114C29.1167 25.652 29.215 25.0192 29.6646 24.6979L34.1422 21.4982L35.0609 15.9785C35.1517 15.4334 35.6767 15.0667 36.2336 15.1593C36.7907 15.2521 37.1687 15.7692 37.078 16.3142Z" fill="#FFBD86"/>
<path d="M36.1283 14.7407L36.469 14.7974C37.1652 14.9133 37.6357 15.5716 37.5198 16.2678L37.0497 19.0921C37.0312 19.2035 36.9691 19.303 36.8772 19.3687C36.7853 19.4344 36.671 19.4608 36.5596 19.4423L34.5381 19.1059C34.4267 19.0873 34.3272 19.0253 34.2615 18.9333C34.1958 18.8414 34.1694 18.7272 34.1879 18.6158L34.658 15.7914C34.7738 15.0953 35.4321 14.6248 36.1283 14.7407Z" fill="#FF4343"/>
<path d="M31.5169 25.7537L30.9121 26.3584C30.5213 26.7491 29.8809 26.7422 29.4817 26.343C29.0825 25.9438 29.0756 25.3034 29.4663 24.9126L29.573 24.806C29.4502 24.7313 29.3673 24.5973 29.3673 24.4431C29.3673 24.3301 29.4122 24.2217 29.4921 24.1419C29.5719 24.062 29.6803 24.0171 29.7933 24.0171H30.6452C30.6633 24.0171 30.6804 24.0202 30.6978 24.0224C30.984 24.0013 31.2799 24.1016 31.5015 24.3231C31.9008 24.7225 31.9077 25.3629 31.5169 25.7537Z" fill="#FFBD86"/>
<path d="M26.4161 27.0504V34.836C26.4161 35.5067 25.8724 36.0504 25.2017 36.0504H23.8604V27.0504C23.8604 26.3446 24.4325 25.7725 25.1382 25.7725C25.844 25.7725 26.4161 26.3447 26.4161 27.0504Z" fill="#0055CA"/>
<path d="M26.4161 34.8906V36.2003C26.4161 36.6282 26.0617 36.9751 25.6244 36.9751H22.4005C21.9633 36.9751 21.6089 36.6282 21.6089 36.2003C21.6089 35.8122 21.9022 35.4841 22.2951 35.4325L26.4161 34.8906Z" fill="#BDE2FD"/>
<path d="M33.8887 14.8664C33.3326 14.9645 32.8024 14.5932 32.7044 14.0372L32.3355 11.9451C32.2375 11.389 32.6087 10.8589 33.1648 10.7608C33.7208 10.6628 34.2511 11.034 34.3491 11.5901L34.7179 13.6822C34.816 14.2382 34.4447 14.7684 33.8887 14.8664Z" fill="#F6A96C"/>
<path d="M33.9086 13.0684C33.5658 13.1722 33.2077 13.2165 32.8499 13.1992C31.1198 13.1175 29.7836 11.6488 29.8654 9.91875L29.9117 8.93724C29.9934 7.20724 31.4622 5.87107 33.1922 5.95277C33.5501 5.96932 33.9024 6.04713 34.234 6.18279C34.2911 6.20622 33.9677 13.0504 33.9086 13.0684Z" fill="#F6A96C"/>
<path d="M36.1768 9.23294L36.1304 10.2144C36.0661 11.5761 35.1425 12.6936 33.9087 13.0681C32.721 12.5855 31.9108 11.4135 31.9736 10.0849L32.0263 8.97004C32.0891 7.64137 33.0061 6.55099 34.234 6.18262C35.4271 6.67162 36.2411 7.87131 36.1768 9.23294Z" fill="#FFBD86"/>
<path d="M12.6938 25.8655V33.082C12.6938 33.2515 12.6265 33.414 12.5067 33.5338C12.3868 33.6536 12.2243 33.721 12.0549 33.721H4.35464C4.04029 33.3063 3.74149 32.88 3.45884 32.4431H11.4159V26.5045H2.47069V30.743C1.99344 29.8253 1.58545 28.8732 1.25014 27.8946C1.2308 27.8381 1.03494 27.3987 1.01611 27.3421L1.1928 25.8655C1.1928 25.696 1.26012 25.5335 1.37995 25.4137C1.49977 25.2939 1.66229 25.2266 1.83175 25.2266H12.0549C12.2243 25.2266 12.3868 25.2939 12.5067 25.4137C12.6265 25.5335 12.6938 25.696 12.6938 25.8655Z" fill="#0396FD"/>
<path d="M3.53564 14.7909V25.1145C3.53564 25.5849 3.15423 25.9664 2.68371 25.9664H0.979857C0.509337 25.9664 0.12793 25.585 0.12793 25.1145V14.7909C0.12793 14.3204 0.509337 13.939 0.979857 13.939H2.68371C3.15423 13.939 3.53564 14.3204 3.53564 14.7909Z" fill="#883F2E"/>
<path d="M20.2199 29.8629L19.7094 30.165C19.1579 30.4912 18.4464 30.3087 18.1202 29.7573L13.8483 22.5372C13.5143 21.9728 13.9212 21.2593 14.577 21.2593C15.1845 20.9 15.9681 21.101 16.3276 21.7084L20.502 28.7638C20.7276 29.1452 20.6013 29.6373 20.2199 29.8629Z" fill="#00429C"/>
<path d="M22.6379 29.5068L19.8633 31.1484C19.487 31.371 19.0053 31.253 18.7875 30.8846L18.1206 29.7574L21.9432 28.1253C22.3077 27.9697 22.7272 28.1028 22.9249 28.4368C23.1426 28.8051 23.0142 29.2842 22.6379 29.5068Z" fill="#93D0FD"/>
<path d="M10.6795 16.1542L8.76211 16.8776C8.65642 16.9175 8.53921 16.9137 8.43627 16.8672C8.33333 16.8207 8.2531 16.7351 8.21322 16.6294L6.63877 12.4567C6.38958 11.7964 6.72294 11.0592 7.38327 10.81L7.70649 10.6881C8.36682 10.4389 9.10408 10.7723 9.35318 11.4326L10.9276 15.6053C10.9675 15.711 10.9638 15.8283 10.9172 15.9312C10.8707 16.0341 10.7852 16.1144 10.6795 16.1542ZM15.898 23.2847C15.898 23.9904 15.3259 24.5626 14.6201 24.5626H7.02887C6.32313 24.5626 5.75098 23.9905 5.75098 23.2848C5.75098 22.5791 6.32313 22.0069 7.02887 22.0069H14.6201C15.326 22.0069 15.898 22.579 15.898 23.2847Z" fill="#0055CA"/>
<path d="M7.64883 20.6903V23.7109C7.64883 24.1814 7.26742 24.5628 6.7969 24.5628H4.05847C3.58795 24.5628 3.20654 24.1814 3.20654 23.7109V20.6903C3.20654 20.2199 3.58795 19.8384 4.05847 19.8384H6.7969C7.26742 19.8384 7.64883 20.2198 7.64883 20.6903Z" fill="#00429C"/>
<path d="M9.17044 20.6903V23.7109C9.17044 24.1814 8.78903 24.5628 8.31851 24.5628H6.6029C6.13238 24.5628 5.75098 24.1814 5.75098 23.7109V20.6903C5.75098 20.2199 6.13238 19.8384 6.6029 19.8384H8.31851C8.78903 19.8384 9.17044 20.2198 9.17044 20.6903Z" fill="#0055CA"/>
<path d="M9.17003 13.1479V20.8109H3.20654V12.2959C3.20654 10.8845 4.35077 9.74023 5.76232 9.74023C7.64432 9.74023 9.17003 11.2659 9.17003 13.1479Z" fill="#0066ED"/>
<path d="M7.1466 10.5377V20.8109H5.75098V10.3384C5.75098 10.1797 5.81399 10.0276 5.92617 9.91542C6.03834 9.80325 6.19048 9.74023 6.34911 9.74023C6.45385 9.74022 6.55755 9.76084 6.65431 9.80092C6.75107 9.84099 6.83899 9.89973 6.91305 9.97379C6.98711 10.0478 7.04585 10.1358 7.08592 10.2325C7.12599 10.3293 7.14661 10.433 7.1466 10.5377Z" fill="#BDE2FD"/>
<path d="M15.9625 23.2847V32.2848H14.551C13.919 32.2848 13.4067 31.7726 13.4067 31.1407V23.2847C13.4067 22.579 13.9789 22.0068 14.6846 22.0068C15.3904 22.0069 15.9625 22.579 15.9625 23.2847Z" fill="#0055CA"/>
<path d="M18.214 32.4347C18.214 32.8626 17.8596 33.2095 17.4224 33.2095H14.1983C13.7611 33.2095 13.4067 32.8626 13.4067 32.4347V31.125L17.5277 31.6667C17.9207 31.7185 18.214 32.0467 18.214 32.4347Z" fill="#BDE2FD"/>
<path d="M7.48747 8.17944L7.11859 10.2715C7.02053 10.8275 6.49029 11.1988 5.93432 11.1008C5.37836 11.0028 5.007 10.4725 5.10506 9.91652L5.47394 7.82444C5.572 7.26839 6.10224 6.8972 6.65821 6.99518C7.21426 7.09323 7.58553 7.62347 7.48747 8.17944Z" fill="#F6A96C"/>
<path d="M7.2698 9.41182C6.9127 9.4403 6.55337 9.40728 6.20744 9.31418C4.53452 8.8659 3.54168 7.14637 3.98996 5.47344L4.24426 4.52431C4.69255 2.85138 6.41208 1.85863 8.08509 2.30683C8.43121 2.39915 8.7589 2.5502 9.0539 2.75341C9.10476 2.78851 7.33131 9.40687 7.2698 9.41182Z" fill="#F6A96C"/>
<path d="M10.3025 6.14758L10.0482 7.09671C9.69545 8.41337 8.55506 9.30865 7.26976 9.41174C6.21209 8.68734 5.67001 7.36975 6.01436 6.08488L6.30325 5.00685C6.64751 3.72206 7.77572 2.85199 9.05395 2.75342C10.1154 3.48539 10.6553 4.83093 10.3025 6.14758Z" fill="#FFBD86"/>
<path d="M15.0955 21.1192C15.017 21.1488 14.9335 21.1627 14.8496 21.16C14.7657 21.1573 14.6832 21.1382 14.6068 21.1036C14.5303 21.069 14.4614 21.0198 14.404 20.9586C14.3466 20.8974 14.3018 20.8255 14.2722 20.747L12.9188 17.1602C12.8882 17.0815 12.8736 16.9975 12.8757 16.9131C12.8778 16.8287 12.8966 16.7456 12.931 16.6685C12.9654 16.5914 13.0148 16.5219 13.0762 16.464C13.1376 16.4061 13.2099 16.361 13.2889 16.3312C13.3679 16.3014 13.452 16.2875 13.5364 16.2904C13.6208 16.2933 13.7037 16.3129 13.7805 16.3481C13.8572 16.3832 13.9262 16.4332 13.9836 16.4952C14.0409 16.5572 14.0853 16.6299 14.1144 16.7092L15.4677 20.296C15.5275 20.4545 15.5219 20.6303 15.4521 20.7846C15.3823 20.939 15.2541 21.0594 15.0955 21.1192Z" fill="#0055CA"/>
<path d="M16.8298 21.7344L9.78748 22.579C9.32028 22.6351 8.89619 22.3018 8.84014 21.8346C8.78408 21.3674 9.11744 20.9433 9.58455 20.8873L16.6268 20.0428C17.094 19.9867 17.5181 20.32 17.5742 20.7872C17.6302 21.2543 17.297 21.6784 16.8298 21.7344Z" fill="#BDE2FD"/>
<path d="M11.0171 23.1187C10.6434 23.542 10.0046 23.5886 9.59042 23.2229L8.94926 22.6568C8.53497 22.2911 8.50217 21.6515 8.87583 21.2283C8.97351 21.117 9.09409 21.0281 9.2293 20.9677C9.36451 20.9073 9.51117 20.8768 9.65926 20.8782C9.67655 20.875 9.69342 20.8708 9.71148 20.8696L10.5618 20.8167C10.6745 20.8097 10.7855 20.8478 10.8701 20.9226C10.9548 20.9973 11.0064 21.1027 11.0134 21.2154C11.0229 21.3695 10.9486 21.5082 10.8307 21.5904L10.9437 21.6902C11.3578 22.0559 11.3907 22.6956 11.0171 23.1187Z" fill="#FFBD86"/>
<path d="M11.0389 22.8851C10.7398 23.3639 10.1174 23.5149 9.64876 23.2221L4.60893 20.074C4.36383 19.9209 4.2104 19.6766 4.1615 19.4101C4.15784 19.3967 4.15324 19.3838 4.15009 19.3702L2.81248 13.5806C2.68809 13.0422 3.03321 12.5027 3.5833 12.3757C4.13339 12.2485 4.68024 12.582 4.80462 13.1203L6.06428 18.5723L10.7319 21.488C11.2006 21.7808 11.338 22.4062 11.0389 22.8851Z" fill="#FFBD86"/>
<path d="M5.96068 18.1137L3.96394 18.575C3.85387 18.6004 3.73821 18.5811 3.6424 18.5213C3.54658 18.4614 3.47847 18.366 3.45304 18.2559L2.36853 13.562C2.20965 12.8744 2.63834 12.1881 3.32593 12.0293L3.66253 11.9515C4.3502 11.7927 5.03643 12.2213 5.19531 12.9089L6.27982 17.6028C6.29242 17.6573 6.29416 17.7138 6.28494 17.7689C6.27572 17.8241 6.25572 17.8769 6.22609 17.9244C6.19645 17.9718 6.15776 18.0129 6.11222 18.0454C6.06668 18.0779 6.01519 18.1011 5.96068 18.1137Z" fill="#0055CA"/>
<path d="M39.6948 28.7792V30.483C39.6948 30.9535 39.3134 31.335 38.8429 31.335H26.9159C26.4454 31.335 26.064 30.9535 26.064 30.483V28.7792C26.064 28.3087 26.4454 27.9272 26.9159 27.9272H38.8429C39.3134 27.9272 39.6948 28.3087 39.6948 28.7792Z" fill="#883F2E"/>
<path d="M13.7588 25.0135V26.7173C13.7588 27.1878 13.3774 27.5692 12.9068 27.5692H0.979857C0.509337 27.5692 0.12793 27.1878 0.12793 26.7173V25.0135C0.12793 24.543 0.509337 24.1616 0.979857 24.1616H12.9068C13.3774 24.1616 13.7588 24.543 13.7588 25.0135Z" fill="#A44F3E"/>
</g>
<defs>
<clipPath id="clip0_175_9688">
<rect width="42" height="42" fill="white"/>
</clipPath>
</defs>
</svg>
