<svg width="43" height="42" viewBox="0 0 43 42" fill="none" xmlns="http://www.w3.org/2000/svg">
<path d="M42.0247 21.4076C42.0247 32.708 32.8808 41.9997 21.4326 41.9997C10.0141 41.9997 0.840332 32.7361 0.840332 21.4076C0.840332 10.0348 10.0597 0.81543 21.4325 0.81543C32.8264 0.81543 42.0247 10.0543 42.0247 21.4076Z" fill="#87DCFA"/>
<path d="M24.6602 5.92226C24.6602 5.92226 23.9465 5.23746 24.3961 2.32617L24.5437 1.55229C24.5437 1.55229 24.5787 0.925734 23.7127 0.929508L23.1313 0.805394C22.7657 0.727383 22.4105 0.975199 22.3574 1.34532L21.8188 5.10613L24.6602 5.92226Z" fill="#AA321E"/>
<path d="M23.0918 1.34541C23.1058 1.24517 23.1434 1.14968 23.2014 1.06676C23.2594 0.983831 23.3363 0.915828 23.4256 0.868316L23.1307 0.805644C22.7654 0.726812 22.4104 0.97512 22.357 1.34549L21.8594 4.82263C21.8528 4.86521 21.8545 4.90867 21.8647 4.95055C21.8748 4.99243 21.8931 5.0319 21.9185 5.06672C21.9698 5.13702 22.0469 5.18407 22.1329 5.19752C22.2189 5.21096 22.3067 5.1897 22.377 5.13841C22.4118 5.11301 22.4413 5.08101 22.4637 5.04423C22.4861 5.00744 22.5011 4.9666 22.5078 4.92402C22.6733 3.94998 23.0918 1.34541 23.0918 1.34541Z" fill="#78140A"/>
<path d="M23.0413 5.25439C23.0413 5.25439 22.1232 3.30336 21.8761 1.19467C21.8189 0.705516 21.4015 0.339328 20.9093 0.358113C20.4821 0.37423 20.0581 0.438204 19.6451 0.548836C19.2482 0.655805 18.9716 1.01559 18.9608 1.42657L18.8535 5.50311L23.0413 5.25439Z" fill="#AA321E"/>
<path d="M21.2387 0.404764C20.9951 0.436653 20.7539 0.484776 20.5167 0.548811C20.1192 0.655616 19.8429 1.01573 19.8319 1.42679L19.7347 5.15003C19.7326 5.23219 19.6997 5.31056 19.6425 5.36964C19.5854 5.42873 19.5082 5.46423 19.4261 5.46913L19.2109 5.48184C19.1655 5.48454 19.1201 5.47778 19.0774 5.46199C19.0348 5.4462 18.9959 5.42173 18.9633 5.39012C18.9306 5.35852 18.9048 5.32047 18.8877 5.27839C18.8705 5.23631 18.8622 5.19112 18.8634 5.14568L18.9608 1.42679C18.9718 1.01582 19.2489 0.655616 19.6456 0.548811C20.0586 0.438195 20.4827 0.374249 20.91 0.358171C21.0215 0.353674 21.1328 0.369461 21.2387 0.404764Z" fill="#78140A"/>
<path d="M25.7638 8.71663C25.5979 5.64826 24.4411 4.98487 24.4411 4.98487C24.4411 4.98487 21.8893 3.83307 19.3792 3.59173C19.1091 2.7683 18.8453 1.75719 18.6699 0.588651C18.6241 0.283987 18.3751 0.0516742 18.0684 0.0218148C17.5811 -0.0257633 16.807 -0.019775 15.9387 0.294241C15.7981 0.345133 15.6785 0.441423 15.5988 0.567891C15.5191 0.694359 15.4838 0.843793 15.4984 0.992573C15.5649 1.66252 15.7079 2.92219 15.9463 4.18712C15.6369 4.39277 15.3664 4.65469 15.1489 4.98487C13.361 7.70248 12.4338 13.9909 15.7551 15.4562H15.7559C16.387 15.734 17.1724 15.8385 18.1343 15.71C18.2239 15.6983 18.6136 15.6154 19.1386 15.5001C19.7249 15.3706 20.3109 15.2396 20.8966 15.1071C22.6671 14.7082 24.1872 13.5522 24.9974 11.9277C25.4685 10.9832 25.8259 9.8677 25.7638 8.71663Z" fill="#AA321E"/>
<path d="M16.6885 15.4563C17.0241 15.6038 17.4029 15.7029 17.8292 15.7436C17.0046 15.8139 16.3199 15.7046 15.7563 15.4563H15.7555C12.4344 13.991 13.3614 7.70212 15.1495 4.98524C15.3665 4.65474 15.6368 4.3929 15.947 4.18691C15.708 2.92249 15.5648 1.6624 15.4987 0.992044C15.4838 0.843412 15.519 0.694083 15.5987 0.567741C15.6784 0.441398 15.798 0.345275 15.9385 0.294615C16.8112 -0.0212057 17.5889 -0.0257995 18.0757 0.0224349V0.022599C17.6645 0.0623607 17.2599 0.153752 16.8715 0.294615C16.731 0.345373 16.6114 0.441489 16.5316 0.567783C16.4518 0.694078 16.4164 0.843355 16.4309 0.992044C16.4875 1.55937 16.5989 2.54941 16.7761 3.60687C16.8306 3.93196 16.7302 4.26886 16.4911 4.49584C16.3363 4.64277 16.199 4.80701 16.0817 4.98533C14.2936 7.70228 13.3665 13.9911 16.6877 15.4564L16.6885 15.4563Z" fill="#78140A"/>
<path d="M19.1389 15.5004C18.614 15.6157 18.2242 15.6986 18.1347 15.7103C17.1727 15.8388 16.3874 15.7343 15.7563 15.4566C16.6015 15.0859 19.7751 12.1153 20.9374 9.27287C21.0775 8.93039 21.5906 9.02981 21.5953 9.39977C21.6189 11.2737 21.2225 13.8956 19.1389 15.5004Z" fill="#78140A"/>
<path d="M16.6885 15.4563C17.0241 15.6038 17.4029 15.7029 17.8292 15.7436C17.0046 15.8139 16.3199 15.7046 15.7563 15.4563H15.7555C12.4344 13.991 13.3614 7.70212 15.1495 4.98524C15.3665 4.65474 15.6368 4.3929 15.947 4.18691C15.708 2.92249 15.5648 1.6624 15.4987 0.992044C15.4838 0.843412 15.519 0.694083 15.5987 0.567741C15.6784 0.441398 15.798 0.345275 15.9385 0.294615C16.8112 -0.0212057 17.5889 -0.0257995 18.0757 0.0224349V0.022599C17.6645 0.0623607 17.2599 0.153752 16.8715 0.294615C16.731 0.345373 16.6114 0.441489 16.5316 0.567783C16.4518 0.694078 16.4164 0.843355 16.4309 0.992044C16.4875 1.55937 16.5989 2.54941 16.7761 3.60687C16.8306 3.93196 16.7302 4.26886 16.4911 4.49584C16.3363 4.64277 16.199 4.80701 16.0817 4.98533C14.2936 7.70228 13.3665 13.9911 16.6877 15.4564L16.6885 15.4563Z" fill="#78140A"/>
<path d="M17.7386 5.09818L15.9243 6.66596C15.5116 7.02271 15.2472 7.52359 15.1955 8.0668C14.8582 11.5998 15.9066 17.8184 15.9066 17.8184L11.1371 19.0269C10.5004 9.56617 10.7564 8.52282 10.0651 6.27114L9.11937 3.19325C9.03799 2.87464 9.20837 2.54667 9.51427 2.42798L11.7998 1.54409C12.1346 1.4153 12.5109 1.58141 12.6397 1.9161L13.4066 3.90757L15.8057 2.43979C15.9323 2.3624 16.0833 2.33556 16.2288 2.36462C16.3742 2.39367 16.5034 2.47649 16.5904 2.59655C18.264 4.90351 17.7192 4.15235 17.8311 4.30674C17.9174 4.42633 17.9558 4.57392 17.9387 4.72043C17.9216 4.86693 17.8502 5.00171 17.7386 5.09818ZM31.0392 12.2803C30.9704 12.254 30.955 12.2063 30.8636 12.1993C30.3257 12.1555 27.7567 11.9855 25.0211 12.5075C25.3038 13.0447 26.2995 15.7576 26.6271 16.5283C32.1554 15.8269 31.7849 15.909 31.8141 15.7947C31.9143 15.4303 32.5046 12.8425 31.0392 12.2803ZM32.2028 18.4371C32.1232 18.6917 32.0177 18.5738 28.6742 19.7739L27.9047 16.6641C27.9047 16.6641 30.9116 16.7269 31.6787 16.6781C31.7221 16.6754 31.762 16.6683 31.823 16.6981C32.0394 16.806 32.5933 17.2139 32.2028 18.4371ZM33.1058 21.3399C33.0977 21.3743 33.0826 21.4067 33.0613 21.435C33.04 21.4633 33.0131 21.4868 32.9823 21.5041C32.875 21.5641 31.4226 21.7549 30.6594 23.1875L29.5365 19.5462C32.5424 19.2363 32.4614 19.1426 32.6322 19.2907C32.8686 19.4997 33.3911 20.12 33.1058 21.3399Z" fill="#FF6E55"/>
<path d="M18.4713 14.4985C15.2674 11.2946 9.12261 14.3995 7.82528 18.9377C6.59613 23.2373 7.76384 32.3181 14.7913 31.5055C21.8187 30.6926 21.6751 17.7022 18.4713 14.4985Z" fill="#C8462D"/>
<path d="M14.7913 31.5055C8.65406 32.2157 6.98628 25.3784 7.48118 20.7709C7.89814 24.7954 9.96 28.9132 14.7913 28.3547C18.448 27.9318 20.1633 24.2124 20.5159 20.2896C20.9454 25.1217 19.4319 30.969 14.7913 31.5055Z" fill="#AA321E"/>
<path d="M27.4059 39.5901C22.6089 39.4318 16.8987 38.4559 13.6522 34.9428C11.3451 32.4483 10.8078 29.229 11.3725 25.9849C11.4558 25.5054 11.5612 25.03 11.6884 24.5602C13.5378 17.6996 19.9777 11.0696 24.4991 11.6864C28.4829 12.2131 27.4033 13.389 31.7901 22.0127C36.6534 28.5828 32.7343 39.7596 27.4059 39.5901Z" fill="#FF876E"/>
<path d="M26.4773 36.5157C25.6008 35.3356 25.5502 33.9441 26.3281 32.3792C27.5173 29.9866 27.2038 26.9681 25.4209 23.6501C24.3748 21.703 23.1298 20.2046 22.6349 19.6424L24.1662 11.6555C23.7507 11.6322 23.3211 11.6671 22.8808 11.7533L21.0838 21.1225C20.8477 22.3565 20.3514 23.5229 19.6431 24.5497C19.0942 24.0144 18.3062 23.6983 17.2866 23.6088C16.2417 23.5176 14.938 23.6677 13.4097 24.055C12.8134 24.2059 12.2321 24.3809 11.6889 24.56C11.5618 25.0298 11.4563 25.5052 11.373 25.9848C14.0455 25.0356 17.6567 24.1739 18.8579 25.536C18.5771 25.8422 18.2755 26.1308 17.9527 26.3978C16.3704 27.7056 15.2019 29.1659 14.4797 30.7366C13.8577 32.0891 13.5815 33.4964 13.6529 34.9427C14.0667 35.3905 14.5376 35.8151 15.0701 36.2124C14.2118 32.1514 16.5396 29.1809 18.7455 27.3565C20.5923 25.829 21.857 23.6985 22.3064 21.3574L22.3312 21.2283C23.9198 23.2472 27.1054 28.0204 25.2148 31.8255C23.965 34.3391 24.6691 36.1669 25.4793 37.2582C26.2108 38.2426 27.2897 38.989 28.4025 39.4898C28.9623 39.3588 29.4996 39.1042 30.0046 38.7468C28.7594 38.3848 27.3148 37.6435 26.4773 36.5157Z" fill="#FF6E55"/>
<path d="M27.4063 39.59C22.6059 39.4317 16.8992 38.4553 13.6522 34.9426C11.4378 32.5485 10.8539 29.4851 11.3107 26.374C12.4839 33.4684 20.1557 35.6107 27.4063 35.8494C28.3435 35.8799 29.2239 35.559 30.0045 35.0062C31.9774 33.6096 33.4587 30.646 33.8799 27.3596C34.6713 33.3062 31.4616 39.7222 27.4063 39.59Z" fill="#FF6E55"/>
<path d="M42.4927 5.64309C42.4927 8.21936 40.6724 10.371 38.2478 10.882C37.8828 10.9588 37.5107 10.9974 37.1377 10.9973C34.1801 10.9973 31.7827 8.59982 31.7827 5.64309C31.7827 2.68545 34.1802 0.288086 37.1377 0.288086C37.5183 0.288086 37.8894 0.327953 38.2478 0.40334C40.6725 0.914312 42.4927 3.06599 42.4927 5.64309Z" fill="#82CD64"/>
<path d="M42.4927 5.64307C42.4927 8.21934 40.6723 10.371 38.2478 10.882C35.8233 10.371 34.0029 8.21934 34.0029 5.64307C34.0029 3.06597 35.8233 0.914293 38.2478 0.40332C40.6725 0.914293 42.4927 3.06597 42.4927 5.64307Z" fill="#A5E17D"/>
<path d="M36.033 8.09453C35.944 8.09453 35.8559 8.07699 35.7736 8.04292C35.6913 8.00884 35.6166 7.95889 35.5537 7.89593L34.2149 6.5571C34.0905 6.42941 34.0213 6.25784 34.0225 6.07955C34.0236 5.90125 34.0949 5.73059 34.221 5.60451C34.3471 5.47843 34.5178 5.40708 34.696 5.40592C34.8743 5.40476 35.0459 5.47388 35.1736 5.59832L36.033 6.45784L39.1013 3.38946C39.2285 3.26233 39.4009 3.19091 39.5807 3.19092C39.7605 3.19093 39.933 3.26236 40.0601 3.3895C40.1872 3.51664 40.2586 3.68908 40.2586 3.86888C40.2586 4.04868 40.1872 4.22111 40.06 4.34824L36.5124 7.89593C36.4494 7.95889 36.3747 8.00884 36.2925 8.04292C36.2102 8.077 36.1221 8.09453 36.033 8.09453Z" fill="#64A54B"/>
</svg>
