<svg width="42" height="42" viewBox="0 0 42 42" fill="none" xmlns="http://www.w3.org/2000/svg">
<g clip-path="url(#clip0_175_14972)">
<path d="M40.1953 21.9023C40.1953 33.002 31.1973 42 20.0977 42C8.99801 42 0 33.002 0 21.9023C0 10.8027 8.99801 1.80469 20.0977 1.80469C31.1973 1.80469 40.1953 10.8027 40.1953 21.9023Z" fill="#0055CA"/>
<path d="M36.5039 21.9023C36.5039 30.9633 29.1586 38.3086 20.0977 38.3086C11.0367 38.3086 3.69141 30.9633 3.69141 21.9023C3.69141 12.8414 11.0367 5.49609 20.0977 5.49609C29.1586 5.49609 36.5039 12.8414 36.5039 21.9023Z" fill="#0066ED"/>
<path d="M27.3387 7.29053C28.0339 7.96179 28.4663 8.90351 28.4663 9.94629C28.4663 10.9891 28.0339 11.9308 27.3387 12.6021C28.0339 13.2733 28.4663 14.215 28.4663 15.2578C28.4663 16.3006 28.0339 17.2423 27.3387 17.9136C28.0339 18.5848 28.4663 19.5266 28.4663 20.5693C28.4663 21.6121 28.0339 22.5538 27.3387 23.2251C28.0339 23.8964 28.4663 24.8381 28.4663 25.8809C28.4663 27.9196 26.8136 29.5723 24.7749 29.5723C22.7362 29.5723 21.0835 27.9196 21.0835 25.8809C21.0835 24.8381 21.5159 23.8964 22.2111 23.2251C21.5159 22.5538 21.0835 21.6121 21.0835 20.5693C21.0835 19.5266 21.5159 18.5848 22.2111 17.9136C21.5159 17.2423 21.0835 16.3006 21.0835 15.2578C21.0835 14.215 21.5159 13.2733 22.2111 12.6021C21.5159 11.9308 21.0835 10.9891 21.0835 9.94629C21.0835 8.90351 21.5159 7.96179 22.2111 7.29053C21.5159 6.61927 21.0835 5.67755 21.0835 4.63477C21.0835 2.59604 22.7362 0.943359 24.7749 0.943359C26.8136 0.943359 28.4663 2.59604 28.4663 4.63477C28.4663 5.67755 28.0339 6.61927 27.3387 7.29053Z" fill="#FFBB85"/>
<path d="M20.1408 5.30908V6.56383C20.1408 8.60255 18.4881 10.2552 16.4494 10.2552H16.2704C16.2001 10.883 15.9691 11.4821 15.5995 11.9945C16.5481 12.6625 17.1679 13.7662 17.1679 15.0145V15.5011C17.1679 16.7495 16.5481 17.8531 15.5995 18.5212C16.0519 19.1486 16.2947 19.9026 16.2935 20.6761V21.1626C16.2935 23.2013 14.6408 24.854 12.6021 24.854H12.1156C10.0769 24.854 8.42418 23.2013 8.42418 21.1626V20.6761C8.42418 20.0225 8.59406 19.4087 8.892 18.8763C8.94805 18.7774 8.96842 18.6622 8.94969 18.5501C8.93096 18.438 8.87428 18.3357 8.78913 18.2603C8.02879 17.5842 7.5498 16.5986 7.5498 15.5011V15.0145C7.5498 13.917 8.02879 12.9314 8.78913 12.2553C8.87428 12.18 8.93096 12.0777 8.94969 11.9656C8.96842 11.8534 8.94805 11.7383 8.892 11.6394C8.58433 11.0895 8.42322 10.4697 8.42418 9.83959V9.35306C8.42418 7.65518 9.57048 6.22504 11.1314 5.7943C11.3504 5.73384 11.5031 5.53631 11.5031 5.30908C11.5031 3.27036 13.1558 1.61768 15.1945 1.61768H16.4494C18.4881 1.61768 20.1408 3.27036 20.1408 5.30908Z" fill="#FED2A4"/>
<path d="M24.1626 4.17793C24.1637 4.85688 23.9766 5.52285 23.6221 6.10189C23.3742 6.50705 23.3742 7.02384 23.6221 7.429C23.9766 8.00806 24.1637 8.67402 24.1626 9.35296V9.83948C24.1637 10.5184 23.9766 11.1844 23.6221 11.7634C23.3742 12.1686 23.3742 12.6853 23.6221 13.0905C23.9766 13.6696 24.1637 14.3356 24.1626 15.0145V15.501C24.1637 16.18 23.9766 16.8459 23.6221 17.425C23.3742 17.8301 23.3742 18.3469 23.6221 18.7521C23.9766 19.3312 24.1637 19.9971 24.1626 20.6761V21.1626C24.1626 22.1704 23.7586 23.0839 23.1039 23.7501C23.7586 24.4163 24.1626 25.3297 24.1626 26.3376V26.8242C24.1626 28.8629 22.51 30.5156 20.4712 30.5156H19.9847C17.946 30.5156 16.2933 28.8629 16.2933 26.8242V26.3377C16.2933 25.3298 16.6973 24.4164 17.3521 23.7502C17.0464 23.4394 16.7981 23.077 16.6186 22.6798C16.5624 22.6824 16.5059 22.6838 16.4492 22.6838H15.1943C13.1556 22.6838 11.5029 21.0311 11.5029 18.9924V17.7375C11.5029 16.783 11.8653 15.9131 12.4598 15.2578C11.8652 14.6025 11.5029 13.7326 11.5029 12.7781V11.5233C11.5029 9.48454 13.1556 7.83185 15.1943 7.83185H16.4492C16.5059 7.83185 16.5624 7.83325 16.6186 7.83571C16.7981 7.43852 17.0464 7.07619 17.3521 6.76545C16.6973 6.09927 16.2933 5.18585 16.2933 4.17793V3.69141C16.2933 1.65268 17.946 0 19.9847 0H20.4712C22.51 0 24.1626 1.65268 24.1626 3.69141V4.17793Z" fill="#FFE5C2"/>
<path d="M33.2561 4.17793C33.2561 5.18585 32.8521 6.09927 32.1974 6.76545C32.8521 7.43162 33.2561 8.34512 33.2561 9.35296V9.83948C33.2561 10.8473 32.8521 11.7608 32.1974 12.427C32.8521 13.0932 33.2561 14.0067 33.2561 15.0145V15.501C33.2561 16.5089 32.8521 17.4224 32.1974 18.0885C32.8521 18.7547 33.2561 19.6682 33.2561 20.6761V21.1626C33.2561 22.1704 32.8521 23.0839 32.1974 23.7501C32.8521 24.4163 33.2561 25.3297 33.2561 26.3376V26.8242C33.2561 28.8629 31.6034 30.5156 29.5647 30.5156H29.0781C27.0394 30.5156 25.3867 28.8629 25.3867 26.8242V26.3377C25.3856 25.6588 25.5727 24.9928 25.9271 24.4137C26.1751 24.0086 26.1751 23.4918 25.9271 23.0866C25.5727 22.5076 25.3857 21.8416 25.3867 21.1627V20.6761C25.3856 19.9972 25.5727 19.3313 25.9271 18.7522C26.1751 18.347 26.1751 17.8302 25.9271 17.4251C25.5727 16.846 25.3857 16.18 25.3867 15.5011V15.0146C25.3857 14.3357 25.5727 13.6697 25.9271 13.0906C26.175 12.6855 26.175 12.1688 25.9271 11.7635C25.5727 11.1845 25.3857 10.5185 25.3867 9.83957V9.35304C25.3857 8.67411 25.5727 8.00815 25.9271 7.42908C26.1751 7.02393 26.1751 6.50713 25.9271 6.10198C25.5727 5.52291 25.3856 4.85695 25.3867 4.17802V3.69141C25.3867 1.65268 27.0394 0 29.0781 0H29.5647C31.6034 0 33.2561 1.65268 33.2561 3.69141V4.17793Z" fill="#FED2A4"/>
<path d="M40.7608 18.2604C40.6757 18.3358 40.619 18.438 40.6003 18.5502C40.5815 18.6623 40.6019 18.7775 40.658 18.8764C40.9656 19.4263 41.1267 20.046 41.1258 20.6762V21.1627C41.1258 22.8606 39.9795 24.2907 38.4186 24.7214C38.1996 24.7818 38.0468 24.9794 38.0468 25.2066C38.0468 27.2453 36.3941 28.898 34.3554 28.898H33.1006C31.0619 28.898 29.4092 27.2453 29.4092 25.2066V23.9517C29.4092 22.9972 29.7715 22.1273 30.3661 21.472C29.7714 20.8168 29.4092 19.9468 29.4092 18.9923V17.7375C29.4092 16.783 29.7715 15.913 30.3661 15.2578C29.7714 14.6025 29.4092 13.7325 29.4092 12.778V11.5232C29.4092 10.5687 29.7715 9.69874 30.3661 9.04347C29.7714 8.38821 29.4092 7.51827 29.4092 6.56375V5.30908C29.4092 3.27036 31.0619 1.61768 33.1006 1.61768H34.3554C36.3941 1.61768 38.0468 3.27036 38.0468 5.30908C38.0468 5.53631 38.1996 5.73384 38.4186 5.7943C39.9795 6.22504 41.1258 7.65518 41.1258 9.35306V9.83959C41.1268 10.4697 40.9657 11.0895 40.658 11.6394C40.6019 11.7383 40.5815 11.8534 40.6003 11.9656C40.619 12.0777 40.6757 12.18 40.7608 12.2553C41.5212 12.9315 42.0002 13.9171 42.0002 15.0146V15.5011C42.0002 16.5987 41.5212 17.5843 40.7608 18.2604Z" fill="#FFE5C2"/>
<path d="M11.4844 14.9453C11.4844 15.7316 12.1241 16.3713 12.9103 16.3713H18.9003C20.5912 16.3713 21.9669 17.7469 21.9669 19.4379C21.9669 21.1288 20.5912 22.5044 18.9003 22.5044H14.5472C14.0942 22.5044 13.7269 22.1371 13.7269 21.6841C13.7269 21.2311 14.0942 20.8638 14.5472 20.8638H18.9003C19.6866 20.8638 20.3263 20.2241 20.3263 19.4379C20.3263 18.6516 19.6866 18.0119 18.9003 18.0119H12.9103C11.2194 18.0119 9.84375 16.6362 9.84375 14.9453C9.84375 13.2544 11.2194 11.8788 12.9103 11.8788H18.9003C19.6867 11.8788 20.3264 11.2391 20.3264 10.4528C20.3264 9.66654 19.6867 9.02686 18.9004 9.02686H14.5472C14.0942 9.02686 13.7269 8.65952 13.7269 8.20654C13.7269 7.75357 14.0942 7.38623 14.5472 7.38623H18.9004C20.5913 7.38623 21.967 8.76189 21.967 10.4528C21.967 12.1437 20.5912 13.5194 18.9003 13.5194H12.9103C12.1241 13.5195 11.4844 14.1591 11.4844 14.9453ZM37.1287 11.8788H31.1387C30.3525 11.8788 29.7128 11.2392 29.7128 10.4529C29.7128 9.66662 30.3525 9.02694 31.1387 9.02694H35.4919C35.9449 9.02694 36.3122 8.6596 36.3122 8.20662C36.3122 7.75365 35.9449 7.38631 35.4919 7.38631H31.1387C29.4478 7.38631 28.0722 8.76198 28.0722 10.4529C28.0722 12.1438 29.4478 13.5195 31.1387 13.5195H37.1287C37.915 13.5195 38.5547 14.1591 38.5547 14.9454C38.5547 15.7317 37.915 16.3714 37.1287 16.3714H31.1387C29.4478 16.3714 28.0722 17.747 28.0722 19.4379C28.0722 21.1288 29.4478 22.5045 31.1387 22.5045H35.4919C35.9449 22.5045 36.3122 22.1372 36.3122 21.6842C36.3122 21.2312 35.9449 20.8639 35.4919 20.8639H31.1387C30.3525 20.8639 29.7128 20.2242 29.7128 19.4379C29.7128 18.6517 30.3525 18.012 31.1387 18.012H37.1287C38.8196 18.012 40.1953 16.6363 40.1953 14.9454C40.1953 13.2545 38.8196 11.8788 37.1287 11.8788Z" fill="#FFBB85"/>
<path d="M14.7656 10.6639C14.6579 10.664 14.5512 10.6428 14.4516 10.6016C14.3521 10.5604 14.2617 10.4999 14.1856 10.4236C12.9062 9.14414 12.9062 7.06252 14.1856 5.78316C14.506 5.46291 15.0253 5.46291 15.3458 5.78316C15.6661 6.10349 15.6661 6.62291 15.3458 6.94332C14.7061 7.583 14.7061 8.62382 15.3458 9.2635C15.6661 9.58383 15.6661 10.1033 15.3458 10.4237C15.2696 10.4999 15.1792 10.5604 15.0796 10.6016C14.9801 10.6428 14.8734 10.664 14.7656 10.6639ZM34.7945 5.78316C34.4741 6.10349 34.4741 6.62291 34.7945 6.94332C35.4341 7.583 35.4341 8.62382 34.7945 9.2635C34.4741 9.58383 34.4741 10.1033 34.7945 10.4237C35.1149 10.7439 35.6341 10.7439 35.9546 10.4237C37.234 9.14422 37.234 7.0626 35.9546 5.78324C35.7944 5.62311 35.5845 5.54297 35.3746 5.54297C35.1647 5.54297 34.9547 5.62303 34.7945 5.78316ZM35.5137 19.2642C35.1934 19.5845 35.1934 20.1039 35.5137 20.4243C36.1534 21.064 36.1534 22.1048 35.5137 22.7445C35.1934 23.0648 35.1934 23.5843 35.5137 23.9047C35.8341 24.2249 36.3534 24.2249 36.6739 23.9047C37.9532 22.6252 37.9532 20.5436 36.6739 19.2643C36.5137 19.1041 36.3038 19.024 36.0938 19.024C35.8839 19.024 35.6739 19.104 35.5137 19.2642Z" fill="#FFBB85"/>
<path d="M28.3732 11.3439L29.5825 7.34048C29.628 7.19012 29.8173 7.14254 29.9284 7.25361L30.6401 7.9654L32.4297 6.1758L32.4329 6.17277L33.5871 5.01851C33.9075 4.69826 34.4268 4.69826 34.7473 5.01851C35.0676 5.33884 35.0676 5.85826 34.7473 6.17868L32.1001 8.82591L32.0984 8.82747L31.8002 9.12565L32.7224 10.0478C32.8335 10.1589 32.7859 10.3482 32.6356 10.3937L28.6321 11.603C28.4735 11.6509 28.3252 11.5027 28.3732 11.3439ZM34.8524 25.0157L32.2052 22.3684L32.2021 22.3654L31.9055 22.0688L32.6173 21.3569C32.7283 21.2458 32.6808 21.0565 32.5304 21.0111L28.5269 19.8018C28.3682 19.7538 28.22 19.902 28.268 20.0607L29.4773 24.0642C29.5227 24.2146 29.712 24.2621 29.8231 24.1511L30.7452 23.229L32.5348 25.0185C32.5353 25.019 32.5357 25.0194 32.5362 25.0199L33.6923 26.1759C33.8525 26.3361 34.0624 26.4162 34.2723 26.4162C34.4822 26.4162 34.6922 26.3361 34.8524 26.1759C35.1728 25.8554 35.1728 25.336 34.8524 25.0157Z" fill="#00A4FB"/>
<path d="M13.7178 6.17868C13.3975 5.85834 13.3975 5.33892 13.7178 5.01851C14.0382 4.69826 14.5575 4.69826 14.878 5.01851L16.0322 6.17277L16.0353 6.1758L17.8249 7.9654L18.5367 7.25361C18.6478 7.14254 18.8371 7.19012 18.8826 7.34048L20.0919 11.3439C20.1399 11.5028 19.9916 11.6509 19.8329 11.6029L15.8294 10.3936C15.6791 10.3482 15.6316 10.1588 15.7426 10.0478L16.6648 9.12557L16.3666 8.82738L16.3649 8.82582L13.7178 6.17868ZM21.3511 15.5515L17.6651 13.5758C17.5266 13.5015 17.3591 13.6018 17.3591 13.7589V14.7655H13.1914C12.7384 14.7655 12.3711 15.1329 12.3711 15.5859C12.3711 16.0388 12.7384 16.4062 13.1914 16.4062H17.3591V17.7103C17.3591 17.8674 17.5266 17.9676 17.6651 17.8935L21.3511 15.9178C21.4972 15.8394 21.4972 15.6298 21.3511 15.5515ZM35.2733 14.7655H31.1056V13.7589C31.1056 13.6018 30.9381 13.5015 30.7997 13.5757L27.1137 15.5514C26.9675 15.6297 26.9675 15.8393 27.1137 15.9177L30.7997 17.8934C30.9381 17.9676 31.1056 17.8673 31.1056 17.7102V16.4062H35.2733C35.7263 16.4062 36.0936 16.0388 36.0936 15.5859C36.0936 15.1329 35.7263 14.7655 35.2733 14.7655Z" fill="#FF5757"/>
<path d="M28.5879 29.4614C26.3283 34.9627 20.9174 38.8368 14.6016 38.8368C8.28573 38.8368 2.87479 34.9627 0.615234 29.4614C2.87479 23.9599 8.28573 20.0859 14.6016 20.0859C20.9174 20.0859 26.3283 23.9599 28.5879 29.4614Z" fill="#E5F2FD"/>
<path d="M16.7139 38.6899C16.014 38.7876 15.3082 38.8365 14.6016 38.8363C8.28573 38.8363 2.87479 34.9623 0.615234 29.4609C2.87479 23.9595 8.28573 20.0854 14.6016 20.0854C15.3184 20.0854 16.0236 20.1354 16.7139 20.2319C11.6844 20.9352 7.44819 24.1138 5.27609 28.4969C5.12776 28.7966 5.0506 29.1264 5.0506 29.4608C5.0506 29.7952 5.12776 30.1251 5.27609 30.4248C7.44819 34.808 11.6844 37.9866 16.7139 38.6899Z" fill="#BDE2FD"/>
<path d="M29.1569 29.2272C27.9859 26.3759 26.0169 23.9467 23.4628 22.2022C20.8463 20.4149 17.7821 19.4702 14.6015 19.4702C11.4209 19.4702 8.35673 20.4149 5.74026 22.2022C3.18613 23.9467 1.21714 26.3759 0.0461407 29.2272C-0.0153802 29.3769 -0.0153802 29.5449 0.0461407 29.6947C1.21714 32.5459 3.18613 34.975 5.74026 36.7197C8.35673 38.5069 11.4209 39.4516 14.6015 39.4516C17.7821 39.4516 20.8463 38.5069 23.4628 36.7197C26.0169 34.975 27.9859 32.5459 29.1569 29.6947C29.2184 29.5449 29.2184 29.3769 29.1569 29.2272ZM14.6014 38.2211C8.77952 38.2211 3.57939 34.7912 1.2826 29.461C3.57939 24.1307 8.77952 20.7008 14.6014 20.7008C20.4234 20.7008 25.6235 24.1307 27.9203 29.461C25.6235 34.7912 20.4234 38.2211 14.6014 38.2211Z" fill="#BB5D4C"/>
<path d="M19.8977 31.8876C18.9776 33.8928 16.9522 35.2854 14.6016 35.2854C11.385 35.2854 8.77734 32.6778 8.77734 29.4612C8.77734 27.1105 10.17 25.0852 12.1751 24.165C12.284 24.1151 12.1191 25.3811 12.1191 26.1194C12.1191 29.336 14.7267 31.9436 17.9434 31.9436C18.6816 31.9436 19.9477 31.7787 19.8977 31.8876Z" fill="#00A4FB"/>
<path d="M20.4257 29.4614C20.4257 30.3273 20.2366 31.1492 19.8976 31.8878C19.1589 32.2269 18.3371 32.4159 17.4712 32.4159C14.2546 32.4159 11.647 29.8083 11.647 26.5917C11.647 25.7258 11.8361 24.9039 12.175 24.1653C12.9137 23.8263 13.7355 23.6372 14.6015 23.6372C17.8181 23.6372 20.4257 26.2447 20.4257 29.4614Z" fill="#49B6FC"/>
<path d="M17.0215 29.4067C17.0215 30.7659 15.9197 31.8677 14.5605 31.8677C13.2014 31.8677 12.0996 30.7659 12.0996 29.4067C12.0996 28.0476 13.2014 26.9458 14.5605 26.9458C15.9197 26.9458 17.0215 28.0476 17.0215 29.4067Z" fill="#0066ED"/>
<path d="M16.2012 25.3052C17.1073 25.3052 17.8418 26.0397 17.8418 26.9458C17.8418 27.8519 17.1073 28.5864 16.2012 28.5864C15.2951 28.5864 14.5605 27.8519 14.5605 26.9458C14.5605 26.0397 15.2951 25.3052 16.2012 25.3052Z" fill="#E5F2FD"/>
</g>
<defs>
<clipPath id="clip0_175_14972">
<rect width="42" height="42" fill="white"/>
</clipPath>
</defs>
</svg>
