<svg width="41" height="42" viewBox="0 0 41 42" fill="none" xmlns="http://www.w3.org/2000/svg">
<path d="M20.3332 1.8042C9.23344 1.8042 0.235352 10.8023 0.235352 21.902C0.235352 23.7614 0.488992 25.5613 0.961574 27.2703L20.3332 41.9998C31.4329 41.9998 40.431 33.0017 40.431 21.902C40.431 10.8023 31.4329 1.8042 20.3332 1.8042Z" fill="#27A6FF"/>
<path d="M36.8006 32.6394C35.5532 29.5316 34.4031 27.4946 32.4569 25.5484C31.4202 24.5117 31.7661 23.3737 32.3157 22.5363C30.2388 21.2392 28.4048 20.6783 27.7743 20.5103C27.7449 20.5441 27.7049 20.567 27.6609 20.5753C27.1481 20.6727 25.8295 20.7354 25.226 21.577C25.0798 21.7809 25.1628 22.0672 25.3976 22.1558C25.9264 22.3553 26.9524 22.7003 27.0275 23.1338C27.046 23.241 27.032 23.3329 26.9966 23.4159C31.3707 26.2932 33.0301 31.9276 33.658 35.6365C33.9851 37.5682 36.7979 37.6581 37.172 35.6249C37.255 35.1728 37.5621 34.7999 37.9806 34.6222C37.5946 34.2495 37.1961 33.6248 36.8006 32.6394Z" fill="#47CB8F"/>
<path d="M21.8097 0.146764C20.0903 0.509178 18.2879 0.608846 16.5452 0.798174C15.1607 2.29598 11.2087 7.44689 17.4121 11.9604L17.4057 12.0702C17.9366 12.5003 18.3758 13.1325 18.6227 13.974C18.7722 14.4836 19.2826 14.8089 19.8104 14.73L19.8322 14.7268C20.402 14.6418 20.8011 14.1226 20.7408 13.5448C20.6513 12.6878 20.738 11.5946 21.6591 11.254C23.0018 10.7573 22.8844 9.61071 22.6505 7.3263C22.5872 6.70951 22.5048 6.48384 22.7785 6.27195C23.3627 5.8198 25.1145 5.99781 26.322 6.44143C26.4499 6.48844 26.5676 6.55595 26.674 6.63708C26.8962 4.85962 27.2336 -0.996506 21.8097 0.146764Z" fill="#2A428B"/>
<path d="M6.86436 9.2556C6.81448 9.50292 7.04163 9.71711 7.28625 9.65558C7.55277 9.58856 7.7859 9.84475 7.69476 10.104C7.36098 11.0541 6.89422 12.9358 7.69977 14.4999C8.82909 16.6925 9.58821 17.8902 9.67311 21.0476C9.67541 21.1335 9.68131 21.2167 9.68943 21.2983L9.77622 21.1388C10.0289 20.9546 11.8192 19.5595 11.861 16.9806C11.8887 15.2732 12.4939 13.0694 13.7837 11.995C14.8106 11.1398 16.3691 11.172 17.4842 12.1348L17.4943 11.9603C11.2769 7.43655 15.2608 2.27269 16.6368 0.788086C12.2781 1.25361 8.27743 2.24176 6.86436 9.2556Z" fill="#1D2E79"/>
<path d="M20.4122 39.3883C20.2002 36.0145 19.4415 32.6975 18.166 29.5669C17.9449 30.0166 17.5755 30.3763 17.1202 30.5856C17.429 31.0518 17.5393 31.6415 17.3845 32.2215L16.9766 33.7485C16.6992 34.7868 15.5449 35.3193 14.5712 34.8507C12.4843 33.8456 10.8942 32.9112 9.68773 32.0905C9.69667 32.1437 9.70504 32.1965 9.71529 32.2505C9.35345 32.3057 7.99739 32.59 7.05198 33.8365C6.57054 34.4711 6.27769 35.2494 6.17285 36.1624C9.80561 39.7704 14.8086 42.0002 20.3333 42.0002C20.4145 42.0002 20.4953 41.9981 20.5762 41.9971L20.4122 39.3883Z" fill="#FEF156"/>
<path d="M0.961426 27.2703C1.91545 30.7205 3.76624 33.7982 6.24719 36.2367C6.62421 32.6313 9.81243 32.3201 9.81243 32.3201C9.80133 32.2646 9.79085 32.2089 9.78101 32.1531C8.51601 31.3004 7.66174 30.5674 7.09671 30.0025C6.12004 29.0257 5.32073 28.0066 4.72092 26.9734C4.38861 26.4008 4.2695 25.758 4.34021 25.1406C3.09284 25.771 1.96992 26.4881 0.961426 27.2703Z" fill="#FFC242"/>
<path d="M27.9988 13.5477C27.8168 13.1943 28.0395 12.7448 28.3059 12.3853C28.6182 11.9639 28.7004 11.4146 28.5072 10.9269C28.0573 9.79065 27.5544 8.18448 27.2801 7.27779C27.1451 6.83146 26.8076 6.47659 26.3699 6.31581C24.9174 5.78228 22.3382 5.53897 22.4561 6.73384C22.7229 9.43685 22.9636 10.6284 21.613 11.1279C20.5922 11.5054 20.5191 12.7091 20.6078 13.5587C20.6603 14.062 20.3134 14.5193 19.8128 14.594L19.7908 14.5973C19.3279 14.6663 18.8836 14.3852 18.7518 13.9361C18.578 13.3436 18.22 12.5396 17.4945 11.9604V13.9658C17.4945 13.9658 18.5522 15.4629 17.4945 17.3496C16.4367 19.2363 16.2117 20.0361 16.7344 21.1845C17.1062 22.0017 17.516 23.5877 18.5481 25.0034L21.946 26.2442C21.9805 26.2554 22.0146 26.2681 22.0486 26.2816L22.0497 26.282C22.115 26.3074 22.1787 26.3366 22.2405 26.3694C22.4207 26.4664 22.6021 26.561 22.7847 26.6531C25.805 28.1757 26.3327 25.553 26.2876 24.7851C26.2343 23.876 27.3045 23.7842 27.1918 23.1339C27.1167 22.7003 26.0908 22.3554 25.5619 22.1559C25.3271 22.0673 25.2441 21.7811 25.3904 21.5771C25.9938 20.7356 27.3124 20.6728 27.8252 20.5755C27.8537 20.5701 27.8808 20.5586 27.9044 20.5417C27.928 20.5249 27.9476 20.503 27.9619 20.4778C27.9762 20.4526 27.9848 20.4245 27.9872 20.3956C27.9895 20.3666 27.9855 20.3376 27.9754 20.3103L27.9224 20.1671C27.2768 18.2232 29.0945 19.4389 29.7828 18.4619C30.4712 17.4849 28.3608 14.2504 27.9988 13.5477Z" fill="#FFC7AB"/>
<path d="M16.816 21.1846C16.2934 20.0361 16.5183 19.2363 17.5761 17.3496C18.6339 15.4629 17.5761 13.9658 17.5761 13.9658V12.0277C17.1651 11.6766 16.629 11.3977 15.9294 11.2808C13.1662 10.8189 11.7701 14.3004 11.7267 16.9785C11.6833 19.6566 9.67298 21.0477 9.67298 21.0477L8.50879 22.3155C8.56696 22.41 8.60447 22.5158 8.61887 22.6259C8.8548 24.4204 10.5062 26.0301 11.8499 27.0645C13.5449 28.3693 15.0306 29.3104 16.266 29.8617C16.6425 30.029 16.9581 30.3085 17.1696 30.6621C17.6902 30.4192 18.0993 29.9878 18.3144 29.455C18.7107 28.4776 19.3092 27.8432 19.8945 26.9585C19.9882 26.8167 20.1015 26.6889 20.2311 26.5789C17.9349 25.0006 17.3386 22.333 16.816 21.1846Z" fill="#FFAA7B"/>
<path d="M18.6814 24.0519C18.3656 23.7978 18.1226 23.4648 17.9769 23.0866L17.0572 20.6901C17.0282 20.6147 16.9847 20.5457 16.9291 20.4871C16.8735 20.4285 16.8069 20.3814 16.7331 20.3485C16.6593 20.3157 16.5797 20.2977 16.499 20.2956C16.4182 20.2935 16.3378 20.3073 16.2624 20.3362C16.187 20.3652 16.118 20.4087 16.0594 20.4643C16.0007 20.5199 15.9537 20.5865 15.9208 20.6603C15.8879 20.7342 15.8699 20.8137 15.8678 20.8945C15.8657 20.9752 15.8795 21.0556 15.9085 21.131L16.8282 23.5274C17.0517 24.1083 17.4248 24.6199 17.9096 25.0101C18.2519 25.2858 19.3029 25.9791 20.2313 26.579C20.479 26.3694 20.7791 26.231 21.0994 26.1788C21.4197 26.1265 21.7481 26.1622 22.0497 26.2821C20.8547 25.5255 19.0781 24.3714 18.6814 24.0519ZM15.1364 17.4012C15.023 17.2434 14.856 17.1109 14.6402 17.0074C13.3783 16.402 12.5414 15.047 12.5574 13.6357C12.5859 11.1262 15.2247 10.1279 16.8688 11.1413C18.3457 12.0517 18.2199 13.8177 18.2375 13.8869C18.2436 14.0495 18.1849 14.2078 18.0745 14.3273C17.964 14.4468 17.8108 14.5177 17.6482 14.5244C17.4856 14.5311 17.327 14.4732 17.207 14.3633C17.0871 14.2533 17.0156 14.1003 17.0081 13.9378L16.9929 13.5716C16.9462 12.4433 15.9401 11.5922 14.6651 12.1687C13.8845 12.5216 13.7915 13.322 13.7878 13.6497C13.779 14.4339 14.2036 15.4332 15.1725 15.898C15.5763 16.0917 15.9003 16.3558 16.1356 16.683C16.2812 16.8858 16.5524 17.2632 17.0898 16.9864C17.2349 16.9117 17.4037 16.8977 17.5591 16.9474C17.7145 16.9971 17.8438 17.1066 17.9185 17.2516C17.9932 17.3967 18.0073 17.5655 17.9575 17.7209C17.9078 17.8763 17.7984 18.0056 17.6533 18.0803C16.7042 18.569 15.7696 18.2821 15.1364 17.4012Z" fill="#F7965B"/>
<path d="M24.3947 14.5227C24.3001 14.3898 24.2622 14.2247 24.2893 14.0638C24.3164 13.9029 24.4063 13.7593 24.5393 13.6647L25.1949 13.1981L24.5562 12.7749C24.4229 12.6836 24.3308 12.5435 24.2999 12.3849C24.269 12.2263 24.3017 12.062 24.3909 11.9273C24.4802 11.7926 24.6188 11.6984 24.7769 11.6651C24.935 11.6318 25.0999 11.662 25.2359 11.7491L26.6213 12.6672C26.7045 12.7223 26.773 12.7969 26.821 12.8845C26.8689 12.972 26.8948 13.0699 26.8965 13.1697C26.8982 13.2695 26.8755 13.3682 26.8306 13.4574C26.7856 13.5465 26.7196 13.6233 26.6383 13.6812L25.2529 14.6672C24.9776 14.863 24.5929 14.8014 24.3947 14.5227Z" fill="#EA7E42"/>
<path d="M16.3162 29.7491C15.4647 29.3691 14.2651 28.6968 12.6464 27.5093C12.3052 27.5646 11.0431 27.8372 10.2477 28.9273C9.63416 29.7679 9.45525 30.8854 9.71521 32.2499L9.70905 32.2509C11.3765 33.3727 13.1823 34.318 14.5178 34.9611C15.5581 35.4621 16.7975 34.8954 17.0954 33.7798L17.5033 32.2527C17.7737 31.2401 17.2734 30.1764 16.3162 29.7491Z" fill="#FFFBB3"/>
<path d="M11.9249 26.9672C9.58739 25.1678 8.87831 23.655 8.74082 22.61C8.65641 21.9684 7.94889 21.6153 7.37927 21.9224L5.56326 22.9012C4.20868 23.8152 3.79426 25.6221 4.61457 27.0354C5.13038 27.9241 5.89081 28.9707 7.00972 30.0897C7.80173 30.8817 8.7834 31.6348 9.8124 32.3203C8.93754 27.9998 12.7411 27.579 12.7411 27.579L12.7412 27.5785C12.4664 27.3784 12.1943 27.1746 11.9249 26.9672Z" fill="#FEF156"/>
<path d="M36.2005 20.4078C36.1156 20.5378 35.9955 20.641 35.8542 20.7054C35.713 20.7699 35.5563 20.7929 35.4025 20.7718L32.5577 20.3822C32.1089 20.3207 31.7948 19.907 31.8563 19.4582C31.9179 19.0091 32.3316 18.6954 32.7803 18.7568L34.643 19.0119L34.5817 17.8372C34.5584 17.3848 34.9058 16.9988 35.3582 16.9753C35.8107 16.9516 36.1966 17.2993 36.2201 17.7518L36.333 19.9166C36.3421 20.0902 36.2957 20.2622 36.2005 20.4078Z" fill="#6AD9FB"/>
<path d="M39.3219 18.5763C39.2395 18.7026 39.1239 18.8037 38.9878 18.8686C38.8517 18.9335 38.7004 18.9596 38.5504 18.9441L35.3168 18.6104C34.8661 18.5639 34.5385 18.1609 34.585 17.7103C34.6315 17.2598 35.0344 16.932 35.4852 16.9785L38.7189 17.3121C39.1695 17.3587 39.4972 17.7617 39.4507 18.2123C39.4374 18.3422 39.3932 18.467 39.3219 18.5763Z" fill="#ADE9F7"/>
<path d="M26.3744 31.5985C26.2498 31.5059 26.1539 31.3799 26.098 31.2351C26.0421 31.0902 26.0284 30.9325 26.0586 30.7802L26.6171 27.9636C26.7052 27.5193 27.1369 27.2304 27.5813 27.3186C28.0258 27.4068 28.3145 27.8385 28.2264 28.2827L27.8607 30.1269L29.037 30.1357C29.4899 30.1393 29.8545 30.5092 29.8512 30.9621C29.8478 31.4152 29.4778 31.7797 29.0247 31.7763L26.857 31.7601C26.6831 31.7587 26.5141 31.7021 26.3744 31.5985Z" fill="#6AD9FB"/>
<path d="M28.017 34.823C27.8959 34.7332 27.8018 34.6118 27.7452 34.4721C27.6885 34.3324 27.6715 34.1798 27.6959 34.031L28.2216 30.823C28.2949 30.376 28.7167 30.0729 29.1638 30.1462C29.6107 30.2194 29.914 30.6412 29.8407 31.0884L29.3149 34.2964C29.2417 34.7435 28.8199 35.0466 28.3727 34.9733C28.2439 34.9523 28.1219 34.9007 28.017 34.823Z" fill="#ADE9F7"/>
<path d="M37.8347 28.1176C36.2537 25.4587 34.151 23.673 32.2576 22.5005C31.6944 23.3411 31.3233 24.4968 32.3748 25.5484C33.8078 26.9814 34.8091 28.4642 35.7355 30.3868C35.7795 28.7738 36.9258 28.2658 37.8347 28.1176Z" fill="#95DB76"/>
<path d="M37.7832 28.0308C36.8848 28.1702 35.7371 28.6571 35.6567 30.2242C36.0165 30.9576 36.3636 31.7551 36.7186 32.6393C37.123 33.6468 37.5303 34.2774 37.9244 34.6468C37.9784 34.6209 38.0341 34.5986 38.091 34.5799C40.1277 33.9133 39.5076 31.9852 39.5076 31.9852C39.0701 30.4879 38.4749 29.1776 37.7832 28.0308Z" fill="#BAEE63"/>
</svg>
