<svg width="43" height="42" viewBox="0 0 43 42" fill="none" xmlns="http://www.w3.org/2000/svg">
<g clip-path="url(#clip0_175_14994)">
<path d="M11.623 38.7823L12.4002 39.279C14.947 40.4463 17.7794 41.0978 20.7643 41.0978C24.1488 41.0978 27.3371 40.2599 30.1354 38.7822H11.623V38.7823Z" fill="#1C2E7A"/>
<path d="M7.71645 36.2855L8.24268 36.6218H33.4081C37.9551 32.9371 40.8623 27.3086 40.8623 21.0002C40.8623 9.90043 31.8642 0.902344 20.7645 0.902344C17.7796 0.902344 14.9473 1.55392 12.4004 2.72114L3.94629 32.0049C4.99426 33.6029 6.26363 35.0441 7.71645 36.2855Z" fill="#FFDD40"/>
<path d="M29.6843 2.72119H12.4003C5.47641 5.89465 0.666504 12.8854 0.666504 21.0002C0.666504 23.0005 0.960094 24.9318 1.50421 26.7552H14.9768V24.7763C14.9768 24.1465 15.468 23.6093 16.0952 23.5532L16.2072 23.5432V20.7751C16.2072 19.7819 17.0153 18.9738 18.0086 18.9738H32.4852V5.52215C32.4852 3.97766 31.2287 2.72119 29.6843 2.72119Z" fill="#167CC1"/>
<path d="M2.38574 12.8575C3.2191 13.5074 3.97485 14.3126 4.63914 15.2818C8.7243 21.2428 12.5939 20.0975 16.4409 19.8894C16.7506 19.3433 17.3371 18.9737 18.0085 18.9737H30.6805V7.32275H6.04015C4.53537 8.94205 3.2944 10.8095 2.38574 12.8575Z" fill="#73C3F9"/>
<path d="M8.60855 7.32275H6.04023C4.53537 8.94197 3.29448 10.8094 2.38574 12.8574C3.2191 13.5073 3.97485 14.3126 4.63914 15.2818C5.9833 17.2431 7.30417 18.435 8.60855 19.1442V7.32275Z" fill="#4FABF7"/>
<path d="M20.5264 10.8141C24.2193 15.3339 27.5209 16.4532 30.6807 16.4678V7.32275H16.4248C17.9262 8.15882 19.303 9.31677 20.5264 10.8141Z" fill="#9BD8F9"/>
<path d="M29.6845 4.52588H9.25188C8.02417 5.3851 6.89584 6.3782 5.8877 7.48688H30.6807V5.52215C30.6807 4.98214 30.2245 4.52588 29.6845 4.52588Z" fill="#2A428C"/>
<path d="M8.60875 6.37022C8.60857 5.80223 8.73313 5.24113 8.97363 4.72656C7.85259 5.53998 6.81727 6.46415 5.8877 7.487H8.60875V6.37022Z" fill="#1C2E7A"/>
<path d="M6.72412 6.62158H21.2414C21.4045 6.62158 21.561 6.55676 21.6764 6.44138C21.7918 6.32601 21.8566 6.16952 21.8566 6.00635C21.8566 5.84318 21.7918 5.68669 21.6764 5.57131C21.561 5.45593 21.4045 5.39111 21.2414 5.39111H8.10487C7.62611 5.78001 7.16538 6.19059 6.72412 6.62158ZM28.3551 6.62158H27.5533C27.3901 6.62158 27.2336 6.55676 27.1182 6.44138C27.0028 6.32601 26.938 6.16952 26.938 6.00635C26.938 5.84318 27.0028 5.68669 27.1182 5.57131C27.2336 5.45593 27.3901 5.39111 27.5533 5.39111H28.3551C28.5183 5.39111 28.6748 5.45593 28.7901 5.57131C28.9055 5.68669 28.9703 5.84318 28.9703 6.00635C28.9703 6.16952 28.9055 6.32601 28.7901 6.44138C28.6748 6.55676 28.5183 6.62158 28.3551 6.62158ZM25.5672 6.62158H24.7653C24.6021 6.62158 24.4456 6.55676 24.3302 6.44138C24.2148 6.32601 24.15 6.16952 24.15 6.00635C24.15 5.84318 24.2148 5.68669 24.3302 5.57131C24.4456 5.45593 24.6021 5.39111 24.7653 5.39111H25.5672C25.7304 5.39111 25.8869 5.45593 26.0022 5.57131C26.1176 5.68669 26.1824 5.84318 26.1824 6.00635C26.1824 6.16952 26.1176 6.32601 26.0022 6.44138C25.8869 6.55676 25.7304 6.62158 25.5672 6.62158Z" fill="#3C58A0"/>
<path d="M26.4346 10.2759H18.9458V12.4322H26.4346C27.0301 12.4322 27.5127 11.9495 27.5127 11.354C27.5127 10.7586 27.0301 10.2759 26.4346 10.2759Z" fill="#E9EFFF"/>
<path d="M22.3914 11.354C22.3914 10.7586 22.874 10.2759 23.4695 10.2759H18.9458V12.4322H23.4695C22.874 12.4322 22.3914 11.9495 22.3914 11.354Z" fill="#D3DCFB"/>
<path d="M19.028 10.2759H17.8179C17.2224 10.2759 16.7397 10.7586 16.7397 11.354C16.7397 11.9495 17.2224 12.4322 17.8179 12.4322H19.028V10.2759Z" fill="#3C58A0"/>
<path d="M4.77446 15.1889C4.06571 14.1548 3.28174 13.3386 2.45561 12.6997C1.30668 15.2299 0.666504 18.0402 0.666504 21C0.666504 23.0003 0.960094 24.9316 1.50421 26.755H14.9768V24.7761C14.9768 24.1463 15.468 23.6091 16.0952 23.553L16.2072 23.543V20.7749C16.2069 20.3954 16.3272 20.0256 16.5506 19.7188C12.6509 19.9125 8.85716 21.1463 4.77446 15.1889Z" fill="#4FABF7"/>
<path d="M8.60861 18.9625C7.35139 18.2586 6.0777 17.0905 4.77446 15.1889C4.06571 14.1548 3.28174 13.3386 2.45561 12.6997C1.30668 15.2299 0.666504 18.0401 0.666504 21C0.666504 23.0002 0.960094 24.9316 1.50421 26.7549H8.60861V18.9625Z" fill="#1E9EF4"/>
<path d="M14.9768 37.9274V31.8408H8.44507L7.99021 35.235C7.94259 35.5951 7.85059 35.9479 7.71631 36.2854C9.13153 37.4954 10.7079 38.5029 12.4003 39.2792H16.2899V39.1561H16.2055C15.528 39.1561 14.9768 38.605 14.9768 37.9274Z" fill="#D3DCFB"/>
<path d="M14.9766 37.9274V31.8408H10.9363L10.8008 32.0049C10.8008 32.0049 12.0028 32.6488 12.0028 33.8793V36.4899C12.0028 36.4899 12.0306 38.1823 10.5996 38.3401C11.1835 38.6833 11.7844 38.9967 12.4001 39.2791H16.2897V39.156H16.2053C15.5277 39.1561 14.9766 38.605 14.9766 37.9274Z" fill="#BEC8F7"/>
<path d="M3.94628 32.0051H14.9769V26.5913H1.45557C2.01076 28.5102 2.85032 30.335 3.94628 32.0051Z" fill="#E9EFFF"/>
<path d="M8.60877 28.4919V26.5913H1.45557C2.01682 28.5331 2.8633 30.3534 3.94628 32.0051H10.8012C9.50554 31.3646 8.60877 30.0282 8.60877 28.4919Z" fill="#D3DCFB"/>
<path d="M12.2753 30.5057C12.9421 30.5057 13.4827 29.9651 13.4827 29.2982C13.4827 28.6314 12.9421 28.0908 12.2753 28.0908C11.6085 28.0908 11.0679 28.6314 11.0679 29.2982C11.0679 29.9651 11.6085 30.5057 12.2753 30.5057Z" fill="#BEC8F7"/>
<path d="M39.6989 18.8506H18.0084C16.95 18.8506 16.084 19.7166 16.084 20.775V23.5946C16.1239 23.5905 16.1643 23.5885 16.2053 23.5885H22.5086C23.1634 23.5885 23.6963 24.1213 23.6963 24.7761V36.4898H41.6212C41.6223 36.4637 41.6232 36.4375 41.6232 36.4112V20.7749C41.6233 19.7165 40.7573 18.8506 39.6989 18.8506Z" fill="#167CC1"/>
<path d="M30.6347 36.11C29.6661 35.1695 30.0035 34.132 30.3334 33.548C30.4661 33.3129 30.3727 33.0118 30.128 32.8979C28.9139 32.333 29.12 31.1717 29.2471 30.7387C29.2804 30.6236 29.2678 30.5 29.2119 30.3939L28.0414 28.1496C28.0096 28.0875 27.9638 28.0336 27.9076 27.9922C27.1594 27.4516 27.3084 26.6698 27.4802 26.225C27.5551 26.0311 27.4883 25.8091 27.3203 25.6867C26.4937 25.0836 26.6872 24.1828 26.8631 23.7209C26.9302 23.5447 26.8864 23.3438 26.7476 23.216C25.7907 22.3355 26.0813 21.4064 26.313 20.9626C26.3951 20.8051 26.3881 20.6134 26.2871 20.4673C25.9341 19.9564 26.0838 19.467 26.2541 19.163C26.3076 19.0682 26.3275 18.9581 26.3107 18.8506H18.0084C16.9499 18.8506 16.084 19.7166 16.084 20.775V23.5945C16.1239 23.5905 16.1644 23.5884 16.2052 23.5884H22.5085C23.1634 23.5884 23.6962 24.1212 23.6962 24.776V36.4898H30.7715C30.7789 36.4202 30.7705 36.3499 30.7468 36.2842C30.7231 36.2184 30.6847 36.1588 30.6347 36.11Z" fill="#0E62A8"/>
<path d="M17.9297 23.2603V23.5884H22.5085C23.1634 23.5884 23.6962 24.1212 23.6962 24.776V36.4898H39.4018C39.5014 36.4898 39.597 36.4502 39.6675 36.3797C39.738 36.3092 39.7776 36.2136 39.7776 36.114V23.2603H17.9297Z" fill="#FF4155"/>
<path d="M17.9297 23.5884H22.5085C23.1634 23.5884 23.6962 24.1212 23.6962 24.776V36.4898H30.7715C30.7789 36.4202 30.7704 36.3499 30.7466 36.2842C30.7229 36.2184 30.6846 36.1589 30.6345 36.11C29.6659 35.1695 30.0034 34.132 30.3332 33.548C30.4659 33.3129 30.3725 33.0118 30.1278 32.8979C28.9138 32.333 29.1198 31.1717 29.247 30.7387C29.2803 30.6236 29.2677 30.5 29.2118 30.3939L28.0412 28.1496C28.0095 28.0875 27.9637 28.0336 27.9075 27.9922C27.1592 27.4516 27.3082 26.6698 27.48 26.225C27.5549 26.0311 27.4881 25.8091 27.3201 25.6867C26.4935 25.0836 26.687 24.1828 26.863 23.7209C26.9229 23.5638 26.8938 23.3872 26.7886 23.2603H17.9297V23.5884Z" fill="#E80054"/>
<path d="M42.0021 36.4077H23.6962V37.9272C23.6962 38.5821 23.1634 39.1149 22.5085 39.1149H22.126V39.279H40.4591C41.678 39.279 42.6662 38.2908 42.6662 37.0718C42.6662 36.9846 42.649 36.8983 42.6157 36.8177C42.5823 36.7371 42.5334 36.6639 42.4717 36.6022C42.4101 36.5406 42.3369 36.4916 42.2563 36.4583C42.1757 36.4249 42.0894 36.4077 42.0021 36.4077Z" fill="#E9EFFF"/>
<path d="M23.6962 37.9272C23.6962 38.5821 23.1634 39.1149 22.5085 39.1149H22.126V39.279H30.9199C30.8942 39.2212 30.8569 39.1694 30.8103 39.1266C29.7642 38.1756 30.27 37.2248 30.6686 36.7392C30.7448 36.6463 30.782 36.5275 30.7726 36.4077H23.6961V37.9272H23.6962Z" fill="#D3DCFB"/>
<path d="M39.4018 20.6963H18.3055C18.2058 20.6963 18.1102 20.7359 18.0398 20.8064C17.9693 20.8768 17.9297 20.9724 17.9297 21.0721V23.4243H39.7776V21.0721C39.7776 21.0227 39.7678 20.9739 39.749 20.9283C39.7301 20.8827 39.7024 20.8412 39.6675 20.8064C39.6326 20.7715 39.5912 20.7438 39.5456 20.7249C39.5 20.706 39.4511 20.6963 39.4018 20.6963Z" fill="#FF7186"/>
<path d="M26.313 20.9626C26.3556 20.8807 26.3744 20.7884 26.3671 20.6963H18.3055C18.2058 20.6963 18.1102 20.7359 18.0398 20.8064C17.9693 20.8768 17.9297 20.9724 17.9297 21.0721V23.4243H26.8746C26.8522 23.3445 26.8082 23.2725 26.7476 23.216C25.7907 22.3355 26.0813 21.4064 26.313 20.9626Z" fill="#FF4155"/>
<path d="M22.5086 38.6638H16.2053C15.46 38.6638 14.8535 38.0575 14.8535 37.312V24.1609C14.8535 23.4155 15.4599 22.8091 16.2053 22.8091H22.5086C23.2539 22.8091 23.8604 23.4155 23.8604 24.1609V37.312C23.8604 38.0575 23.2539 38.6638 22.5086 38.6638Z" fill="#FFDD40"/>
<path d="M19.8009 24.1602H20.4202V22.8091H16.2053C15.46 22.8091 14.8535 23.4155 14.8535 24.1609V37.312C14.8535 38.0575 15.4599 38.6638 16.2053 38.6638H19.801C19.0556 38.6638 18.4492 38.0575 18.4492 37.312V25.5119C18.4491 24.7666 19.0555 24.1602 19.8009 24.1602Z" fill="#FFB332"/>
<path d="M17.1646 28.2939H16.938C16.5982 28.2939 16.3228 28.0186 16.3228 27.6787C16.3228 27.3389 16.5982 27.0635 16.938 27.0635H17.1646C17.3277 27.0635 17.4842 27.1283 17.5996 27.2437C17.715 27.3591 17.7798 27.5155 17.7798 27.6787C17.7798 27.8419 17.715 27.9984 17.5996 28.1137C17.4842 28.2291 17.3277 28.2939 17.1646 28.2939ZM17.1646 30.6586H16.938C16.7748 30.6586 16.6183 30.5938 16.503 30.4784C16.3876 30.363 16.3228 30.2065 16.3228 30.0433C16.3228 29.8802 16.3876 29.7237 16.503 29.6083C16.6183 29.4929 16.7748 29.4281 16.938 29.4281H17.1646C17.3277 29.4281 17.4842 29.4929 17.5996 29.6083C17.715 29.7237 17.7798 29.8802 17.7798 30.0433C17.7798 30.2065 17.715 30.363 17.5996 30.4784C17.4842 30.5938 17.3277 30.6586 17.1646 30.6586ZM17.1646 33.0232H16.938C16.7748 33.0232 16.6183 32.9584 16.503 32.843C16.3876 32.7276 16.3228 32.5711 16.3228 32.408C16.3228 32.2448 16.3876 32.0883 16.503 31.9729C16.6183 31.8576 16.7748 31.7927 16.938 31.7927H17.1646C17.3277 31.7927 17.4842 31.8576 17.5996 31.9729C17.715 32.0883 17.7798 32.2448 17.7798 32.408C17.7798 32.5711 17.715 32.7276 17.5996 32.843C17.4842 32.9584 17.3277 33.0232 17.1646 33.0232ZM17.1646 35.3878H16.938C16.5982 35.3878 16.3228 35.1125 16.3228 34.7726C16.3228 34.4328 16.5982 34.1574 16.938 34.1574H17.1646C17.5043 34.1574 17.7798 34.4328 17.7798 34.7726C17.7798 35.1125 17.5043 35.3878 17.1646 35.3878ZM21.7763 28.2939H19.0646C18.7248 28.2939 18.4493 28.0186 18.4493 27.6787C18.4493 27.3389 18.7248 27.0635 19.0646 27.0635H21.7763C21.9394 27.0635 22.0959 27.1283 22.2113 27.2437C22.3267 27.3591 22.3915 27.5155 22.3915 27.6787C22.3915 27.8419 22.3267 27.9984 22.2113 28.1137C22.0959 28.2291 21.9394 28.2939 21.7763 28.2939ZM21.7763 30.6586H19.0646C18.9014 30.6586 18.7449 30.5938 18.6295 30.4784C18.5142 30.363 18.4493 30.2065 18.4493 30.0433C18.4493 29.8802 18.5142 29.7237 18.6295 29.6083C18.7449 29.4929 18.9014 29.4281 19.0646 29.4281H21.7763C21.9394 29.4281 22.0959 29.4929 22.2113 29.6083C22.3267 29.7237 22.3915 29.8802 22.3915 30.0433C22.3915 30.2065 22.3267 30.363 22.2113 30.4784C22.0959 30.5938 21.9394 30.6586 21.7763 30.6586ZM21.7763 33.0232H19.0646C18.9014 33.0232 18.7449 32.9584 18.6295 32.843C18.5142 32.7276 18.4493 32.5711 18.4493 32.408C18.4493 32.2448 18.5142 32.0883 18.6295 31.9729C18.7449 31.8576 18.9014 31.7927 19.0646 31.7927H21.7763C21.9394 31.7927 22.0959 31.8576 22.2113 31.9729C22.3267 32.0883 22.3915 32.2448 22.3915 32.408C22.3915 32.5711 22.3267 32.7276 22.2113 32.843C22.0959 32.9584 21.9394 33.0232 21.7763 33.0232ZM21.7763 35.3878H19.0646C18.7248 35.3878 18.4493 35.1125 18.4493 34.7726C18.4493 34.4328 18.7248 34.1574 19.0646 34.1574H21.7763C22.116 34.1574 22.3915 34.4328 22.3915 34.7726C22.3915 35.1125 22.116 35.3878 21.7763 35.3878Z" fill="#FCF2C8"/>
<path d="M22.5085 22.1938H16.2052C15.1207 22.1938 14.2383 23.0763 14.2383 24.1609V37.312C14.2383 38.3967 15.1207 39.279 16.2052 39.279H22.5085C23.5931 39.279 24.4755 38.3966 24.4755 37.312V24.1609C24.4755 23.0763 23.5931 22.1938 22.5085 22.1938ZM23.2451 37.312C23.2451 37.4088 23.226 37.5045 23.189 37.5939C23.152 37.6833 23.0977 37.7645 23.0293 37.8328C22.9609 37.9012 22.8797 37.9555 22.7904 37.9925C22.701 38.0295 22.6052 38.0485 22.5085 38.0485H16.2052C16.0099 38.0485 15.8226 37.9709 15.6845 37.8328C15.5464 37.6947 15.4688 37.5074 15.4687 37.312V24.1608C15.4687 23.9654 15.5464 23.7781 15.6845 23.64C15.8226 23.5018 16.01 23.4242 16.2053 23.4242H17.34C17.4131 23.4242 17.4724 23.4835 17.4724 23.5566C17.4724 23.9894 17.8266 24.3436 18.2595 24.3436H20.4544C20.8873 24.3436 21.2415 23.9894 21.2415 23.5566C21.2415 23.4835 21.3007 23.4242 21.3739 23.4242H22.5086C22.7039 23.4242 22.8913 23.5018 23.0294 23.64C23.1675 23.7781 23.2451 23.9654 23.2451 24.1608V37.312H23.2451Z" fill="#167CC1"/>
<path d="M32.7029 30.3385C33.1154 28.2162 31.7293 26.1612 29.6069 25.7486C27.4845 25.3361 25.4296 26.7222 25.017 28.8446C24.6045 30.967 25.9906 33.0219 28.113 33.4345C30.2353 33.847 32.2903 32.4609 32.7029 30.3385Z" fill="#E9EFFF"/>
<path d="M30.1282 32.8982C28.9141 32.3332 29.1202 31.1719 29.2473 30.739C29.2806 30.6238 29.268 30.5002 29.2121 30.3942L28.0416 28.1499C28.0098 28.0878 27.964 28.0339 27.9078 27.9925C27.1596 27.4519 27.3086 26.6701 27.4804 26.2253C27.516 26.1325 27.5203 26.0306 27.4928 25.9351C26.0017 26.488 24.939 27.923 24.939 29.6064C24.939 31.7685 26.6917 33.5213 28.8538 33.5213C29.3786 33.522 29.898 33.4168 30.3812 33.212C30.3503 33.0791 30.2621 32.9605 30.1282 32.8982Z" fill="#D3DCFB"/>
<path d="M30.4822 29.3053L28.2849 28.067C28.0545 27.9371 27.7695 28.1037 27.7695 28.3681V30.8448C27.7695 31.1093 28.0545 31.2758 28.2849 31.146L30.4822 29.9076C30.7168 29.7755 30.7168 29.4376 30.4822 29.3053Z" fill="#FF4155"/>
<path d="M18.6687 38.0486H16.2056C16.0103 38.0486 15.823 37.971 15.6849 37.8329C15.5468 37.6948 15.4692 37.5074 15.4692 37.3121V24.1609C15.4692 23.9655 15.5468 23.7782 15.6849 23.64C15.823 23.5019 16.0104 23.4243 16.2057 23.4243H17.3405C17.4135 23.4243 17.4729 23.4835 17.4729 23.5566C17.4729 23.9895 17.827 24.3436 18.2599 24.3436H19.1232C18.2502 23.3224 18.9538 22.4259 19.1695 22.1938H16.2057C15.1212 22.1938 14.2388 23.0763 14.2388 24.1609V37.312C14.2388 38.3967 15.1212 39.279 16.2057 39.279H18.5173C18.0689 38.6417 18.6135 38.1008 18.6687 38.0486Z" fill="#0E62A8"/>
</g>
<defs>
<clipPath id="clip0_175_14994">
<rect width="42" height="42" fill="white" transform="translate(0.666504)"/>
</clipPath>
</defs>
</svg>
