<svg width="25" height="24" viewBox="0 0 25 24" fill="none" xmlns="http://www.w3.org/2000/svg">
<path d="M12.704 10.1816V14.0544H18.1957C17.9546 15.2999 17.2309 16.3545 16.1456 17.0635L19.4573 19.5818C21.3868 17.8363 22.5 15.2727 22.5 12.2272C22.5 11.5181 22.4351 10.8362 22.3144 10.1817L12.704 10.1816Z" fill="#4285F4"/>
<path d="M6.98542 13.9033L6.23851 14.4636L3.59467 16.4818C5.27371 19.7454 8.71503 22 12.7039 22C15.459 22 17.7688 21.1091 19.4571 19.5819L16.1454 17.0636C15.2363 17.6636 14.0768 18.0273 12.7039 18.0273C10.0508 18.0273 7.79671 16.2728 6.9896 13.9091L6.98542 13.9033Z" fill="#34A853"/>
<path d="M3.59467 7.51807C2.89897 8.86347 2.50012 10.3817 2.50012 11.9999C2.50012 13.618 2.89897 15.1362 3.59467 16.4816C3.59467 16.4907 6.98993 13.8998 6.98993 13.8998C6.78584 13.2998 6.66522 12.6635 6.66522 11.9998C6.66522 11.336 6.78584 10.6997 6.98993 10.0997L3.59467 7.51807Z" fill="#FBBC05"/>
<path d="M12.7041 5.98184C14.2069 5.98184 15.5427 6.49092 16.6095 7.47276L19.5316 4.60914C17.7598 2.99098 15.4593 2 12.7041 2C8.71524 2 5.27371 4.24547 3.59467 7.51823L6.98982 10.1001C7.79683 7.73639 10.051 5.98184 12.7041 5.98184Z" fill="#EA4335"/>
</svg>
