<svg width="213" height="48" viewBox="0 0 213 48" fill="none" xmlns="http://www.w3.org/2000/svg">
<path d="M39.9164 11.8872C47.0173 11.8872 52.343 17.3843 52.343 25.1333V46.9232H44.5188V26.4579C44.5188 21.9542 41.8231 18.7752 37.9439 18.7752C33.5387 18.7752 30.5143 21.7555 30.5143 25.9281V46.9232H22.6901V26.4579C22.6901 21.9542 19.9944 18.7752 16.0495 18.7752C11.71 18.7752 8.61984 21.7555 8.61984 25.9281V46.9232H0.59845V12.6819H8.61984V17.3181C10.3293 14.0065 13.814 11.8872 18.0877 11.8872C22.8874 11.8872 26.8323 14.3377 28.9363 18.3778C30.58 14.4039 34.8537 11.8872 39.9164 11.8872Z" fill="white"/>
<path d="M76.8653 40.5651C80.0213 40.5651 83.769 39.108 85.6757 37.1211L90.7384 42.4195C87.7797 45.5986 81.8623 47.718 76.9311 47.718C67.2002 47.718 59.1788 40.2339 59.1788 29.7032C59.1788 19.4375 66.8057 11.8872 76.4708 11.8872C86.9907 11.8872 93.1054 19.9011 93.1054 32.5512H67.4632C68.4495 37.2535 71.9999 40.5651 76.8653 40.5651ZM76.7996 19.0401C72.3287 19.0401 68.7125 21.888 67.529 26.3917H85.4127C84.4922 22.0867 81.5993 19.0401 76.7996 19.0401Z" fill="white"/>
<path d="M125.898 0.62793H133.919V46.9232H125.898V41.6248C123.202 45.4662 119.126 47.718 114.129 47.718C105.121 47.718 98.5461 40.3002 98.5461 29.7695C98.5461 19.305 105.121 11.8872 114.129 11.8872C119.126 11.8872 123.202 14.139 125.898 17.9804V0.62793ZM116.298 40.83C121.953 40.83 125.898 36.1939 125.898 29.7695C125.898 23.3451 121.953 18.7752 116.298 18.7752C110.578 18.7752 106.502 23.3451 106.502 29.7695C106.502 36.1939 110.578 40.83 116.298 40.83Z" fill="white"/>
<path d="M141.569 46.9232V41.0287L159.584 19.7686H141.963V12.6819H170.169L170.104 18.5765L152.023 39.8365H170.301V46.9232H141.569Z" fill="white"/>
<path d="M193.995 47.718C184.132 47.718 175.782 39.5054 175.782 29.7695C175.782 20.0335 184.132 11.8872 193.995 11.8872C203.857 11.8872 212.207 20.0335 212.207 29.7695C212.207 39.5054 203.857 47.718 193.995 47.718ZM193.995 40.83C199.583 40.83 204.317 35.7965 204.317 29.7695C204.317 23.8087 199.583 18.7752 193.995 18.7752C188.34 18.7752 183.606 23.8087 183.606 29.7695C183.606 35.7965 188.34 40.83 193.995 40.83Z" fill="white"/>
</svg>
