<svg width="133" height="42" viewBox="0 0 133 42" fill="none" xmlns="http://www.w3.org/2000/svg">
<path d="M23.3924 25.3099L24.4283 23.3532V34H23.3924V25.3099ZM25.4642 21.3389L26.5001 19.3822V34H25.4642V21.3389ZM27.536 17.4255L28.5719 15.4544V34H27.536V17.4255ZM20.5868 24.8207L19.9969 23.7417L27.1331 10.1742H28.2985L20.5868 24.8207ZM19.3926 22.5619L18.7883 21.4684L24.7736 10.1742H25.9534L19.3926 22.5619ZM12.4578 23.4683L13.4937 25.425V34H12.4578V23.4683ZM10.386 19.5261L11.4219 21.4828V34H10.386V19.5261ZM8.31419 15.5839L9.35009 17.555V34H8.31419V15.5839ZM16.6878 27.7846H15.5224L7.27828 12.1453V34H6.24238V10.1742H7.40777L16.6878 27.7846ZM19.0329 27.7846H17.8532L8.58755 10.1742H9.76733L19.0329 27.7846ZM29.6078 12.1453L21.3637 27.7846H20.1839L10.9327 10.1742H12.0981L20.7882 26.6911L29.4639 10.1742H30.6437V34H29.6078V12.1453ZM38.5274 34H37.4915V10.1742H38.5274V34ZM36.4556 34H35.4197V10.1742H36.4556V34ZM34.3838 34H33.3479V10.1742H34.3838V34ZM40.5992 28.8205H51.6201V29.8564H40.5992V30.8923H51.6201V31.9282H40.5992V32.9641H51.6201V34H39.5633V10.1742H51.6201V11.2101H40.5992V12.246H51.6201V13.2819H40.5992V14.3178H51.6201V15.3537H40.5992V19.4973H46.2535V20.5332H40.5992V21.5691H46.2535V22.605H40.5992V23.6409H46.2535V24.6768H40.5992V28.8205ZM60.3671 27.7846V16.3896C60.3671 16.3896 62.7218 16.3896 67.4314 16.3896C68.5728 16.3896 69.5511 16.9507 70.3664 18.073C71.1913 19.1856 71.6038 20.5236 71.6038 22.0871C71.6038 23.6601 71.1913 25.003 70.3664 26.1156C69.5511 27.2282 68.5728 27.7846 67.4314 27.7846H60.3671ZM61.403 26.7487H67.4314C68.285 26.7487 69.014 26.2931 69.6183 25.3818C70.2321 24.4706 70.5391 23.3724 70.5391 22.0871C70.5391 20.7922 70.2321 19.694 69.6183 18.7923C69.014 17.8811 68.285 17.4255 67.4314 17.4255H61.403V26.7487ZM59.3312 28.8205H67.4314C68.8605 28.8205 70.0883 28.1634 71.1146 26.8494C72.1505 25.5257 72.6684 23.9383 72.6684 22.0871C72.6684 20.8689 72.4287 19.7419 71.9491 18.706C71.4791 17.6701 70.8412 16.8548 70.0355 16.2601C69.2394 15.6558 68.3714 15.3537 67.4314 15.3537H59.3312V28.8205ZM58.2953 29.8564V14.3178H67.4314C68.5536 14.3178 69.5991 14.6631 70.5679 15.3537C71.5366 16.0443 72.304 16.9891 72.8699 18.1881C73.4454 19.3774 73.7331 20.6771 73.7331 22.0871C73.7331 23.4875 73.4454 24.7872 72.8699 25.9861C72.304 27.1851 71.5366 28.1299 70.5679 28.8205C69.5991 29.5111 68.5536 29.8564 67.4314 29.8564H58.2953ZM57.2593 30.8923H67.4314C68.7454 30.8923 69.9636 30.499 71.0858 29.7125C72.2176 28.926 73.1193 27.8565 73.7907 26.5041C74.4621 25.1516 74.7978 23.6793 74.7978 22.0871C74.7978 20.5045 74.4621 19.0369 73.7907 17.6845C73.1193 16.3225 72.2176 15.2482 71.0858 14.4617C69.954 13.6751 68.7358 13.2819 67.4314 13.2819H57.2593V30.8923ZM56.2234 31.9282V12.246H67.4314C68.9277 12.246 70.3233 12.6872 71.6182 13.5696C72.913 14.4425 73.9441 15.6367 74.7115 17.1521C75.4788 18.6676 75.8625 20.3126 75.8625 22.0871C75.8625 23.8616 75.4788 25.5065 74.7115 27.022C73.9441 28.5375 72.913 29.7365 71.6182 30.6189C70.3233 31.4918 68.9277 31.9282 67.4314 31.9282H56.2234ZM55.1875 32.9641H67.4314C68.6879 32.9641 69.9012 32.6763 71.0714 32.1008C72.2416 31.5253 73.2535 30.7532 74.1072 29.7844C74.9609 28.8157 75.6419 27.6599 76.1502 26.317C76.6682 24.9646 76.9272 23.5546 76.9272 22.0871C76.9272 20.6196 76.6682 19.2144 76.1502 17.8715C75.6419 16.5287 74.9609 15.3729 74.1072 14.4041C73.2535 13.4258 72.2416 12.6488 71.0714 12.0733C69.9012 11.4978 68.6879 11.2101 67.4314 11.2101H55.1875V32.9641ZM67.4314 34H54.1516V10.1742H67.4314C69.3018 10.1742 71.0474 10.7065 72.6684 11.7712C74.2894 12.8359 75.5795 14.2842 76.5387 16.1162C77.5075 17.9483 77.9918 19.9385 77.9918 22.0871C77.9918 23.6985 77.7041 25.2428 77.1286 26.7199C76.5627 28.1874 75.8049 29.4535 74.8554 30.5182C73.9058 31.5829 72.7788 32.4318 71.4743 33.0648C70.1794 33.6883 68.8318 34 67.4314 34ZM91.5155 27.7846L93.2276 26.7487H102.867V27.7846H91.5155ZM88.12 29.8564L89.8609 28.8205H102.867V29.8564H88.12ZM84.6814 31.9282L86.4367 30.8923H102.867V31.9282H84.6814ZM91.4004 16.3896L89.6883 17.4255H80.0486V16.3896H91.4004ZM94.7959 14.3178L93.055 15.3537H80.0486V14.3178H94.7959ZM98.2345 12.246L96.4792 13.2819H80.0486V12.246H98.2345ZM102.867 12.6057V13.8142L80.0486 29.1514V27.9428L102.867 12.6057ZM102.867 15.0516V16.2745L80.0486 31.5973V30.3599L102.867 15.0516ZM102.867 17.4831V18.6916L81.5881 32.9641H102.867V34H80.0486C80.0486 34 80.0486 33.5924 80.0486 32.7771L102.867 17.4831ZM101.328 11.2101H80.0486V10.1742H102.867C102.867 10.1742 102.867 10.5866 102.867 11.4115L80.0486 26.7055V25.5113L101.328 11.2101ZM113.787 18.0586C112.674 19.1712 112.118 20.514 112.118 22.0871C112.118 23.6601 112.674 25.003 113.787 26.1156C114.899 27.2282 116.242 27.7846 117.815 27.7846C119.388 27.7846 120.731 27.2282 121.844 26.1156C122.956 25.003 123.513 23.6601 123.513 22.0871C123.513 20.514 122.956 19.1712 121.844 18.0586C120.731 16.9459 119.388 16.3896 117.815 16.3896C116.242 16.3896 114.899 16.9459 113.787 18.0586ZM111.614 24.7056C111.259 23.8711 111.082 22.9983 111.082 22.0871C111.082 21.1759 111.259 20.3078 111.614 19.4829C111.969 18.6485 112.449 17.9291 113.053 17.3248C113.657 16.7205 114.372 16.2409 115.197 15.886C116.031 15.5311 116.904 15.3537 117.815 15.3537C118.726 15.3537 119.595 15.5311 120.419 15.886C121.254 16.2409 121.973 16.7205 122.578 17.3248C123.182 17.9291 123.661 18.6485 124.016 19.4829C124.371 20.3078 124.549 21.1759 124.549 22.0871C124.549 22.9983 124.371 23.8711 124.016 24.7056C123.661 25.5305 123.182 26.2451 122.578 26.8494C121.973 27.4537 121.254 27.9332 120.419 28.2881C119.595 28.643 118.726 28.8205 117.815 28.8205C116.904 28.8205 116.031 28.643 115.197 28.2881C114.372 27.9332 113.657 27.4537 113.053 26.8494C112.449 26.2451 111.969 25.5305 111.614 24.7056ZM111.082 18.1881C110.391 19.3774 110.046 20.6771 110.046 22.0871C110.046 23.4971 110.391 24.7967 111.082 25.9861C111.782 27.1755 112.727 28.1203 113.916 28.8205C115.106 29.5111 116.405 29.8564 117.815 29.8564C119.225 29.8564 120.525 29.5111 121.714 28.8205C122.904 28.1203 123.844 27.1755 124.534 25.9861C125.234 24.7967 125.585 23.4971 125.585 22.0871C125.585 20.6771 125.234 19.3774 124.534 18.1881C123.844 16.9987 122.904 16.0587 121.714 15.3681C120.525 14.6679 119.225 14.3178 117.815 14.3178C116.405 14.3178 115.106 14.6679 113.916 15.3681C112.727 16.0587 111.782 16.9987 111.082 18.1881ZM110.19 26.5041C109.403 25.1516 109.01 23.6793 109.01 22.0871C109.01 20.4949 109.403 19.0225 110.19 17.6701C110.976 16.3177 112.046 15.2482 113.398 14.4617C114.751 13.6751 116.223 13.2819 117.815 13.2819C119.408 13.2819 120.88 13.6751 122.232 14.4617C123.585 15.2482 124.654 16.3177 125.441 17.6701C126.227 19.0225 126.62 20.4949 126.62 22.0871C126.62 23.6793 126.227 25.1516 125.441 26.5041C124.654 27.8565 123.585 28.926 122.232 29.7125C120.88 30.499 119.408 30.8923 117.815 30.8923C116.223 30.8923 114.751 30.499 113.398 29.7125C112.046 28.926 110.976 27.8565 110.19 26.5041ZM108.751 18.26C108.233 19.4781 107.974 20.7538 107.974 22.0871C107.974 23.4203 108.233 24.696 108.751 25.9142C109.269 27.1323 109.964 28.1826 110.837 29.0651C111.72 29.9379 112.77 30.6333 113.988 31.1513C115.206 31.6692 116.482 31.9282 117.815 31.9282C119.149 31.9282 120.424 31.6692 121.642 31.1513C122.861 30.6333 123.906 29.9379 124.779 29.0651C125.661 28.1826 126.362 27.1323 126.879 25.9142C127.397 24.696 127.656 23.4203 127.656 22.0871C127.656 20.7538 127.397 19.4781 126.879 18.26C126.362 17.0418 125.661 15.9963 124.779 15.1235C123.906 14.2411 122.861 13.5409 121.642 13.0229C120.424 12.505 119.149 12.246 117.815 12.246C116.482 12.246 115.206 12.505 113.988 13.0229C112.77 13.5409 111.72 14.2411 110.837 15.1235C109.964 15.9963 109.269 17.0418 108.751 18.26ZM108.391 27.54C107.423 25.871 106.938 24.0534 106.938 22.0871C106.938 20.1208 107.423 18.3032 108.391 16.6342C109.37 14.9652 110.693 13.6464 112.362 12.6776C114.031 11.6993 115.849 11.2101 117.815 11.2101C119.782 11.2101 121.599 11.6993 123.268 12.6776C124.937 13.6464 126.256 14.9652 127.225 16.6342C128.203 18.3032 128.692 20.1208 128.692 22.0871C128.692 24.0534 128.203 25.871 127.225 27.54C126.256 29.2089 124.937 30.5326 123.268 31.5109C121.599 32.4797 119.782 32.9641 117.815 32.9641C115.849 32.9641 114.031 32.4797 112.362 31.5109C110.693 30.5326 109.37 29.2089 108.391 27.54ZM106.838 17.4687C106.214 18.9362 105.902 20.4757 105.902 22.0871C105.902 23.6985 106.214 25.2428 106.838 26.7199C107.471 28.1874 108.319 29.4535 109.384 30.5182C110.449 31.5829 111.715 32.4318 113.182 33.0648C114.66 33.6883 116.204 34 117.815 34C119.427 34 120.966 33.6883 122.434 33.0648C123.911 32.4318 125.182 31.5829 126.246 30.5182C127.311 29.4535 128.155 28.1874 128.779 26.7199C129.412 25.2428 129.728 23.6985 129.728 22.0871C129.728 20.4757 129.412 18.9362 128.779 17.4687C128.155 15.9915 127.311 14.7206 126.246 13.656C125.182 12.5913 123.911 11.7472 122.434 11.1237C120.966 10.4907 119.427 10.1742 117.815 10.1742C116.204 10.1742 114.66 10.4907 113.182 11.1237C111.715 11.7472 110.449 12.5913 109.384 13.656C108.319 14.7206 107.471 15.9915 106.838 17.4687ZM105.888 27.1227C105.207 25.5209 104.866 23.8424 104.866 22.0871C104.866 20.3318 105.207 18.658 105.888 17.0658C106.579 15.464 107.499 14.0876 108.65 12.9366C109.811 11.776 111.187 10.8552 112.78 10.1742C114.381 9.48357 116.06 9.13826 117.815 9.13826C119.571 9.13826 121.244 9.48357 122.837 10.1742C124.438 10.8552 125.815 11.776 126.966 12.9366C128.126 14.0876 129.047 15.464 129.728 17.0658C130.419 18.658 130.764 20.3318 130.764 22.0871C130.764 23.8424 130.419 25.5209 129.728 27.1227C129.047 28.715 128.126 30.0914 126.966 31.252C125.815 32.403 124.438 33.319 122.837 34C121.244 34.6906 119.571 35.0359 117.815 35.0359C116.06 35.0359 114.381 34.6906 112.78 34C111.187 33.319 109.811 32.403 108.65 31.252C107.499 30.0914 106.579 28.715 105.888 27.1227Z" fill="white"/>
</svg>
