<svg width="43" height="42" viewBox="0 0 43 42" fill="none" xmlns="http://www.w3.org/2000/svg">
<g clip-path="url(#clip0_175_9685)">
<mask id="mask0_175_9685" style="mask-type:luminance" maskUnits="userSpaceOnUse" x="0" y="0" width="43" height="42">
<path d="M0.666504 0.00012207H42.6664V42H0.666504V0.00012207Z" fill="white"/>
</mask>
<g mask="url(#mask0_175_9685)">
<path d="M37.7265 33.9854C40.2609 30.6221 41.764 26.4379 41.764 21.9022C41.764 10.8026 32.766 1.80457 21.6664 1.80457C10.5668 1.80457 1.56885 10.8026 1.56885 21.9022C1.56885 32.049 9.08888 40.438 18.8593 41.8037L37.7265 33.9854Z" fill="#E80054"/>
<path d="M36.432 18.211C36.432 26.3658 29.8212 32.9766 21.6665 32.9766C13.5117 32.9766 6.90088 26.3658 6.90088 18.211C6.90088 10.0562 13.5117 3.4454 21.6665 3.4454C29.8212 3.4454 36.432 10.0562 36.432 18.211Z" fill="#FF4155"/>
<path d="M18.8594 9.43369V41.8039C19.7894 41.9342 20.7274 41.9998 21.6665 42C21.8261 42 21.985 41.9966 22.1437 41.9929L34.4385 37.4173C35.6656 36.4067 36.7692 35.2548 37.7265 33.9857V9.43369H18.8594Z" fill="#FFC839"/>
<path d="M23.7812 41.3835V13.9454C22.8751 13.9454 22.1406 13.2109 22.1406 12.3048C22.1406 11.3987 22.8751 10.6642 23.7812 10.6642V9.43369H18.8594V41.8039C19.7894 41.9342 20.7274 41.9998 21.6665 42C21.8252 42 21.9834 41.9975 22.1414 41.9937L23.7812 41.3835Z" fill="#FFB332"/>
<path d="M32.8047 13.9455H23.7812C22.8751 13.9455 22.1406 14.68 22.1406 15.5861V41.9941C26.8098 41.886 31.0854 40.1859 34.4453 37.4149V15.5861C34.4453 14.68 33.7108 13.9455 32.8047 13.9455Z" fill="#E9EFFF"/>
<path d="M22.1406 15.5861V41.9941C23.2064 41.9697 24.2685 41.8607 25.317 41.6684V15.5861C25.317 14.68 26.0515 13.9455 26.9576 13.9455H23.7812C22.8751 13.9455 22.1406 14.68 22.1406 15.5861Z" fill="#D3DCFB"/>
<path d="M30.7728 21.3377H29.5329V22.5777C29.5329 22.7092 29.4806 22.8354 29.3876 22.9284C29.2946 23.0215 29.1684 23.0737 29.0368 23.0737H27.5489C27.4173 23.0737 27.2911 23.0215 27.1981 22.9284C27.1051 22.8354 27.0528 22.7092 27.0528 22.5777V21.3377H25.8129C25.7477 21.3377 25.6832 21.3249 25.6231 21.3C25.5629 21.275 25.5082 21.2385 25.4622 21.1924C25.4161 21.1464 25.3796 21.0917 25.3546 21.0315C25.3297 20.9714 25.3169 20.9069 25.3169 20.8417V19.3538C25.3169 19.2223 25.3691 19.0961 25.4622 19.0031C25.5552 18.9101 25.6813 18.8578 25.8129 18.8578H27.0528V17.6178C27.0528 17.5526 27.0657 17.4881 27.0906 17.428C27.1155 17.3678 27.1521 17.3131 27.1981 17.267C27.2442 17.221 27.2989 17.1845 27.3591 17.1595C27.4192 17.1346 27.4837 17.1218 27.5489 17.1218H29.0368C29.102 17.1218 29.1665 17.1346 29.2267 17.1595C29.2868 17.1845 29.3415 17.221 29.3876 17.267C29.4336 17.3131 29.4702 17.3678 29.4951 17.428C29.52 17.4881 29.5329 17.5526 29.5329 17.6178V18.8578H30.7728C30.8379 18.8578 30.9024 18.8706 30.9626 18.8956C31.0228 18.9205 31.0775 18.957 31.1235 19.0031C31.1696 19.0491 31.2061 19.1038 31.2311 19.164C31.256 19.2242 31.2688 19.2887 31.2688 19.3538V20.8417C31.2688 20.9069 31.256 20.9714 31.2311 21.0316C31.2061 21.0917 31.1696 21.1464 31.1235 21.1925C31.0775 21.2385 31.0228 21.2751 30.9626 21.3C30.9024 21.3249 30.8379 21.3377 30.7728 21.3377Z" fill="#FF4155"/>
<path d="M29.0368 18.8578C28.352 18.8578 27.7969 19.413 27.7969 20.0978C27.7969 20.7826 28.352 21.3377 29.0368 21.3377H29.5329V22.5778C29.5329 22.6429 29.52 22.7074 29.4951 22.7676C29.4702 22.8278 29.4336 22.8824 29.3876 22.9285C29.3415 22.9746 29.2868 23.0111 29.2267 23.036C29.1665 23.0609 29.102 23.0737 29.0368 23.0737H27.5489C27.4837 23.0737 27.4192 23.0609 27.3591 23.036C27.2989 23.0111 27.2442 22.9746 27.1981 22.9285C27.1521 22.8824 27.1155 22.8278 27.0906 22.7676C27.0657 22.7074 27.0528 22.6429 27.0528 22.5778V21.3377H25.8129C25.6813 21.3377 25.5552 21.2855 25.4622 21.1924C25.3691 21.0994 25.3169 20.9733 25.3169 20.8417V19.3538C25.3169 19.2223 25.3691 19.0961 25.4622 19.0031C25.5552 18.9101 25.6813 18.8578 25.8129 18.8578H27.0528V17.6178C27.0528 17.4863 27.1051 17.3601 27.1981 17.2671C27.2911 17.1741 27.4173 17.1218 27.5489 17.1218H29.0368C29.1684 17.1218 29.2946 17.1741 29.3876 17.2671C29.4806 17.3601 29.5329 17.4863 29.5329 17.6178V18.8578H29.0368Z" fill="#E80054"/>
<path d="M34.8554 3.28125H21.7305C20.8243 3.28125 20.0898 2.54674 20.0898 1.64063C20.0898 0.734515 20.8243 9.53674e-06 21.7305 9.53674e-06H34.8554C35.7615 9.53674e-06 36.496 0.734515 36.496 1.64063C36.496 2.54674 35.7615 3.28125 34.8554 3.28125Z" fill="#BEC8F7"/>
<path d="M25.0117 1.64063C25.0117 0.734515 25.7462 9.53674e-06 26.6523 9.53674e-06H21.7305C20.8243 9.53674e-06 20.0898 0.734515 20.0898 1.64063C20.0898 2.54674 20.8243 3.28125 21.7305 3.28125H26.6523C25.7462 3.28125 25.0117 2.54674 25.0117 1.64063Z" fill="#A2B6F4"/>
<path d="M36.496 8.20313L28.2929 9.02344L20.0898 8.20313C19.1837 8.20313 18.4492 7.46862 18.4492 6.56251V3.28127C18.4492 2.37515 19.1837 1.64065 20.0898 1.64065H36.496C37.4022 1.64065 38.1367 2.37515 38.1367 3.28127V6.56251C38.1367 7.46862 37.4022 8.20313 36.496 8.20313Z" fill="#D3DCFB"/>
<path d="M23.3711 6.56251V3.28127C23.3711 2.37515 24.1056 1.64065 25.0117 1.64065H20.0898C19.1837 1.64065 18.4492 2.37515 18.4492 3.28127V6.56251C18.4492 7.46862 19.1837 8.20313 20.0898 8.20313L25.0117 8.69531V8.20313C24.1056 8.20313 23.3711 7.46862 23.3711 6.56251Z" fill="#BEC8F7"/>
<path d="M38.3417 5.53711H18.2441C18.081 5.53711 17.9245 5.47229 17.8091 5.35691C17.6937 5.24153 17.6289 5.08505 17.6289 4.92188C17.6289 4.75871 17.6937 4.60222 17.8091 4.48684C17.9245 4.37146 18.081 4.30664 18.2441 4.30664H38.3417C38.5049 4.30664 38.6614 4.37146 38.7768 4.48684C38.8922 4.60222 38.957 4.75871 38.957 4.92188C38.957 5.08505 38.8922 5.24153 38.7768 5.35691C38.6614 5.47229 38.5049 5.53711 38.3417 5.53711Z" fill="#E9EFFF"/>
<path d="M37.7265 10.6641H18.8594C18.1798 10.6641 17.6289 10.1131 17.6289 9.4336C17.6289 8.75405 18.1798 8.20313 18.8594 8.20313H37.7265C38.406 8.20313 38.957 8.75405 38.957 9.4336C38.957 10.1131 38.406 10.6641 37.7265 10.6641Z" fill="#FFDD40"/>
<path d="M22.5508 9.4336C22.5508 8.75405 23.1017 8.20313 23.7812 8.20313H18.8594C18.1797 8.20313 17.6289 8.75405 17.6289 9.4336C17.6289 10.1131 18.1797 10.6641 18.8594 10.6641H23.7812C23.1017 10.6641 22.5508 10.1131 22.5508 9.4336Z" fill="#FFC839"/>
<path d="M15.5963 33.2518C14.6352 34.2129 13.0771 34.2129 12.116 33.2518L7.47563 28.6115C6.51463 27.6504 6.51463 26.0923 7.47563 25.1312C8.4367 24.1702 9.99488 24.1702 10.956 25.1312L15.5963 29.7716C16.5574 30.7327 16.5574 32.2908 15.5963 33.2518Z" fill="#E9EFFF"/>
<path d="M13.8562 31.5117L9.21581 26.8714C8.57187 26.2274 8.36015 25.3154 8.57917 24.4945C8.1616 24.6057 7.78089 24.8253 7.47569 25.1312C6.51461 26.0923 6.51461 27.6504 7.47569 28.6115L12.1161 33.2518C13.0771 34.2129 14.6354 34.2129 15.5963 33.2518C15.9022 32.9467 16.1219 32.566 16.2331 32.1485C15.4121 32.3675 14.5002 32.1558 13.8562 31.5117Z" fill="#D3DCFB"/>
<path d="M10.2309 31.3667L13.7111 27.8865L12.8411 27.0163L9.36084 30.4967L10.2309 31.3667Z" fill="#BEC8F7"/>
<path d="M15.5963 23.6894C14.6352 24.6504 13.0771 24.6504 12.116 23.6894L7.47563 19.049C6.51463 18.0879 6.51463 16.5298 7.47563 15.5688C8.4367 14.6077 9.99488 14.6077 10.956 15.5688L15.5963 20.2091C16.5574 21.1702 16.5574 22.7283 15.5963 23.6894Z" fill="#E9EFFF"/>
<path d="M13.8562 21.9497L9.21581 17.3093C8.57187 16.6654 8.36015 15.7534 8.57917 14.9325C8.1616 15.0437 7.78089 15.2633 7.47569 15.5692C6.51461 16.5303 6.51461 18.0884 7.47569 19.0495L12.1161 23.6898C13.0771 24.6509 14.6354 24.6509 15.5963 23.6898C15.9022 23.3846 16.1219 23.004 16.2331 22.5864C15.4121 22.8055 14.5002 22.5937 13.8562 21.9497Z" fill="#D3DCFB"/>
<path d="M10.2309 21.8047L13.7111 18.3244L12.8411 17.4543L9.36084 20.9346L10.2309 21.8047Z" fill="#BEC8F7"/>
</g>
</g>
<defs>
<clipPath id="clip0_175_9685">
<rect width="42" height="42" fill="white" transform="translate(0.666504)"/>
</clipPath>
</defs>
</svg>
