<svg width="42" height="42" viewBox="0 0 42 42" fill="none" xmlns="http://www.w3.org/2000/svg">
<path d="M5.58986 34.8022L33.1224 37.9324C37.9674 34.2629 41.098 28.4484 41.098 21.902C41.098 10.8023 32.0999 1.8042 21.0002 1.8042C9.90043 1.8042 0.902344 10.8023 0.902344 21.902C0.902344 26.8127 2.66454 31.3113 5.58986 34.8022Z" fill="#27A6FF"/>
<path d="M16.1972 0.19991C15.0766 0.939094 14.8413 2.2753 14.8413 3.26607V17.0063H30.3811V1.15008C30.3811 0.51491 29.8661 0 29.231 0H16.5577C16.4328 0.0576083 16.3123 0.124429 16.1972 0.19991Z" fill="#E8F8FC"/>
<path d="M30.381 16.9242H14.9233V3.26599C14.9233 1.1016 15.9896 0.298184 16.7664 0H9.48162C8.84645 0 8.33154 0.51491 8.33154 1.15008V19.0196H30.381V16.9242Z" fill="#ADE9F7"/>
<path d="M12.8864 17.1094C12.8664 17.1281 12.8463 17.1465 12.8269 17.1659C12.315 17.6778 12.0591 18.3486 12.0591 19.0196H14.7965L12.8864 17.1094Z" fill="#E51E82"/>
<path d="M17.3017 19.0194C17.3017 18.3486 17.0458 17.6776 16.5339 17.1658C15.5101 16.142 13.8504 16.142 12.8267 17.1658L14.6803 19.0194H17.3017Z" fill="#FE3D97"/>
<path d="M24.302 5.1901C24.302 4.17086 23.738 3.28492 22.9063 2.82227C22.0219 3.2435 21.4106 4.14527 21.4106 5.1901C21.4106 6.23493 22.022 7.1367 22.9063 7.55793C23.738 7.09527 24.302 6.20934 24.302 5.1901Z" fill="#ADE9F7"/>
<path d="M24.0317 2.56885C23.6143 2.56846 23.2029 2.66821 22.832 2.85973C23.6761 3.29515 24.2537 4.17502 24.2537 5.19024C24.2537 6.20554 23.6761 7.08533 22.832 7.52075C23.2029 7.71227 23.6143 7.81202 24.0317 7.81163C25.4795 7.81163 26.6531 6.63801 26.6531 5.19016C26.6531 3.74247 25.4795 2.56885 24.0317 2.56885Z" fill="#6AD9FB"/>
<path d="M38.0887 7.56361C38.07 7.54368 38.0516 7.52358 38.0321 7.50414C37.0084 6.48039 35.3486 6.48039 34.3249 7.50414C33.3012 8.52789 33.3012 10.1877 34.3249 11.2114C34.3443 11.2308 34.3644 11.2492 34.3844 11.2679L38.0887 7.56361ZM22.2379 17.1095C22.218 17.1282 22.1979 17.1466 22.1785 17.166C21.6666 17.6779 21.4106 18.3488 21.4106 19.0197H24.1481L22.2379 17.1095Z" fill="#FE3D97"/>
<path d="M26.6533 19.0194C26.6533 18.3486 26.3973 17.6776 25.8855 17.1658C24.8617 16.142 23.202 16.142 22.1782 17.1658L24.0319 19.0194H26.6533Z" fill="#FD77A6"/>
<path d="M22.2379 10.1538C22.218 10.1725 22.1979 10.1909 22.1785 10.2103C21.1547 11.2341 21.1547 12.8939 22.1785 13.9176C23.2022 14.9413 24.862 14.9413 25.8857 13.9176C25.9051 13.8981 25.9235 13.878 25.9422 13.8581L22.2379 10.1538Z" fill="#FE3D97"/>
<path d="M25.8855 10.2102C24.8617 9.18645 23.202 9.18645 22.1782 10.2102L25.8855 13.9174C26.9092 12.8937 26.9092 11.2339 25.8855 10.2102Z" fill="#FD77A6"/>
<path d="M16.2145 32.8756C16.2345 32.8925 16.2529 32.9097 16.2741 32.9267C16.2741 32.9267 13.5326 36.9944 16.2122 41.4239C17.7794 41.8069 19.3869 42.0003 21.0002 41.9998C25.5535 41.9998 29.7526 40.4848 33.1225 37.9324V27.9C26.1587 26.568 21.0574 31.8503 16.2145 32.8756Z" fill="#E8F8FC"/>
<path d="M5.58984 29.0352V34.8023C8.31394 38.053 12.0477 40.4279 16.308 41.4473C13.6045 37.0088 16.356 32.9268 16.356 32.9268C16.3289 32.905 16.3048 32.8831 16.2796 32.8612C15.744 32.9787 15.2116 33.0457 14.6804 33.0457C10.4327 33.0457 7.10078 30.4578 5.58984 29.0352Z" fill="#ADE9F7"/>
<path d="M16.2181 30.3343C16.2367 30.3516 16.2548 30.369 16.2741 30.3862C16.2741 30.3862 14.7994 31.7441 16.2741 32.9271C16.2741 32.9271 16.2691 32.9345 16.2605 32.9477C21.0897 31.8989 26.1806 26.6547 33.1225 27.9824V25.4394C26.1604 24.1078 21.0599 29.32 16.2181 30.3343Z" fill="#FFC242"/>
<path d="M5.58984 26.082V29.1172C7.10078 30.5399 10.4327 33.1278 14.6804 33.1278C15.2367 33.1278 15.7943 33.0545 16.3555 32.9264C14.8819 31.7436 16.3561 30.386 16.3561 30.386C16.3315 30.364 16.3082 30.3417 16.2845 30.3195C15.7473 30.4362 15.2133 30.5028 14.6804 30.5028C10.4327 30.5028 7.10078 27.5047 5.58984 26.082Z" fill="#FEA53D"/>
<path d="M31.7076 18.9375H15.9093C15.4781 19.4333 14.4151 20.9416 16.0668 22.2562V25.2229C16.0668 25.2229 13.8148 28.1798 16.2738 30.3859C16.2738 30.3859 16.2648 30.3944 16.2501 30.4089C21.0823 29.3783 26.1756 24.1925 33.1222 25.5211V20.352C33.1222 19.5709 32.4888 18.9375 31.7076 18.9375Z" fill="#FEF156"/>
<path d="M7.00447 18.9376C6.22321 18.9376 5.58984 19.5709 5.58984 20.3522V26.164C7.10078 27.5867 10.4327 30.5848 14.6804 30.5848C15.2369 30.5848 15.7945 30.5124 16.3559 30.3858C13.8972 28.1796 16.1491 25.2229 16.1491 25.2229V22.2562C14.4974 20.9416 15.5604 19.4333 15.9917 18.9375H7.00447V18.9376Z" fill="#FFC242"/>
<path d="M26.4985 37.8696C28.2201 37.8696 29.6157 36.474 29.6157 34.7524C29.6157 33.0309 28.2201 31.6353 26.4985 31.6353C24.777 31.6353 23.3813 33.0309 23.3813 34.7524C23.3813 36.474 24.777 37.8696 26.4985 37.8696Z" fill="#02C0FC"/>
<path d="M38.0319 11.2111C39.0557 10.1874 39.0557 8.52766 38.0319 7.50391L34.3247 11.2111C35.3484 12.2349 37.0082 12.2349 38.0319 11.2111Z" fill="#FD77A6"/>
<path d="M12.8864 3.27979C12.8664 3.29849 12.8463 3.31686 12.8269 3.3363C11.8031 4.36005 11.8031 6.01987 12.8269 7.04354C13.8506 8.06729 15.5105 8.06729 16.5341 7.04354C16.5536 7.0241 16.5719 7.004 16.5907 6.98407L12.8864 3.27979Z" fill="#E51E82"/>
<path d="M16.5339 3.33666C15.5101 2.31291 13.8504 2.31291 12.8267 3.33666L16.5339 7.0439C17.5576 6.02023 17.5576 4.36041 16.5339 3.33666Z" fill="#FE3D97"/>
<path d="M12.8864 10.1538C12.8664 10.1725 12.8463 10.1909 12.8269 10.2103C11.8031 11.2341 11.8031 12.8939 12.8269 13.9176C13.8506 14.9413 15.5105 14.9413 16.5341 13.9176C16.5536 13.8981 16.5719 13.878 16.5907 13.8581L12.8864 10.1538Z" fill="#E51E82"/>
<path d="M16.5338 10.2102C15.5101 9.18645 13.8503 9.18645 12.8266 10.2102L16.5338 13.9174C17.5576 12.8937 17.5576 11.2339 16.5338 10.2102ZM15.8379 25.6975H10.0614C9.59709 25.6975 9.21729 25.3176 9.21729 24.8533V22.7463C9.21729 22.282 9.59717 21.9022 10.0614 21.9022H15.8379C16.3022 21.9022 16.682 22.2821 16.682 22.7463V24.8533C16.682 25.3176 16.3022 25.6975 15.8379 25.6975Z" fill="#FE3D97"/>
<path d="M29.8783 36.0934H23.241C22.5034 36.0934 21.8999 35.4899 21.8999 34.7523C21.8999 34.0146 22.5034 33.4111 23.241 33.4111H29.8783C30.616 33.4111 31.2195 34.0146 31.2195 34.7523C31.2195 35.49 30.616 36.0934 29.8783 36.0934Z" fill="#64F9EA"/>
</svg>
