<svg width="18" height="18" viewBox="0 0 18 18" fill="none" xmlns="http://www.w3.org/2000/svg">
<path d="M15.4166 2.58517C14.6613 1.83 13.637 1.40576 12.569 1.40576C11.5009 1.40576 10.4766 1.83 9.72131 2.58517L2.5853 9.72119C1.83005 10.4764 1.40576 11.5008 1.40576 12.5688C1.40576 13.6369 1.83005 14.6613 2.5853 15.4165C3.34054 16.1717 4.36488 16.596 5.43296 16.596C6.50103 16.596 7.52537 16.1717 8.28061 15.4165L15.4166 8.27838C16.1703 7.52272 16.5935 6.49903 16.5935 5.43177C16.5935 4.36452 16.1703 3.34083 15.4166 2.58517ZM7.086 14.2212C6.87231 14.4525 6.61412 14.6382 6.3269 14.7673C6.03968 14.8964 5.72935 14.9661 5.41453 14.9723C5.0997 14.9786 4.78686 14.9211 4.49476 14.8035C4.20267 14.6859 3.93733 14.5105 3.71467 14.2878C3.49201 14.0652 3.31661 13.7998 3.19899 13.5077C3.08137 13.2156 3.02395 12.9028 3.03017 12.588C3.0364 12.2731 3.10614 11.9628 3.23521 11.6756C3.36428 11.3884 3.55003 11.1302 3.78131 10.9165L6.74991 7.94509L10.0546 11.2498L7.086 14.2212ZM14.2227 7.08517L11.2499 10.0545L7.94522 6.74978L10.9173 3.77838C11.3611 3.36834 11.9464 3.14599 12.5505 3.15793C13.1547 3.16987 13.7307 3.41518 14.158 3.84243C14.5852 4.26969 14.8305 4.84574 14.8425 5.44985C14.8544 6.05397 14.6321 6.63926 14.222 7.08306L14.2227 7.08517ZM13.5358 5.30908C13.6144 5.38747 13.6768 5.48061 13.7194 5.58317C13.762 5.68573 13.7839 5.79569 13.7839 5.90674C13.7839 6.01778 13.762 6.12774 13.7194 6.2303C13.6768 6.33286 13.6144 6.426 13.5358 6.50439L11.8483 8.19189C11.7698 8.27038 11.6766 8.33263 11.5741 8.37511C11.4715 8.41759 11.3616 8.43945 11.2506 8.43945C11.1396 8.43945 11.0297 8.41759 10.9272 8.37511C10.8246 8.33263 10.7314 8.27038 10.653 8.19189C10.5745 8.11341 10.5122 8.02023 10.4697 7.91768C10.4273 7.81514 10.4054 7.70523 10.4054 7.59424C10.4054 7.48324 10.4273 7.37333 10.4697 7.27079C10.5122 7.16824 10.5745 7.07506 10.653 6.99658L12.3405 5.30908C12.4188 5.23042 12.512 5.16801 12.6145 5.12542C12.7171 5.08283 12.8271 5.06091 12.9381 5.06091C13.0492 5.06091 13.1591 5.08283 13.2617 5.12542C13.3642 5.16801 13.4574 5.23042 13.5358 5.30908Z" fill="#F29D38"/>
</svg>
