<svg width="42" height="43" viewBox="0 0 42 43" fill="none" xmlns="http://www.w3.org/2000/svg">
<path opacity="0.2" d="M36.75 21.5C36.75 24.6151 35.8263 27.6602 34.0957 30.2502C32.365 32.8403 29.9052 34.859 27.0273 36.0511C24.1493 37.2432 20.9825 37.5551 17.9273 36.9474C14.8721 36.3396 12.0658 34.8396 9.86308 32.6369C7.6604 30.4343 6.16036 27.6279 5.55264 24.5727C4.94492 21.5175 5.25682 18.3507 6.4489 15.4727C7.64098 12.5948 9.6597 10.135 12.2498 8.40435C14.8399 6.67372 17.885 5.75 21 5.75C25.1772 5.75 29.1832 7.40937 32.1369 10.3631C35.0906 13.3168 36.75 17.3228 36.75 21.5Z" fill="#61CA05"/>
<path d="M28.4911 16.6339C28.6131 16.7558 28.7099 16.9006 28.776 17.0599C28.842 17.2192 28.876 17.39 28.876 17.5625C28.876 17.735 28.842 17.9058 28.776 18.0651C28.7099 18.2244 28.6131 18.3692 28.4911 18.4911L19.3036 27.6786C19.1817 27.8006 19.037 27.8974 18.8776 27.9635C18.7183 28.0295 18.5475 28.0635 18.375 28.0635C18.2025 28.0635 18.0317 28.0295 17.8724 27.9635C17.7131 27.8974 17.5683 27.8006 17.4464 27.6786L13.5089 23.7411C13.2626 23.4948 13.1243 23.1608 13.1243 22.8125C13.1243 22.4642 13.2626 22.1302 13.5089 21.8839C13.7552 21.6376 14.0892 21.4993 14.4375 21.4993C14.7858 21.4993 15.1198 21.6376 15.3661 21.8839L18.375 24.8945L26.6339 16.6339C26.7558 16.5119 26.9006 16.4151 27.0599 16.349C27.2192 16.283 27.39 16.249 27.5625 16.249C27.735 16.249 27.9058 16.283 28.0651 16.349C28.2245 16.4151 28.3692 16.5119 28.4911 16.6339ZM38.0625 21.5C38.0625 24.8746 37.0618 28.1735 35.187 30.9794C33.3121 33.7853 30.6473 35.9723 27.5295 37.2637C24.4118 38.5551 20.9811 38.893 17.6713 38.2346C14.3615 37.5763 11.3212 35.9512 8.935 33.565C6.54876 31.1788 4.92372 28.1385 4.26536 24.8287C3.607 21.5189 3.94489 18.0882 5.23631 14.9705C6.52773 11.8527 8.71468 9.1879 11.5206 7.31305C14.3265 5.4382 17.6254 4.4375 21 4.4375C25.5238 4.44228 29.8609 6.24146 33.0597 9.44027C36.2585 12.6391 38.0577 16.9762 38.0625 21.5ZM35.4375 21.5C35.4375 18.6445 34.5908 15.8532 33.0044 13.479C31.4179 11.1047 29.1631 9.25423 26.525 8.16149C23.8869 7.06875 20.984 6.78284 18.1834 7.33991C15.3828 7.89699 12.8103 9.27203 10.7912 11.2911C8.77203 13.3103 7.39699 15.8828 6.83992 18.6834C6.28285 21.484 6.56876 24.3869 7.6615 27.025C8.75424 29.6631 10.6047 31.9179 12.979 33.5043C15.3532 35.0908 18.1445 35.9375 21 35.9375C24.8277 35.9332 28.4974 34.4107 31.2041 31.7041C33.9107 28.9974 35.4332 25.3277 35.4375 21.5Z" fill="#61CA05"/>
</svg>
