<svg width="20" height="20" viewBox="0 0 20 20" fill="none" xmlns="http://www.w3.org/2000/svg">
<path d="M10 0.25C8.07164 0.25 6.18657 0.821828 4.58319 1.89317C2.97982 2.96451 1.73013 4.48726 0.992179 6.26884C0.254225 8.05042 0.061142 10.0108 0.437348 11.9021C0.813554 13.7934 1.74215 15.5307 3.10571 16.8943C4.46928 18.2579 6.20656 19.1865 8.09787 19.5627C9.98919 19.9389 11.9496 19.7458 13.7312 19.0078C15.5127 18.2699 17.0355 17.0202 18.1068 15.4168C19.1782 13.8134 19.75 11.9284 19.75 10C19.7473 7.41498 18.7192 4.93661 16.8913 3.10872C15.0634 1.28084 12.585 0.25273 10 0.25ZM10 18.25C8.36831 18.25 6.77326 17.7661 5.41655 16.8596C4.05984 15.9531 3.00242 14.6646 2.378 13.1571C1.75358 11.6496 1.5902 9.99085 1.90853 8.3905C2.22685 6.79016 3.01259 5.32015 4.16637 4.16637C5.32016 3.01259 6.79017 2.22685 8.39051 1.90852C9.99085 1.59019 11.6497 1.75357 13.1571 2.37799C14.6646 3.00242 15.9531 4.05984 16.8596 5.41655C17.7661 6.77325 18.25 8.3683 18.25 10C18.2475 12.1873 17.3775 14.2843 15.8309 15.8309C14.2843 17.3775 12.1873 18.2475 10 18.25ZM16 10C16 11.1867 15.6481 12.3467 14.9888 13.3334C14.3295 14.3201 13.3925 15.0892 12.2961 15.5433C11.1997 15.9974 9.99335 16.1162 8.82946 15.8847C7.66558 15.6532 6.59648 15.0818 5.75736 14.2426C4.91825 13.4035 4.3468 12.3344 4.11529 11.1705C3.88378 10.0067 4.0026 8.80026 4.45673 7.7039C4.91085 6.60754 5.67989 5.67047 6.66658 5.01118C7.65328 4.35189 8.81332 4 10 4C11.5908 4.00174 13.1159 4.63444 14.2407 5.75928C15.3656 6.88412 15.9983 8.40923 16 10Z" fill="#F29D38"/>
</svg>
