<svg width="24" height="24" viewBox="0 0 24 24" fill="none" xmlns="http://www.w3.org/2000/svg">
<path d="M20.25 5.625H16.875V4.875C16.875 4.17881 16.5984 3.51113 16.1062 3.01884C15.6139 2.52656 14.9462 2.25 14.25 2.25H9.75C9.05381 2.25 8.38613 2.52656 7.89384 3.01884C7.40156 3.51113 7.125 4.17881 7.125 4.875V5.625H3.75C3.25272 5.625 2.77581 5.82254 2.42417 6.17417C2.07254 6.52581 1.875 7.00272 1.875 7.5V19.5C1.875 19.9973 2.07254 20.4742 2.42417 20.8258C2.77581 21.1775 3.25272 21.375 3.75 21.375H20.25C20.7473 21.375 21.2242 21.1775 21.5758 20.8258C21.9275 20.4742 22.125 19.9973 22.125 19.5V7.5C22.125 7.00272 21.9275 6.52581 21.5758 6.17417C21.2242 5.82254 20.7473 5.625 20.25 5.625ZM9.375 4.875C9.375 4.77554 9.41451 4.68016 9.48483 4.60984C9.55516 4.53951 9.65054 4.5 9.75 4.5H14.25C14.3495 4.5 14.4448 4.53951 14.5152 4.60984C14.5855 4.68016 14.625 4.77554 14.625 4.875V5.625H9.375V4.875ZM19.875 19.125H4.125V7.875H19.875V19.125ZM15.375 13.5C15.375 13.7984 15.2565 14.0845 15.0455 14.2955C14.8345 14.5065 14.5484 14.625 14.25 14.625H13.125V15.75C13.125 16.0484 13.0065 16.3345 12.7955 16.5455C12.5845 16.7565 12.2984 16.875 12 16.875C11.7016 16.875 11.4155 16.7565 11.2045 16.5455C10.9935 16.3345 10.875 16.0484 10.875 15.75V14.625H9.75C9.45163 14.625 9.16548 14.5065 8.9545 14.2955C8.74353 14.0845 8.625 13.7984 8.625 13.5C8.625 13.2016 8.74353 12.9155 8.9545 12.7045C9.16548 12.4935 9.45163 12.375 9.75 12.375H10.875V11.25C10.875 10.9516 10.9935 10.6655 11.2045 10.4545C11.4155 10.2435 11.7016 10.125 12 10.125C12.2984 10.125 12.5845 10.2435 12.7955 10.4545C13.0065 10.6655 13.125 10.9516 13.125 11.25V12.375H14.25C14.5484 12.375 14.8345 12.4935 15.0455 12.7045C15.2565 12.9155 15.375 13.2016 15.375 13.5Z" fill="#818181"/>
</svg>
