<svg width="20" height="20" viewBox="0 0 20 20" fill="none" xmlns="http://www.w3.org/2000/svg">
<path d="M17.9805 5.51109L14.4891 2.02047C14.1961 1.72754 13.7987 1.56299 13.3844 1.56299C12.9701 1.56299 12.5727 1.72754 12.2797 2.02047L2.64532 11.6541C2.49973 11.7988 2.3843 11.9709 2.30571 12.1605C2.22713 12.3502 2.18695 12.5535 2.18751 12.7587V16.2502C2.18751 16.6646 2.35213 17.062 2.64515 17.355C2.93818 17.648 3.33561 17.8127 3.75001 17.8127H7.24141C7.44668 17.8133 7.65003 17.7731 7.83966 17.6945C8.02929 17.6159 8.20143 17.5005 8.3461 17.3548L14.5539 11.1478L14.8789 12.233L12.15 14.9619C11.9739 15.138 11.8749 15.3769 11.8749 15.6259C11.8749 15.875 11.9739 16.1139 12.15 16.29C12.3261 16.4661 12.565 16.5651 12.8141 16.5651C13.0631 16.5651 13.302 16.4661 13.4781 16.29L16.6031 13.165C16.7228 13.0452 16.8078 12.8952 16.8491 12.7309C16.8903 12.5667 16.8863 12.3943 16.8375 12.2322L16.0609 9.6439L17.982 7.72281C18.1273 7.57758 18.2426 7.40512 18.3211 7.21531C18.3997 7.0255 18.4401 6.82206 18.4399 6.61663C18.4398 6.4112 18.3991 6.20781 18.3203 6.01811C18.2414 5.82841 18.126 5.65612 17.9805 5.51109ZM5.07813 11.8752L10.625 6.32828L13.6719 9.37515L8.12501 14.922L5.07813 11.8752ZM4.06251 13.5158L6.48438 15.9377H4.06251V13.5158ZM15 8.04703L11.9531 5.00015L13.3859 3.56734L16.4328 6.61422L15 8.04703Z" fill="#00B2CB"/>
</svg>
