<svg width="24" height="24" viewBox="0 0 24 24" fill="none" xmlns="http://www.w3.org/2000/svg">
<path d="M14.2498 8.625C14.9173 8.625 15.5698 8.42706 16.1248 8.05621C16.6798 7.68536 17.1124 7.15826 17.3679 6.54156C17.6233 5.92486 17.6901 5.24626 17.5599 4.59157C17.4297 3.93689 17.1083 3.33552 16.6363 2.86352C16.1643 2.39151 15.5629 2.07008 14.9082 1.93985C14.2535 1.80963 13.5749 1.87646 12.9582 2.13191C12.3415 2.38735 11.8144 2.81994 11.4436 3.37495C11.0727 3.92997 10.8748 4.58249 10.8748 5.25C10.8748 6.14511 11.2303 7.00355 11.8633 7.63649C12.4962 8.26942 13.3547 8.625 14.2498 8.625ZM14.2498 4.125C14.4723 4.125 14.6898 4.19098 14.8748 4.3146C15.0598 4.43821 15.204 4.61392 15.2891 4.81948C15.3743 5.02505 15.3966 5.25125 15.3532 5.46948C15.3097 5.68771 15.2026 5.88816 15.0453 6.0455C14.8879 6.20283 14.6875 6.30998 14.4692 6.35338C14.251 6.39679 14.0248 6.37451 13.8192 6.28937C13.6137 6.20422 13.438 6.06002 13.3144 5.87502C13.1907 5.69001 13.1248 5.47251 13.1248 5.25C13.1248 4.95163 13.2433 4.66548 13.4543 4.45451C13.6653 4.24353 13.9514 4.125 14.2498 4.125ZM21.3748 12.8813C21.3748 13.0967 21.313 13.3076 21.1966 13.4889C21.0803 13.6702 20.9144 13.8143 20.7185 13.9041C20.0719 14.1329 19.3916 14.2527 18.7057 14.2584C17.3932 14.2584 15.4948 13.9003 13.1023 12.4772C12.8251 13.1539 12.5034 13.8116 12.1395 14.4459C14.3548 15.2653 17.6248 17.2313 17.6248 21.75C17.6248 22.0484 17.5062 22.3345 17.2953 22.5455C17.0843 22.7565 16.7981 22.875 16.4998 22.875C16.2014 22.875 15.9153 22.7565 15.7043 22.5455C15.4933 22.3345 15.3748 22.0484 15.3748 21.75C15.3748 19.9978 14.7232 18.6506 13.3816 17.6306C12.5229 16.9744 11.5488 16.5994 10.8101 16.38C10.7341 16.4738 10.6563 16.5675 10.5757 16.6566C8.7007 18.8006 6.37383 19.9153 3.80227 19.9153C3.497 19.9153 3.19193 19.9 2.8882 19.8694C2.74038 19.8557 2.59671 19.8129 2.46549 19.7435C2.33428 19.6741 2.2181 19.5793 2.12366 19.4648C2.02922 19.3502 1.95839 19.2181 1.91525 19.0761C1.87211 18.934 1.85751 18.7848 1.87229 18.6371C1.88708 18.4894 1.93095 18.3461 2.00139 18.2154C2.07183 18.0847 2.16744 17.9692 2.2827 17.8757C2.39797 17.7821 2.53062 17.7123 2.67299 17.6702C2.81537 17.6282 2.96466 17.6147 3.11227 17.6306C8.01539 18.12 10.376 13.3256 11.1551 11.2791C7.94977 9.60563 5.97539 11.1356 5.95383 11.1563C5.72014 11.3318 5.4273 11.4095 5.13731 11.3729C4.84732 11.3364 4.58296 11.1883 4.40019 10.9603C4.21742 10.7322 4.1306 10.4419 4.15811 10.1509C4.18562 9.85991 4.3253 9.59105 4.54758 9.40125C4.69477 9.28125 8.24977 6.51 13.3826 9.99563C17.4232 12.7434 19.767 11.8631 19.8045 11.8481C19.9755 11.7744 20.1621 11.7443 20.3476 11.7605C20.5331 11.7767 20.7117 11.8387 20.8673 11.9409C21.023 12.0431 21.1508 12.1824 21.2394 12.3462C21.3279 12.5099 21.3745 12.6932 21.3748 12.8794V12.8813Z" fill="#818181"/>
</svg>
