<svg width="33" height="32" viewBox="0 0 33 32" fill="none" xmlns="http://www.w3.org/2000/svg">
<path d="M27.8026 4.94987C26.5541 3.70139 24.8607 3 23.0951 3C21.3294 3 19.6361 3.70139 18.3876 4.94987L5.70009 17.6361C4.4777 18.89 3.79853 20.5749 3.80971 22.326C3.82089 24.0771 4.52152 25.7532 5.75982 26.9914C6.99812 28.2295 8.67437 28.9299 10.4254 28.9409C12.1765 28.9518 13.8614 28.2724 15.1151 27.0499L27.8038 14.3636C29.0502 13.1142 29.7501 11.4213 29.7499 9.65649C29.7496 7.89165 29.0493 6.19899 27.8026 4.94987ZM13.7013 25.6361C12.8279 26.5097 11.6433 27.0005 10.408 27.0006C9.17275 27.0007 7.98802 26.5101 7.11446 25.6367C6.2409 24.7634 5.75008 23.5787 5.74996 22.3434C5.74984 21.1082 6.24045 19.9234 7.11384 19.0499L12.7501 13.4136L19.3376 19.9999L13.7013 25.6361ZM26.3888 12.9499L20.7501 18.5861L14.1651 11.9999L19.8026 6.36362C20.6794 5.50703 21.8586 5.03065 23.0844 5.03781C24.3102 5.04497 25.4838 5.5351 26.3506 6.40188C27.2174 7.26867 27.7075 8.44222 27.7146 9.66802C27.7218 10.8938 27.2454 12.073 26.3888 12.9499ZM24.4601 10.2924C24.5531 10.3852 24.6268 10.4955 24.6771 10.6169C24.7275 10.7383 24.7534 10.8685 24.7534 10.9999C24.7534 11.1313 24.7275 11.2614 24.6771 11.3828C24.6268 11.5042 24.5531 11.6145 24.4601 11.7074L21.4601 14.7074C21.3672 14.8002 21.2569 14.8738 21.1355 14.924C21.0142 14.9742 20.8841 15 20.7528 15C20.6214 14.9999 20.4914 14.974 20.3701 14.9237C20.2488 14.8734 20.1385 14.7997 20.0457 14.7067C19.9529 14.6138 19.8793 14.5036 19.8291 14.3822C19.7788 14.2608 19.753 14.1308 19.7531 13.9994C19.7532 13.8681 19.7791 13.7381 19.8294 13.6167C19.8797 13.4954 19.9534 13.3852 20.0463 13.2924L23.0463 10.2924C23.2339 10.105 23.4881 9.99971 23.7532 9.99971C24.0183 9.99971 24.2726 10.105 24.4601 10.2924Z" fill="#818181"/>
</svg>
