<svg width="24" height="16" viewBox="0 0 24 16" fill="none" xmlns="http://www.w3.org/2000/svg">
<path d="M10.9921 10.8048C11.9973 10.1356 12.7605 9.16073 13.1687 8.02426C13.577 6.8878 13.6087 5.65012 13.2591 4.49425C12.9095 3.33838 12.1973 2.32569 11.2276 1.60593C10.258 0.886171 9.0825 0.497559 7.87492 0.497559C6.66735 0.497559 5.49184 0.886171 4.52221 1.60593C3.55258 2.32569 2.84032 3.33838 2.49076 4.49425C2.1412 5.65012 2.17288 6.8878 2.58114 8.02426C2.9894 9.16073 3.75255 10.1356 4.75774 10.8048C2.93945 11.475 1.38659 12.7151 0.330862 14.3402C0.275377 14.4226 0.236837 14.5153 0.217482 14.6128C0.198127 14.7103 0.198344 14.8106 0.218119 14.908C0.237895 15.0055 0.276835 15.098 0.332676 15.1802C0.388516 15.2624 0.460144 15.3327 0.543396 15.387C0.626647 15.4413 0.719861 15.4785 0.81762 15.4965C0.915378 15.5144 1.01573 15.5128 1.11285 15.4916C1.20996 15.4705 1.3019 15.4302 1.38332 15.3732C1.46473 15.3162 1.53401 15.2435 1.58711 15.1595C2.2681 14.1121 3.19995 13.2515 4.29802 12.6556C5.3961 12.0598 6.62562 11.7477 7.87492 11.7477C9.12423 11.7477 10.3538 12.0598 11.4518 12.6556C12.5499 13.2515 13.4817 14.1121 14.1627 15.1595C14.2727 15.323 14.4427 15.4367 14.6358 15.4759C14.8289 15.5151 15.0297 15.4767 15.1947 15.369C15.3598 15.2614 15.4758 15.0931 15.5178 14.9006C15.5598 14.708 15.5243 14.5067 15.419 14.3402C14.3633 12.7151 12.8104 11.475 10.9921 10.8048ZM3.74992 6.12484C3.74992 5.30899 3.99185 4.51147 4.44511 3.83311C4.89837 3.15476 5.54261 2.62605 6.29636 2.31384C7.0501 2.00163 7.8795 1.91994 8.67967 2.0791C9.47984 2.23827 10.2148 2.63113 10.7917 3.20803C11.3686 3.78492 11.7615 4.51992 11.9207 5.32009C12.0798 6.12027 11.9981 6.94967 11.6859 7.70341C11.3737 8.45716 10.845 9.10139 10.1667 9.55465C9.4883 10.0079 8.69077 10.2498 7.87492 10.2498C6.78129 10.2486 5.7328 9.81361 4.95948 9.04029C4.18616 8.26697 3.75117 7.21848 3.74992 6.12484ZM23.4506 15.378C23.284 15.4866 23.081 15.5246 22.8864 15.4837C22.6918 15.4427 22.5214 15.3261 22.4127 15.1595C21.7326 14.1115 20.8008 13.2505 19.7025 12.6549C18.6042 12.0593 17.3743 11.7482 16.1249 11.7498C15.926 11.7498 15.7352 11.6708 15.5946 11.5302C15.4539 11.3895 15.3749 11.1988 15.3749 10.9998C15.3749 10.8009 15.4539 10.6102 15.5946 10.4695C15.7352 10.3289 15.926 10.2498 16.1249 10.2498C16.7324 10.2493 17.3322 10.1145 17.8816 9.85526C18.431 9.59599 18.9163 9.21858 19.3029 8.75C19.6895 8.28143 19.9678 7.73325 20.118 7.14463C20.2682 6.55602 20.2865 5.9415 20.1716 5.34498C20.0568 4.74846 19.8116 4.18468 19.4536 3.6939C19.0956 3.20312 18.6337 2.79747 18.1007 2.50593C17.5678 2.2144 16.977 2.04416 16.3707 2.0074C15.7643 1.97064 15.1573 2.06826 14.5931 2.29328C14.501 2.33305 14.402 2.35398 14.3018 2.35482C14.2016 2.35567 14.1022 2.33642 14.0095 2.29821C13.9169 2.26 13.8328 2.2036 13.7623 2.13236C13.6918 2.06111 13.6363 1.97645 13.5991 1.88339C13.5619 1.79033 13.5437 1.69076 13.5456 1.59055C13.5475 1.49034 13.5695 1.39152 13.6102 1.29995C13.651 1.20838 13.7097 1.1259 13.7828 1.0574C13.856 0.988888 13.9421 0.93574 14.0362 0.901091C15.3275 0.386076 16.7639 0.367543 18.0681 0.849066C19.3723 1.33059 20.452 2.27805 21.0989 3.50867C21.7458 4.73929 21.914 6.16587 21.5711 7.5132C21.2283 8.86053 20.3986 10.0332 19.2421 10.8048C21.0604 11.475 22.6133 12.7151 23.669 14.3402C23.7776 14.5068 23.8156 14.7097 23.7747 14.9043C23.7337 15.0989 23.6171 15.2693 23.4506 15.378Z" fill="#818181"/>
</svg>
