<svg width="11" height="16" viewBox="0 0 11 16" fill="none" xmlns="http://www.w3.org/2000/svg">
<path d="M9.28906 12.2188L10.6616 10.847C10.8201 10.6885 10.9091 10.4735 10.9091 10.2493C10.9091 10.0251 10.8201 9.81015 10.6616 9.65165C10.5031 9.49314 10.2881 9.40409 10.0639 9.40409C9.83974 9.40409 9.62476 9.49314 9.46625 9.65165L8.09375 11.0234L5.76852 8.70313C6.6882 8.45052 7.48493 7.8727 8.01073 7.07698C8.53652 6.28127 8.75563 5.32176 8.62736 4.37668C8.49909 3.4316 8.03215 2.56521 7.31328 1.93843C6.59442 1.31165 5.67249 0.967088 4.71875 0.968756H1.0625C0.838724 0.968756 0.624112 1.05765 0.465879 1.21588C0.307645 1.37412 0.21875 1.58873 0.21875 1.81251V12.5C0.21875 12.7238 0.307645 12.9384 0.465879 13.0966C0.624112 13.2549 0.838724 13.3438 1.0625 13.3438C1.28628 13.3438 1.50089 13.2549 1.65912 13.0966C1.81736 12.9384 1.90625 12.7238 1.90625 12.5V8.84376H3.52344L6.89844 12.2188L5.52594 13.5906C5.44745 13.669 5.38519 13.7622 5.34272 13.8648C5.30024 13.9673 5.27838 14.0772 5.27838 14.1882C5.27838 14.2992 5.30024 14.4091 5.34272 14.5117C5.38519 14.6142 5.44745 14.7074 5.52594 14.7859C5.68445 14.9444 5.89943 15.0334 6.12359 15.0334C6.23459 15.0334 6.3445 15.0116 6.44704 14.9691C6.54959 14.9266 6.64276 14.8644 6.72125 14.7859L8.09375 13.4141L9.46555 14.7866C9.62405 14.9451 9.83904 15.0341 10.0632 15.0341C10.2874 15.0341 10.5024 14.9451 10.6609 14.7866C10.8194 14.6281 10.9084 14.4131 10.9084 14.1889C10.9084 13.9647 10.8194 13.7498 10.6609 13.5913L9.28906 12.2188ZM1.90625 2.65626H4.71875C5.31549 2.65626 5.88778 2.89331 6.30974 3.31527C6.7317 3.73722 6.96875 4.30952 6.96875 4.90626C6.96875 5.50299 6.7317 6.07529 6.30974 6.49725C5.88778 6.9192 5.31549 7.15626 4.71875 7.15626H1.90625V2.65626Z" fill="#F29D38"/>
</svg>
