<svg width="33" height="32" viewBox="0 0 33 32" fill="none" xmlns="http://www.w3.org/2000/svg">
<path d="M28.7212 18.7613C28.7526 18.8889 28.7585 19.0213 28.7387 19.1512C28.7189 19.281 28.6736 19.4057 28.6056 19.5181C28.5376 19.6304 28.4481 19.7283 28.3422 19.8061C28.2364 19.8838 28.1163 19.94 27.9887 19.9713L24.9087 20.7213L25.7162 23.7351C25.7502 23.862 25.7589 23.9943 25.7418 24.1246C25.7246 24.2548 25.682 24.3804 25.6163 24.4942C25.5506 24.6079 25.4631 24.7076 25.3588 24.7876C25.2546 24.8675 25.1356 24.9261 25.0087 24.9601C24.9245 24.9843 24.8376 24.9978 24.75 25.0001C24.53 24.9999 24.3162 24.9271 24.1417 24.7931C23.9673 24.6591 23.8419 24.4713 23.785 24.2588L22.82 20.6588L17.75 17.7326V23.5863L20.4575 26.2926C20.5504 26.3855 20.6241 26.4958 20.6743 26.6172C20.7246 26.7386 20.7505 26.8687 20.7505 27.0001C20.7505 27.1315 20.7246 27.2616 20.6743 27.383C20.6241 27.5044 20.5504 27.6147 20.4575 27.7076C20.3645 27.8005 20.2542 27.8742 20.1328 27.9245C20.0115 27.9747 19.8813 28.0006 19.75 28.0006C19.6186 28.0006 19.4884 27.9747 19.3671 27.9245C19.2457 27.8742 19.1354 27.8005 19.0425 27.7076L16.75 25.4138L14.4575 27.7076C14.3645 27.8005 14.2542 27.8742 14.1328 27.9245C14.0115 27.9747 13.8813 28.0006 13.75 28.0006C13.6186 28.0006 13.4884 27.9747 13.3671 27.9245C13.2457 27.8742 13.1354 27.8005 13.0425 27.7076C12.9495 27.6147 12.8758 27.5044 12.8256 27.383C12.7753 27.2616 12.7494 27.1315 12.7494 27.0001C12.7494 26.8687 12.7753 26.7386 12.8256 26.6172C12.8758 26.4958 12.9495 26.3855 13.0425 26.2926L15.75 23.5863V17.7326L10.6812 20.6588L9.7162 24.2588C9.65923 24.4715 9.53364 24.6595 9.35893 24.7935C9.18422 24.9275 8.97015 25.0001 8.74995 25.0001C8.6622 24.9999 8.57483 24.9886 8.48995 24.9663C8.36304 24.9324 8.24406 24.8738 8.13982 24.7938C8.03557 24.7139 7.94809 24.6142 7.88239 24.5004C7.81669 24.3866 7.77404 24.2611 7.7569 24.1308C7.73975 24.0006 7.74843 23.8682 7.78245 23.7413L8.58995 20.7276L5.50995 19.9776C5.25236 19.9142 5.03047 19.7512 4.8931 19.5243C4.75573 19.2974 4.71413 19.0252 4.77745 18.7676C4.84077 18.51 5.00383 18.2881 5.23075 18.1507C5.45767 18.0133 5.72986 17.9717 5.98745 18.0351L9.6687 18.9388L14.75 16.0001L9.66995 13.0676L5.9887 13.9713C5.9106 13.9907 5.83041 14.0003 5.74995 14.0001C5.50544 14.0002 5.26934 13.9108 5.08629 13.7487C4.90323 13.5866 4.78592 13.363 4.75652 13.1203C4.72712 12.8776 4.78767 12.6325 4.92673 12.4313C5.06579 12.2302 5.27372 12.087 5.5112 12.0288L8.5912 11.2788L7.7837 8.25882C7.71508 8.00255 7.75106 7.72952 7.88375 7.49979C8.01643 7.27006 8.23494 7.10244 8.4912 7.03382C8.74747 6.96519 9.0205 7.00118 9.25023 7.13386C9.47996 7.26654 9.64758 7.48505 9.7162 7.74132L10.6812 11.3413L15.75 14.2676V8.41382L13.0425 5.70757C12.8548 5.51993 12.7494 5.26543 12.7494 5.00007C12.7494 4.86867 12.7753 4.73856 12.8256 4.61717C12.8758 4.49578 12.9495 4.38548 13.0425 4.29257C13.1354 4.19966 13.2457 4.12596 13.3671 4.07567C13.4884 4.02539 13.6186 3.99951 13.75 3.99951C14.0153 3.99951 14.2698 4.10493 14.4575 4.29257L16.75 6.58632L19.0425 4.29257C19.2301 4.10493 19.4846 3.99951 19.75 3.99951C20.0153 3.99951 20.2698 4.10493 20.4575 4.29257C20.6451 4.48021 20.7505 4.7347 20.7505 5.00007C20.7505 5.26543 20.6451 5.51993 20.4575 5.70757L17.75 8.41382V14.2676L22.8187 11.3413L23.7837 7.74132C23.8523 7.48505 24.0199 7.26654 24.2497 7.13386C24.4794 7.00118 24.7524 6.96519 25.0087 7.03382C25.265 7.10244 25.4835 7.27006 25.6162 7.49979C25.7488 7.72952 25.7848 8.00255 25.7162 8.25882L24.9087 11.2726L27.9887 12.0226C28.2328 12.0747 28.4486 12.2162 28.5937 12.4194C28.7387 12.6225 28.8026 12.8726 28.7726 13.1204C28.7427 13.3682 28.6212 13.5959 28.432 13.7586C28.2427 13.9214 27.9995 14.0075 27.75 14.0001C27.6695 14.0003 27.5893 13.9907 27.5112 13.9713L23.83 13.0676L18.75 16.0001L23.83 18.9326L27.5112 18.0288C27.6387 17.9974 27.7712 17.9915 27.9011 18.0113C28.0309 18.0312 28.1556 18.0764 28.2679 18.1444C28.3803 18.2124 28.4782 18.3019 28.5559 18.4078C28.6337 18.5136 28.6899 18.6338 28.7212 18.7613Z" fill="#818181"/>
</svg>
