<svg width="32" height="33" viewBox="0 0 32 33" fill="none" xmlns="http://www.w3.org/2000/svg">
<path d="M28.5 19.5002V26.5002C28.5 27.1632 28.2366 27.7991 27.7678 28.268C27.2989 28.7368 26.663 29.0002 26 29.0002H6C5.33696 29.0002 4.70107 28.7368 4.23223 28.268C3.76339 27.7991 3.5 27.1632 3.5 26.5002V19.5002C3.5 19.1024 3.65804 18.7209 3.93934 18.4395C4.22064 18.1582 4.60218 18.0002 5 18.0002C5.39782 18.0002 5.77936 18.1582 6.06066 18.4395C6.34196 18.7209 6.5 19.1024 6.5 19.5002V26.0002H25.5V19.5002C25.5 19.1024 25.658 18.7209 25.9393 18.4395C26.2206 18.1582 26.6022 18.0002 27 18.0002C27.3978 18.0002 27.7794 18.1582 28.0607 18.4395C28.342 18.7209 28.5 19.1024 28.5 19.5002ZM12.0612 11.5615L14.5 9.12521V19.5002C14.5 19.898 14.658 20.2796 14.9393 20.5609C15.2206 20.8422 15.6022 21.0002 16 21.0002C16.3978 21.0002 16.7794 20.8422 17.0607 20.5609C17.342 20.2796 17.5 19.898 17.5 19.5002V9.12521L19.9387 11.5652C20.2205 11.847 20.6027 12.0053 21.0012 12.0053C21.3998 12.0053 21.782 11.847 22.0637 11.5652C22.3455 11.2834 22.5039 10.9012 22.5039 10.5027C22.5039 10.1042 22.3455 9.722 22.0637 9.44021L17.0637 4.44021C16.9244 4.30037 16.7588 4.18941 16.5765 4.1137C16.3941 4.03799 16.1987 3.99902 16.0012 3.99902C15.8038 3.99902 15.6083 4.03799 15.426 4.1137C15.2437 4.18941 15.0781 4.30037 14.9388 4.44021L9.93875 9.44021C9.79922 9.57974 9.68854 9.74538 9.61303 9.92768C9.53751 10.11 9.49865 10.3054 9.49865 10.5027C9.49865 10.9012 9.65696 11.2834 9.93875 11.5652C10.2205 11.847 10.6027 12.0053 11.0013 12.0053C11.3998 12.0053 11.782 11.847 12.0638 11.5652L12.0612 11.5615Z" fill="#F29D38"/>
</svg>
