<svg width="33" height="32" viewBox="0 0 33 32" fill="none" xmlns="http://www.w3.org/2000/svg">
<path d="M31.4577 5.29257L27.4577 1.29257C27.2701 1.10493 27.0156 0.999512 26.7502 0.999512C26.4848 0.999512 26.2303 1.10493 26.0427 1.29257C25.855 1.48021 25.7496 1.7347 25.7496 2.00007C25.7496 2.26543 25.855 2.51993 26.0427 2.70757L26.2277 2.89132L19.3314 8.06382L14.5539 9.02007C14.3605 9.05882 14.1827 9.15358 14.0427 9.29257L3.62519 19.7076C3.06263 20.2702 2.74658 21.0332 2.74658 21.8288C2.74658 22.6244 3.06263 23.3875 3.62519 23.9501L8.80019 29.1251C9.36279 29.6876 10.1258 30.0037 10.9214 30.0037C11.7171 30.0037 12.4801 29.6876 13.0427 29.1251L23.4577 18.7113C23.597 18.5715 23.6918 18.3936 23.7302 18.2001L24.6864 13.4226L29.8589 6.52632L30.0427 6.71132C30.1356 6.80423 30.2459 6.87793 30.3673 6.92821C30.4887 6.97849 30.6188 7.00437 30.7502 7.00437C30.8816 7.00437 31.0117 6.97849 31.1331 6.92821C31.2545 6.87793 31.3648 6.80423 31.4577 6.71132C31.5506 6.61841 31.6243 6.50811 31.6746 6.38671C31.7249 6.26532 31.7507 6.13521 31.7507 6.00382C31.7507 5.87242 31.7249 5.74231 31.6746 5.62092C31.6243 5.49953 31.5506 5.38923 31.4577 5.29632V5.29257ZM12.7502 13.4138L19.3364 20.0001L13.7502 25.5863L7.16394 19.0001L12.7502 13.4138ZM10.9214 28.0001C10.7902 28.0004 10.6603 27.9747 10.539 27.9245C10.4178 27.8743 10.3077 27.8006 10.2152 27.7076L5.04269 22.5351C4.8553 22.3476 4.75003 22.0933 4.75003 21.8282C4.75003 21.5631 4.8553 21.3088 5.04269 21.1213L5.75019 20.4138L12.3364 27.0001L11.6252 27.7076C11.4384 27.8941 11.1854 27.9993 10.9214 28.0001ZM22.9502 12.4001C22.8605 12.5194 22.799 12.6574 22.7702 12.8038L21.8289 17.5076L20.7502 18.5863L14.1639 12.0001L15.2427 10.9213L19.9464 9.98007C20.0929 9.95127 20.2309 9.88973 20.3502 9.80007L27.6564 4.32007L28.4302 5.09382L22.9502 12.4001Z" fill="#818181"/>
</svg>
