<svg width="20" height="20" viewBox="0 0 20 20" fill="none" xmlns="http://www.w3.org/2000/svg">
<path d="M16.9132 8.16305L10.6632 14.4131C10.5762 14.5005 10.4727 14.5698 10.3587 14.6171C10.2447 14.6644 10.1226 14.6888 9.99918 14.6888C9.8758 14.6888 9.75362 14.6644 9.63967 14.6171C9.52571 14.5698 9.42222 14.5005 9.33512 14.4131L3.08512 8.16305C2.909 7.98693 2.81006 7.74806 2.81006 7.49899C2.81006 7.24992 2.909 7.01105 3.08512 6.83493C3.26124 6.65881 3.50011 6.55986 3.74918 6.55986C3.99826 6.55986 4.23713 6.65881 4.41325 6.83493L9.99997 12.4216L15.5867 6.83415C15.7628 6.65803 16.0017 6.55908 16.2507 6.55908C16.4998 6.55908 16.7387 6.65803 16.9148 6.83415C17.0909 7.01027 17.1899 7.24914 17.1899 7.49821C17.1899 7.74728 17.0909 7.98615 16.9148 8.16227L16.9132 8.16305Z" fill="#818181"/>
</svg>
