<svg width="33" height="32" viewBox="0 0 33 32" fill="none" xmlns="http://www.w3.org/2000/svg">
<path d="M11.75 17.5C11.4533 17.5 11.1633 17.412 10.9167 17.2472C10.67 17.0824 10.4777 16.8481 10.3642 16.574C10.2507 16.2999 10.2209 15.9983 10.2788 15.7074C10.3367 15.4164 10.4796 15.1491 10.6893 14.9393C10.8991 14.7296 11.1664 14.5867 11.4574 14.5288C11.7483 14.4709 12.0499 14.5006 12.324 14.6142C12.5981 14.7277 12.8324 14.92 12.9972 15.1666C13.162 15.4133 13.25 15.7033 13.25 16C13.25 16.3978 13.092 16.7794 12.8107 17.0607C12.5294 17.342 12.1478 17.5 11.75 17.5ZM20.75 14.5C20.4533 14.5 20.1633 14.588 19.9167 14.7528C19.67 14.9176 19.4777 15.1519 19.3642 15.426C19.2507 15.7001 19.221 16.0017 19.2788 16.2926C19.3367 16.5836 19.4796 16.8509 19.6893 17.0607C19.8991 17.2704 20.1664 17.4133 20.4574 17.4712C20.7483 17.5291 21.0499 17.4993 21.324 17.3858C21.5981 17.2723 21.8324 17.08 21.9972 16.8334C22.162 16.5867 22.25 16.2967 22.25 16C22.25 15.6022 22.092 15.2206 21.8107 14.9393C21.5294 14.658 21.1478 14.5 20.75 14.5ZM19.2163 20.1537C18.3256 20.7065 17.2982 20.9994 16.25 20.9994C15.2018 20.9994 14.1744 20.7065 13.2838 20.1537C13.0593 20.0122 12.7878 19.9656 12.529 20.0242C12.2702 20.0828 12.0453 20.2418 11.9038 20.4662C11.7622 20.6907 11.7156 20.9622 11.7742 21.221C11.8328 21.4798 11.9918 21.7047 12.2163 21.8463C13.4264 22.6007 14.8239 23.0006 16.25 23.0006C17.6761 23.0006 19.0736 22.6007 20.2838 21.8463C20.5082 21.7047 20.6672 21.4798 20.7258 21.221C20.7844 20.9622 20.7378 20.6907 20.5963 20.4662C20.4547 20.2418 20.2298 20.0828 19.971 20.0242C19.7122 19.9656 19.4407 20.0122 19.2163 20.1537ZM29.25 16C29.25 18.5712 28.4876 21.0846 27.0591 23.2224C25.6307 25.3603 23.6003 27.0265 21.2249 28.0104C18.8495 28.9944 16.2356 29.2518 13.7138 28.7502C11.1921 28.2486 8.8757 27.0105 7.05762 25.1924C5.23953 23.3743 4.00141 21.0579 3.4998 18.5362C2.99819 16.0144 3.25563 13.4006 4.23957 11.0251C5.22351 8.64968 6.88975 6.61935 9.02759 5.1909C11.1654 3.76244 13.6788 3 16.25 3C19.6967 3.00364 23.0012 4.37445 25.4384 6.81163C27.8756 9.24882 29.2464 12.5533 29.25 16ZM27.25 16C27.2465 13.1683 26.1525 10.4468 24.1952 8.40047C22.2378 6.3542 19.5675 5.14044 16.7388 5.01125C15.29 7.0475 15.25 8.985 15.25 9C15.25 9.26522 15.3554 9.51957 15.5429 9.70711C15.7304 9.89464 15.9848 10 16.25 10C16.5152 10 16.7696 9.89464 16.9571 9.70711C17.1446 9.51957 17.25 9.26522 17.25 9C17.25 8.73478 17.3554 8.48043 17.5429 8.29289C17.7304 8.10536 17.9848 8 18.25 8C18.5152 8 18.7696 8.10536 18.9571 8.29289C19.1446 8.48043 19.25 8.73478 19.25 9C19.25 9.79565 18.9339 10.5587 18.3713 11.1213C17.8087 11.6839 17.0457 12 16.25 12C15.4544 12 14.6913 11.6839 14.1287 11.1213C13.5661 10.5587 13.25 9.79565 13.25 9C13.25 8.90875 13.2663 7.2125 14.3075 5.17125C12.248 5.54076 10.3365 6.49002 8.79748 7.90765C7.25845 9.32529 6.15568 11.1525 5.61857 13.1748C5.08147 15.1971 5.13231 17.3307 5.76513 19.3252C6.39796 21.3196 7.58651 23.0922 9.19132 24.4349C10.7961 25.7776 12.7506 26.6348 14.8254 26.9057C16.9003 27.1767 19.0093 26.8503 20.9052 25.9648C22.801 25.0793 24.4049 23.6714 25.5288 21.9064C26.6526 20.1414 27.2497 18.0924 27.25 16Z" fill="#818181"/>
</svg>
