<svg width="22" height="22" viewBox="0 0 22 22" fill="none" xmlns="http://www.w3.org/2000/svg">
<path d="M21.1305 16.596C21.6523 15.4842 21.9069 14.2657 21.8738 13.038C21.8408 11.8103 21.521 10.6073 20.9401 9.52517C20.3592 8.44306 19.5332 7.51182 18.5282 6.80587C17.5232 6.09991 16.367 5.63881 15.152 5.4594C14.7222 4.51229 14.109 3.65971 13.3479 2.95088C12.5867 2.24206 11.6927 1.69103 10.7174 1.32961C9.74217 0.968191 8.70497 0.803546 7.66573 0.845179C6.62648 0.886813 5.60577 1.1339 4.66254 1.57218C3.71931 2.01045 2.87225 2.63123 2.17025 3.39867C1.46825 4.16612 0.925231 5.06502 0.572542 6.04347C0.219853 7.02193 0.0644819 8.06056 0.1154 9.0994C0.166318 10.1382 0.422516 11.1567 0.869202 12.096L0.190452 14.4735C0.107428 14.7633 0.103555 15.07 0.179235 15.3618C0.254915 15.6536 0.407385 15.9199 0.620792 16.1328C0.834199 16.3457 1.10075 16.4976 1.39273 16.5726C1.68471 16.6476 1.99146 16.6431 2.28108 16.5594L4.65858 15.8807C5.3529 16.2044 6.09062 16.4255 6.84858 16.5369C7.28284 17.4811 7.8996 18.3301 8.66335 19.0349C9.42709 19.7398 10.3227 20.2866 11.2987 20.6439C12.2746 21.0011 13.3116 21.1618 14.3499 21.1166C15.3882 21.0715 16.4073 20.8213 17.3486 20.3807L19.7261 21.0594C20.0154 21.142 20.3215 21.1458 20.6128 21.0702C20.9041 20.9947 21.1698 20.8427 21.3826 20.63C21.5954 20.4172 21.7474 20.1515 21.8229 19.8602C21.8984 19.5689 21.8946 19.2628 21.812 18.9735L21.1305 16.596ZM4.76826 13.5519C4.66364 13.5518 4.55951 13.5663 4.45889 13.595L2.6317 14.1172L3.15389 12.29C3.23531 12.0059 3.20164 11.7011 3.06014 11.4416C2.41329 10.2537 2.21613 8.87251 2.50479 7.55108C2.79345 6.22965 3.5486 5.05648 4.63187 4.24653C5.71514 3.43658 7.05399 3.04409 8.40311 3.14097C9.75222 3.23786 11.0213 3.81763 11.9777 4.77405C12.9341 5.73048 13.5139 6.99951 13.6108 8.34862C13.7076 9.69774 13.3151 11.0366 12.5052 12.1199C11.6952 13.2031 10.5221 13.9583 9.20065 14.2469C7.87922 14.5356 6.49803 14.3384 5.31014 13.6916C5.14421 13.6001 4.95774 13.5524 4.76826 13.5528V13.5519ZM18.8458 16.79L19.368 18.6172L17.5408 18.095C17.2566 18.0136 16.9518 18.0473 16.6923 18.1888C15.4813 18.8477 14.0706 19.0393 12.7276 18.7274C11.3846 18.4156 10.2028 17.6218 9.40608 16.4966C11.3606 16.1435 13.1094 15.0643 14.3013 13.4755C15.4933 11.8868 16.0403 9.90597 15.8326 7.93065C16.6064 8.19682 17.3127 8.62858 17.9024 9.19582C18.4921 9.76305 18.9509 10.4521 19.2469 11.2149C19.5429 11.9777 19.6689 12.7959 19.6161 13.6125C19.5634 14.429 19.3331 15.2242 18.9414 15.9425C18.7993 16.2018 18.7649 16.5066 18.8458 16.791V16.79Z" fill="#787878"/>
</svg>
