<svg width="18" height="18" viewBox="0 0 18 18" fill="none" xmlns="http://www.w3.org/2000/svg">
<path d="M8.99964 1.6875C7.73716 1.68722 6.49611 2.01381 5.39729 2.63547C4.29847 3.25714 3.37932 4.15269 2.7293 5.23498C2.07927 6.31726 1.72053 7.5494 1.68798 8.81146C1.65543 10.0735 1.95018 11.3225 2.54355 12.4369L1.7455 14.831C1.6794 15.0292 1.6698 15.242 1.7178 15.4453C1.76579 15.6487 1.86947 15.8347 2.01723 15.9824C2.16498 16.1302 2.35096 16.2339 2.55433 16.2818C2.75769 16.3298 2.97041 16.3202 3.16863 16.2541L5.56277 15.4561C6.54347 15.9777 7.63011 16.269 8.74021 16.308C9.85031 16.347 10.9547 16.1325 11.9695 15.6809C12.9844 15.2293 13.883 14.5525 14.5972 13.7017C15.3114 12.851 15.8224 11.8487 16.0914 10.771C16.3605 9.69326 16.3804 8.56842 16.1498 7.48184C15.9192 6.39525 15.4441 5.37549 14.7605 4.49994C14.0769 3.6244 13.2029 2.91608 12.2047 2.42877C11.2065 1.94146 10.1104 1.68796 8.99964 1.6875ZM8.99964 15.1875C7.91189 15.1882 6.84323 14.9018 5.90167 14.3571C5.83274 14.3171 5.75609 14.2923 5.67682 14.2841C5.59754 14.276 5.51744 14.2848 5.44183 14.31L2.81214 15.1875L3.68894 12.5578C3.71421 12.4823 3.72315 12.4022 3.71515 12.3229C3.70715 12.2436 3.6824 12.167 3.64253 12.098C2.96048 10.9188 2.68664 9.54744 2.86349 8.19672C3.04034 6.846 3.658 5.5914 4.62064 4.62754C5.58329 3.66368 6.83711 3.04444 8.1876 2.86588C9.53809 2.68733 10.9098 2.95944 12.0898 3.64C13.2699 4.32056 14.1924 5.37153 14.7142 6.62987C15.236 7.88822 15.328 9.28359 14.9758 10.5995C14.6237 11.9155 13.8471 13.0784 12.7665 13.908C11.686 14.7375 10.3619 15.1873 8.99964 15.1875Z" fill="#909090"/>
</svg>
