<svg width="16" height="18" viewBox="0 0 16 18" fill="none" xmlns="http://www.w3.org/2000/svg">
<path d="M14.875 3.75H1.125C0.87636 3.75 0.637903 3.84877 0.462087 4.02459C0.286272 4.2004 0.1875 4.43886 0.1875 4.6875C0.1875 4.93614 0.286272 5.1746 0.462087 5.35041C0.637903 5.52623 0.87636 5.625 1.125 5.625H1.4375V16.25C1.4375 16.6644 1.60212 17.0618 1.89515 17.3549C2.18817 17.6479 2.5856 17.8125 3 17.8125H13C13.4144 17.8125 13.8118 17.6479 14.1049 17.3549C14.3979 17.0618 14.5625 16.6644 14.5625 16.25V5.625H14.875C15.1236 5.625 15.3621 5.52623 15.5379 5.35041C15.7137 5.1746 15.8125 4.93614 15.8125 4.6875C15.8125 4.43886 15.7137 4.2004 15.5379 4.02459C15.3621 3.84877 15.1236 3.75 14.875 3.75ZM12.6875 15.9375H3.3125V5.625H12.6875V15.9375ZM3.9375 1.5625C3.9375 1.31386 4.03627 1.0754 4.21209 0.899587C4.3879 0.723772 4.62636 0.625 4.875 0.625H11.125C11.3736 0.625 11.6121 0.723772 11.7879 0.899587C11.9637 1.0754 12.0625 1.31386 12.0625 1.5625C12.0625 1.81114 11.9637 2.0496 11.7879 2.22541C11.6121 2.40123 11.3736 2.5 11.125 2.5H4.875C4.62636 2.5 4.3879 2.40123 4.21209 2.22541C4.03627 2.0496 3.9375 1.81114 3.9375 1.5625Z" fill="#FF4000"/>
</svg>
