<svg width="20" height="18" viewBox="0 0 20 18" fill="none" xmlns="http://www.w3.org/2000/svg">
<path d="M7.83366 11.3334L2.50032 11.3334C2.0583 11.3334 1.63438 11.1578 1.32181 10.8452C1.00925 10.5327 0.833659 10.1087 0.833659 9.6667L0.833659 7.91337C0.833434 7.69557 0.875901 7.47984 0.958659 7.27837L3.53783 1.01587C3.60074 0.863188 3.7076 0.732644 3.84485 0.640803C3.98209 0.548962 4.14352 0.499966 4.30866 0.500037L18.3337 0.500038C18.5547 0.500038 18.7666 0.587835 18.9229 0.744116C19.0792 0.900394 19.167 1.11236 19.167 1.33337L19.167 9.66671C19.167 9.88772 19.0792 10.0997 18.9229 10.256C18.7666 10.4122 18.5547 10.5 18.3337 10.5L15.432 10.5C15.2986 10.5 15.1671 10.532 15.0486 10.5933C14.9302 10.6547 14.8281 10.7436 14.7512 10.8525L10.207 17.2917C10.1495 17.3731 10.0648 17.4312 9.96821 17.4555C9.87159 17.4799 9.76945 17.4687 9.68033 17.4242L8.16866 16.6684C7.74324 16.4557 7.40338 16.1039 7.20555 15.6714C7.00772 15.2389 6.96382 14.7518 7.08116 14.2909L7.83366 11.3334ZM14.167 9.1767L14.167 2.1667L4.86699 2.1667L2.50033 7.91337L2.50032 9.6667L7.83366 9.66671C8.08749 9.66674 8.33797 9.72476 8.56597 9.83632C8.79397 9.94789 8.99347 10.1101 9.14926 10.3105C9.30505 10.5109 9.41301 10.7442 9.4649 10.9927C9.51678 11.2412 9.51123 11.4982 9.44866 11.7442L8.69616 14.7009C8.67261 14.7931 8.68134 14.8906 8.72092 14.9772C8.76049 15.0638 8.82851 15.1342 8.91366 15.1767L9.46449 15.4517L13.3895 9.89171C13.5978 9.59671 13.8645 9.35504 14.167 9.1767ZM15.8337 8.83337L17.5003 8.83337L17.5003 2.1667L15.8337 2.1667L15.8337 8.83337Z" fill="#818181"/>
</svg>
