<svg width="24" height="24" viewBox="0 0 24 24" fill="none" xmlns="http://www.w3.org/2000/svg">
<path d="M6.72774 13.125H2.97212C2.67375 13.125 2.3876 13.0065 2.17662 12.7955C1.96564 12.5845 1.84712 12.2984 1.84712 12C1.84712 11.7016 1.96564 11.4155 2.17662 11.2045C2.3876 10.9935 2.67375 10.875 2.97212 10.875H6.12493L7.29212 9.12563C7.39474 8.97092 7.53405 8.84402 7.69763 8.75623C7.86121 8.66844 8.04397 8.6225 8.22962 8.6225C8.41527 8.6225 8.59803 8.66844 8.76161 8.75623C8.92519 8.84402 9.0645 8.97092 9.16712 9.12563L11.2296 12.2194L11.7921 11.3756C11.895 11.2214 12.0345 11.095 12.198 11.0076C12.3616 10.9203 12.5442 10.8747 12.7296 10.875H14.9796C15.278 10.875 15.5641 10.9935 15.7751 11.2045C15.9861 11.4155 16.1046 11.7016 16.1046 12C16.1046 12.2984 15.9861 12.5845 15.7751 12.7955C15.5641 13.0065 15.278 13.125 14.9796 13.125H13.3296L12.1615 14.8744C12.0589 15.0291 11.9196 15.156 11.756 15.2438C11.5924 15.3316 11.4096 15.3775 11.224 15.3775C11.0383 15.3775 10.8556 15.3316 10.692 15.2438C10.5284 15.156 10.3891 15.0291 10.2865 14.8744L8.22399 11.7806L7.66149 12.6244C7.55894 12.7781 7.4201 12.9042 7.25724 12.9915C7.09438 13.0788 6.91253 13.1247 6.72774 13.125ZM16.6793 2.62501C14.7931 2.62501 13.1168 3.36844 11.9852 4.64626C10.8509 3.36844 9.17743 2.62501 7.29024 2.62501C5.76647 2.62276 4.29546 3.18287 3.15906 4.198C2.02266 5.21312 1.3008 6.61188 1.13181 8.12626C1.11555 8.27356 1.12848 8.42263 1.16983 8.56494C1.21119 8.70725 1.28017 8.84002 1.37284 8.95568C1.56 9.18925 1.83228 9.3389 2.12977 9.37173C2.42727 9.40455 2.72562 9.31784 2.95919 9.13069C3.07485 9.03802 3.17111 8.92347 3.2425 8.7936C3.31389 8.66373 3.35899 8.52106 3.37524 8.37376C3.48318 7.41112 3.94217 6.52205 4.66444 5.87657C5.38671 5.2311 6.32158 4.87451 7.29024 4.87501C8.96181 4.87501 10.3606 5.75626 10.9418 7.17563C11.0258 7.38341 11.17 7.56137 11.3558 7.68667C11.5416 7.81198 11.7606 7.87892 11.9848 7.87892C12.2089 7.87892 12.4279 7.81198 12.6137 7.68667C12.7996 7.56137 12.9437 7.38341 13.0277 7.17563C13.609 5.75626 15.0077 4.87501 16.6793 4.87501C17.7244 4.87476 18.727 5.28925 19.4668 6.02749C20.2066 6.76572 20.6233 7.76736 20.6252 8.81251C20.6252 11.5706 18.2009 14.2284 16.1665 15.9713C14.8587 17.0797 13.4607 18.0773 11.9871 18.9534C10.9681 18.3488 8.67118 16.8909 6.68931 14.9475C6.58392 14.8438 6.45915 14.762 6.32211 14.7065C6.18508 14.6511 6.03847 14.6232 5.89065 14.6244C5.74283 14.6256 5.5967 14.6559 5.4606 14.7136C5.3245 14.7713 5.20109 14.8552 5.09743 14.9606C4.99377 15.066 4.91188 15.1908 4.85644 15.3278C4.80099 15.4649 4.77309 15.6115 4.7743 15.7593C4.77677 16.0578 4.89772 16.3432 5.11056 16.5525C7.95962 19.3472 11.3121 21.165 11.4537 21.24C11.6179 21.328 11.8013 21.374 11.9876 21.374C12.1739 21.374 12.3573 21.328 12.5215 21.24C12.9377 21.0131 22.8752 15.5944 22.8752 8.81251C22.8723 7.17093 22.2183 5.59757 21.0567 4.43759C19.8951 3.27761 18.3209 2.62575 16.6793 2.62501Z" fill="#818181"/>
</svg>
