<svg width="42" height="43" viewBox="0 0 42 43" fill="none" xmlns="http://www.w3.org/2000/svg">
<path opacity="0.2" d="M38.0625 16.2499C38.0629 18.1819 37.5895 20.0845 36.6837 21.7909C35.7779 23.4973 34.4673 24.9556 32.8669 26.0378C31.2665 27.12 29.4251 27.7931 27.5041 27.9982C25.583 28.2033 23.641 27.9341 21.8482 27.2142L19.6875 29.3749H15.75V33.3124H11.8125V37.2499H5.25V30.6874L15.2857 20.6517C14.638 19.036 14.3554 17.2972 14.4581 15.5595C14.5608 13.8219 15.0462 12.1284 15.8797 10.6003C16.7131 9.0721 17.8741 7.74702 19.2793 6.71984C20.6846 5.69265 22.2996 4.98873 24.0086 4.65845C25.7177 4.32816 27.4786 4.37966 29.1654 4.80927C30.8522 5.23889 32.4233 6.03599 33.7661 7.14355C35.109 8.25112 36.1905 9.64178 36.9332 11.216C37.6759 12.7903 38.0616 14.5093 38.0625 16.2499Z" fill="#377203"/>
<path d="M26.25 3.125C24.1784 3.12686 22.1366 3.61863 20.2913 4.56015C18.4461 5.50168 16.8496 6.86627 15.6323 8.54251C14.4151 10.2188 13.6115 12.1591 13.2872 14.2052C12.963 16.2512 13.1272 18.345 13.7665 20.3155L4.32141 29.7589C4.19956 29.8809 4.10294 30.0257 4.03707 30.185C3.9712 30.3443 3.93736 30.5151 3.9375 30.6875V37.25C3.9375 37.5981 4.07578 37.9319 4.32192 38.1781C4.56806 38.4242 4.9019 38.5625 5.25 38.5625H11.8125C12.1606 38.5625 12.4944 38.4242 12.7406 38.1781C12.9867 37.9319 13.125 37.5981 13.125 37.25V34.625H15.75C16.0981 34.625 16.4319 34.4867 16.6781 34.2406C16.9242 33.9944 17.0625 33.6606 17.0625 33.3125V30.6875H19.6875C19.8599 30.6876 20.0307 30.6538 20.19 30.5879C20.3493 30.5221 20.4941 30.4254 20.6161 30.3036L22.1845 28.7335C23.9884 29.3192 25.8978 29.507 27.7813 29.2839C29.6647 29.0608 31.4774 28.4322 33.0946 27.4414C34.7118 26.4505 36.095 25.1209 37.1491 23.5442C38.2031 21.9675 38.9029 20.181 39.2003 18.3079C39.4976 16.4347 39.3855 14.5194 38.8716 12.6937C38.3577 10.8681 37.4543 9.1755 36.2235 7.73251C34.9927 6.28952 33.4638 5.13042 31.742 4.33501C30.0203 3.5396 28.1466 3.12679 26.25 3.125ZM26.25 26.75C24.9214 26.7522 23.6045 26.5011 22.3699 26.0101C22.1284 25.9053 21.861 25.8755 21.6023 25.9247C21.3437 25.9738 21.1058 26.0996 20.9196 26.2857L19.1445 28.0625H15.75C15.4019 28.0625 15.0681 28.2008 14.8219 28.4469C14.5758 28.6931 14.4375 29.0269 14.4375 29.375V32H11.8125C11.4644 32 11.1306 32.1383 10.8844 32.3844C10.6383 32.6306 10.5 32.9644 10.5 33.3125V35.9375H6.5625V31.2305L16.2143 21.5804C16.4004 21.3942 16.5262 21.1563 16.5753 20.8977C16.6245 20.639 16.5947 20.3716 16.4899 20.1301C15.6599 18.043 15.5211 15.7447 16.0938 13.5728C16.6664 11.4009 17.9205 9.46994 19.6717 8.06345C21.423 6.65696 23.5791 5.84911 25.8233 5.75854C28.0676 5.66797 30.2818 6.29947 32.1407 7.56027C33.9995 8.82107 35.4051 10.6447 36.1509 12.7634C36.8968 14.8821 36.9436 17.1841 36.2844 19.3313C35.6253 21.4785 34.295 23.3578 32.4889 24.6931C30.6828 26.0284 28.4961 26.7493 26.25 26.75ZM31.5 12.9688C31.5 13.3581 31.3845 13.7388 31.1682 14.0625C30.9519 14.3863 30.6444 14.6386 30.2847 14.7876C29.9249 14.9366 29.5291 14.9756 29.1472 14.8997C28.7653 14.8237 28.4145 14.6362 28.1391 14.3609C27.8638 14.0855 27.6763 13.7347 27.6003 13.3528C27.5244 12.9709 27.5634 12.5751 27.7124 12.2153C27.8614 11.8556 28.1137 11.5481 28.4375 11.3318C28.7612 11.1155 29.1419 11 29.5312 11C30.0534 11 30.5542 11.2074 30.9234 11.5766C31.2926 11.9458 31.5 12.4466 31.5 12.9688Z" fill="#377203"/>
</svg>
