<svg width="20" height="18" viewBox="0 0 20 18" fill="none" xmlns="http://www.w3.org/2000/svg">
<path d="M12.1663 6.66663H17.4997C17.9417 6.66663 18.3656 6.84222 18.6782 7.15478C18.9907 7.46734 19.1663 7.89127 19.1663 8.33329V10.0866C19.1666 10.3044 19.1241 10.5202 19.0413 10.7216L16.4622 16.9841C16.3993 17.1368 16.2924 17.2674 16.1552 17.3592C16.0179 17.451 15.8565 17.5 15.6913 17.5H1.66634C1.44533 17.5 1.23337 17.4122 1.07709 17.2559C0.920805 17.0996 0.833008 16.8876 0.833008 16.6666V8.33329C0.833008 8.11228 0.920805 7.90032 1.07709 7.74404C1.23337 7.58776 1.44533 7.49996 1.66634 7.49996H4.56801C4.70142 7.49999 4.83289 7.468 4.95137 7.40666C5.06985 7.34531 5.17186 7.25643 5.24884 7.14746L9.79301 0.708294C9.85045 0.626888 9.93517 0.568761 10.0318 0.544452C10.1284 0.520144 10.2305 0.531263 10.3197 0.575794L11.8313 1.33163C12.2568 1.54426 12.5966 1.89606 12.7945 2.32856C12.9923 2.76106 13.0362 3.24823 12.9188 3.70913L12.1663 6.66663ZM5.83301 8.82329V15.8333H15.133L17.4997 10.0866V8.33329H12.1663C11.9125 8.33326 11.662 8.27524 11.434 8.16368C11.206 8.05211 11.0065 7.88994 10.8507 7.68953C10.6949 7.48913 10.587 7.25579 10.5351 7.00731C10.4832 6.75884 10.4888 6.5018 10.5513 6.25579L11.3038 3.29913C11.3274 3.2069 11.3187 3.10939 11.2791 3.02282C11.2395 2.93625 11.1715 2.86583 11.0863 2.82329L10.5355 2.54829L6.61051 8.10829C6.40217 8.40329 6.13551 8.64496 5.83301 8.82329ZM4.16634 9.16663H2.49967V15.8333H4.16634V9.16663Z" fill="#818181"/>
</svg>
