<svg width="16" height="15" viewBox="0 0 16 15" fill="none" xmlns="http://www.w3.org/2000/svg">
<path d="M14.68 2.00789C13.9158 1.2456 12.8808 0.816923 11.8014 0.815605C10.722 0.814287 9.68602 1.24043 8.91996 2.00085L8.00027 2.85515L7.07988 1.99804C6.314 1.23431 5.27611 0.806105 4.19451 0.807621C3.11292 0.809138 2.07623 1.24025 1.3125 2.00613C0.548765 2.772 0.120558 3.8099 0.122074 4.89149C0.123591 5.97309 0.554707 7.00978 1.32058 7.77351L7.603 14.148C7.65534 14.2012 7.71773 14.2434 7.78654 14.2722C7.85534 14.301 7.92919 14.3159 8.00378 14.3159C8.07838 14.3159 8.15223 14.301 8.22103 14.2722C8.28984 14.2434 8.35223 14.2012 8.40457 14.148L14.68 7.77351C15.4442 7.00878 15.8736 5.97186 15.8736 4.8907C15.8736 3.80953 15.4442 2.77261 14.68 2.00789ZM13.8819 6.9832L8.00027 12.9485L2.11511 6.97757C1.56127 6.42373 1.25012 5.67255 1.25012 4.88929C1.25012 4.10603 1.56127 3.35486 2.11511 2.80101C2.66896 2.24716 3.42014 1.93602 4.20339 1.93602C4.98665 1.93602 5.73783 2.24716 6.29167 2.80101L6.30574 2.81507L7.61707 4.035C7.72116 4.13186 7.85808 4.18572 8.00027 4.18572C8.14246 4.18572 8.27938 4.13186 8.38347 4.035L9.6948 2.81507L9.70886 2.80101C10.2631 2.24754 11.0145 1.9369 11.7977 1.93742C12.581 1.93795 13.332 2.2496 13.8854 2.80382C14.4389 3.35804 14.7495 4.10943 14.749 4.89269C14.7485 5.67594 14.4368 6.42691 13.8826 6.98039L13.8819 6.9832Z" fill="#909090"/>
</svg>
