<svg width="32" height="33" viewBox="0 0 32 33" fill="none" xmlns="http://www.w3.org/2000/svg">
<path d="M13.375 30.9375C13.375 31.2856 13.2367 31.6194 12.9906 31.8656C12.7444 32.1117 12.4106 32.25 12.0625 32.25H2.875C2.17881 32.25 1.51113 31.9734 1.01884 31.4812C0.526562 30.9889 0.25 30.3212 0.25 29.625V3.375C0.25 2.67881 0.526562 2.01113 1.01884 1.51884C1.51113 1.02656 2.17881 0.75 2.875 0.75H12.0625C12.4106 0.75 12.7444 0.888281 12.9906 1.13442C13.2367 1.38056 13.375 1.7144 13.375 2.0625C13.375 2.4106 13.2367 2.74444 12.9906 2.99058C12.7444 3.23672 12.4106 3.375 12.0625 3.375H2.875V29.625H12.0625C12.4106 29.625 12.7444 29.7633 12.9906 30.0094C13.2367 30.2556 13.375 30.5894 13.375 30.9375ZM31.3661 17.4286L24.8036 23.9911C24.62 24.1749 24.3861 24.3 24.1313 24.3508C23.8766 24.4015 23.6125 24.3755 23.3726 24.2761C23.1326 24.1766 22.9276 24.0083 22.7834 23.7922C22.6392 23.5762 22.5623 23.3222 22.5625 23.0625V17.8125H12.0625C11.7144 17.8125 11.3806 17.6742 11.1344 17.4281C10.8883 17.1819 10.75 16.8481 10.75 16.5C10.75 16.1519 10.8883 15.8181 11.1344 15.5719C11.3806 15.3258 11.7144 15.1875 12.0625 15.1875H22.5625V9.9375C22.5623 9.67776 22.6392 9.4238 22.7834 9.20777C22.9276 8.99174 23.1326 8.82336 23.3726 8.72393C23.6125 8.62451 23.8766 8.59851 24.1313 8.64924C24.3861 8.69997 24.62 8.82514 24.8036 9.00891L31.3661 15.5714C31.4881 15.6933 31.5849 15.8381 31.651 15.9974C31.717 16.1567 31.751 16.3275 31.751 16.5C31.751 16.6725 31.717 16.8433 31.651 17.0026C31.5849 17.1619 31.4881 17.3067 31.3661 17.4286ZM28.577 16.5L25.1875 13.1055V19.8945L28.577 16.5Z" fill="#FF4000"/>
</svg>
