<svg width="33" height="32" viewBox="0 0 33 32" fill="none" xmlns="http://www.w3.org/2000/svg">
<path d="M20.0825 23.5535C19.9356 23.7743 19.7071 23.9277 19.4471 23.98C19.1871 24.0322 18.9171 23.9791 18.6963 23.8323C17.8838 23.2923 17.25 22.9998 16.25 22.9998C15.25 22.9998 14.6163 23.2923 13.8038 23.8323C13.5829 23.9737 13.3154 24.0227 13.0588 23.9687C12.8023 23.9148 12.5771 23.7623 12.4319 23.544C12.2867 23.3256 12.233 23.059 12.2825 22.8015C12.3319 22.5441 12.4805 22.3163 12.6962 22.1673C13.75 21.466 14.7575 20.9998 16.25 20.9998C17.7425 20.9998 18.75 21.466 19.8037 22.1673C20.0245 22.3142 20.1779 22.5427 20.2302 22.8027C20.2824 23.0627 20.2293 23.3327 20.0825 23.5535ZM28.25 5.99979V12.971C28.25 17.451 27.0438 21.6773 24.8525 24.8685C22.5825 28.176 19.5275 29.9935 16.25 29.9935C12.9725 29.9935 9.9175 28.1723 7.6475 24.8685C5.45625 21.6798 4.25 17.4535 4.25 12.9735V5.99979C4.25011 5.67474 4.32945 5.35461 4.48115 5.06713C4.63284 4.77965 4.85232 4.53347 5.12058 4.34991C5.38884 4.16635 5.69779 4.05094 6.0207 4.01368C6.34361 3.97641 6.67073 4.01841 6.97375 4.13604C8.73 4.81854 12.2725 5.96354 16.25 5.96354C20.2275 5.96354 23.7688 4.81854 25.5263 4.13604C25.8293 4.01841 26.1564 3.97641 26.4793 4.01368C26.8022 4.05094 27.1112 4.16635 27.3794 4.34991C27.6477 4.53347 27.8672 4.77965 28.0189 5.06713C28.1705 5.35461 28.2499 5.67474 28.25 5.99979ZM26.25 5.99979C24.3625 6.73604 20.5537 7.96604 16.25 7.96604C11.9462 7.96604 8.1375 6.73354 6.25 5.99979V12.9735C6.25 17.0535 7.3325 20.8773 9.29625 23.7398C11.1825 26.4873 13.6512 27.9998 16.25 27.9998C18.8488 27.9998 21.3175 26.4873 23.2038 23.7398C25.1675 20.8748 26.25 17.0535 26.25 12.9735V5.99979ZM23.9175 14.2498C23.8197 14.1621 23.7055 14.0945 23.5816 14.051C23.4577 14.0074 23.3264 13.9887 23.1952 13.9959C23.064 14.0031 22.9355 14.036 22.8171 14.0929C22.6987 14.1498 22.5926 14.2294 22.505 14.3273C22.17 14.7023 21.3987 14.9948 20.755 14.9948C20.1112 14.9948 19.335 14.701 19.005 14.3273C18.9171 14.2285 18.8106 14.1479 18.6916 14.0903C18.5725 14.0326 18.4433 13.999 18.3113 13.9912C18.1792 13.9835 18.047 14.0019 17.922 14.0453C17.7971 14.0887 17.6819 14.1563 17.5831 14.2442C17.4843 14.3321 17.4038 14.4386 17.3461 14.5576C17.2885 14.6766 17.2548 14.8058 17.2471 14.9379C17.2394 15.0699 17.2577 15.2022 17.3011 15.3271C17.3445 15.4521 17.4121 15.5672 17.5 15.666C18.2137 16.4635 19.5175 16.9998 20.75 16.9998C21.9825 16.9998 23.2812 16.4635 24 15.666C24.088 15.5678 24.1556 15.4532 24.1991 15.3287C24.2426 15.2042 24.261 15.0724 24.2534 14.9407C24.2457 14.8091 24.2121 14.6803 24.1544 14.5617C24.0968 14.4431 24.0163 14.3371 23.9175 14.2498ZM15 15.666C15.0876 15.5675 15.1549 15.4528 15.1981 15.3283C15.2413 15.2038 15.2596 15.072 15.2519 14.9404C15.2442 14.8088 15.2106 14.6801 15.1531 14.5615C15.0956 14.4429 15.0154 14.3367 14.9169 14.2492C14.8184 14.1616 14.7036 14.0943 14.5791 14.051C14.4546 14.0078 14.3228 13.9896 14.1912 13.9973C14.0597 14.005 13.9309 14.0386 13.8123 14.096C13.6937 14.1535 13.5876 14.2338 13.5 14.3323C13.165 14.7073 12.3938 14.9998 11.75 14.9998C11.1062 14.9998 10.33 14.706 10 14.3323C9.91242 14.2338 9.80631 14.1535 9.68771 14.096C9.56911 14.0386 9.44035 14.005 9.30878 13.9973C9.17721 13.9896 9.04541 14.0078 8.9209 14.051C8.79639 14.0943 8.68162 14.1616 8.58313 14.2492C8.48463 14.3367 8.40436 14.4429 8.34688 14.5615C8.28939 14.6801 8.25584 14.8088 8.24812 14.9404C8.2404 15.072 8.25867 15.2038 8.30189 15.3283C8.34511 15.4528 8.41242 15.5675 8.5 15.666C9.21875 16.4635 10.5225 16.9998 11.75 16.9998C12.9775 16.9998 14.2812 16.4635 15 15.666Z" fill="#818181"/>
</svg>
