<svg width="18" height="21" viewBox="0 0 18 21" fill="none" xmlns="http://www.w3.org/2000/svg">
<path d="M16.5 7.5H6V5.25C6 4.45435 6.31607 3.69129 6.87868 3.12868C7.44129 2.56607 8.20435 2.25 9 2.25C10.4409 2.25 11.7375 3.28125 12.015 4.64906C12.0562 4.84234 12.172 5.01155 12.3373 5.11991C12.5026 5.22827 12.7039 5.26702 12.8976 5.22774C13.0913 5.18846 13.2616 5.07433 13.3716 4.91014C13.4816 4.74596 13.5224 4.545 13.485 4.35094C13.0612 2.26406 11.175 0.75 9 0.75C7.80691 0.751241 6.66303 1.22575 5.81939 2.06939C4.97575 2.91303 4.50124 4.05691 4.5 5.25V7.5H1.5C1.10218 7.5 0.720644 7.65804 0.43934 7.93934C0.158035 8.22064 0 8.60218 0 9V19.5C0 19.8978 0.158035 20.2794 0.43934 20.5607C0.720644 20.842 1.10218 21 1.5 21H16.5C16.8978 21 17.2794 20.842 17.5607 20.5607C17.842 20.2794 18 19.8978 18 19.5V9C18 8.60218 17.842 8.22064 17.5607 7.93934C17.2794 7.65804 16.8978 7.5 16.5 7.5ZM9 15.375C8.7775 15.375 8.55999 15.309 8.37498 15.1854C8.18998 15.0618 8.04578 14.8861 7.96064 14.6805C7.87549 14.475 7.85321 14.2488 7.89662 14.0305C7.94002 13.8123 8.04717 13.6118 8.2045 13.4545C8.36184 13.2972 8.56229 13.19 8.78052 13.1466C8.99875 13.1032 9.22495 13.1255 9.43052 13.2106C9.63608 13.2958 9.81179 13.44 9.9354 13.625C10.059 13.81 10.125 14.0275 10.125 14.25C10.125 14.5484 10.0065 14.8345 9.79549 15.0455C9.58452 15.2565 9.29837 15.375 9 15.375Z" fill="#818181"/>
</svg>
