<svg width="19" height="19" viewBox="0 0 19 19" fill="none" xmlns="http://www.w3.org/2000/svg">
<path d="M18.0781 2.46407C18.0781 2.46407 18.0781 2.47189 18.0781 2.47579L13.5312 17.4711C13.4624 17.7147 13.3207 17.9313 13.1252 18.0921C12.9297 18.2528 12.6897 18.3499 12.4374 18.3703C12.4015 18.3734 12.3656 18.375 12.3296 18.375C12.0932 18.3757 11.8615 18.3088 11.6619 18.1822C11.4623 18.0555 11.3031 17.8744 11.2031 17.6602L8.41321 11.7703C8.38567 11.7121 8.37682 11.6467 8.38787 11.5832C8.39891 11.5197 8.42933 11.4612 8.47493 11.4156L12.9484 6.94142C13.0606 6.82325 13.1223 6.66591 13.1202 6.50293C13.1181 6.33996 13.0525 6.18424 12.9372 6.06899C12.8219 5.95374 12.6662 5.88807 12.5033 5.88598C12.3403 5.8839 12.1829 5.94556 12.0648 6.05782L7.58431 10.5313C7.53877 10.5769 7.48024 10.6073 7.41675 10.6183C7.35325 10.6294 7.28789 10.6205 7.22962 10.593L1.37025 7.8172C1.14012 7.71177 0.946464 7.54042 0.813787 7.32486C0.68111 7.10929 0.615385 6.8592 0.624934 6.60626C0.637659 6.34629 0.731777 6.09689 0.893982 5.89333C1.05619 5.68977 1.27827 5.54234 1.52884 5.47188L16.5242 0.92501H16.5359C16.7494 0.865027 16.975 0.862924 17.1896 0.918917C17.4042 0.97491 17.6 1.08698 17.757 1.24364C17.9139 1.40029 18.0264 1.59589 18.0828 1.81036C18.1393 2.02483 18.1376 2.25045 18.0781 2.46407Z" fill="#F29D38"/>
</svg>
