<svg width="47" height="22" viewBox="0 0 47 22" fill="none" xmlns="http://www.w3.org/2000/svg">
<path d="M4.59068 15.154C2.98068 15.154 1.65068 14.594 0.62868 13.614L1.48268 12.564C2.33668 13.376 3.34468 13.908 4.64668 13.908C5.97668 13.908 6.66268 13.208 6.66268 12.438C6.66268 11.528 5.86468 11.178 4.25468 10.814C2.29468 10.352 0.99268 9.764 0.99268 8.028C0.99268 6.418 2.39268 5.2 4.32468 5.2C5.80868 5.2 6.91468 5.746 7.83868 6.558L7.02668 7.622C6.21468 6.88 5.24868 6.446 4.26868 6.446C3.19068 6.446 2.43468 7.132 2.43468 7.902C2.43468 8.798 3.26068 9.106 4.84268 9.484C6.76068 9.932 8.09068 10.576 8.09068 12.298C8.09068 13.922 6.85868 15.154 4.59068 15.154ZM16.3663 7.762L13.2443 11.038L16.2263 15H14.5743L12.3063 11.962L11.1443 13.138V15H9.77232V5.214H11.1443V11.458L14.6863 7.762H16.3663ZM18.1969 6.558C17.7209 6.558 17.3569 6.166 17.3569 5.718C17.3569 5.284 17.7209 4.892 18.1969 4.892C18.6449 4.892 19.0229 5.284 19.0229 5.718C19.0229 6.166 18.6449 6.558 18.1969 6.558ZM17.4969 15V7.762H18.8829V15H17.4969ZM24.9059 7.594C26.8099 7.594 28.2379 9.162 28.2379 11.374C28.2379 13.6 26.8099 15.168 24.9059 15.168C23.7859 15.168 22.8899 14.636 22.3299 13.74V17.408H20.9579V7.762H22.3299V9.008C22.8899 8.126 23.7859 7.594 24.9059 7.594ZM24.5699 13.964C25.8999 13.964 26.8379 12.886 26.8379 11.374C26.8379 9.862 25.8999 8.798 24.5699 8.798C23.2679 8.798 22.3299 9.862 22.3299 11.374C22.3299 12.886 23.2679 13.964 24.5699 13.964Z" fill="#85561D"/>
<path d="M41.9719 11.5972L36.3469 17.2222C36.1884 17.3807 35.9734 17.4697 35.7493 17.4697C35.5251 17.4697 35.3101 17.3807 35.1516 17.2222C34.9931 17.0637 34.9041 16.8487 34.9041 16.6245C34.9041 16.4003 34.9931 16.1854 35.1516 16.0269L40.1797 11.0002L35.153 5.97217C35.0745 5.89368 35.0123 5.80051 34.9698 5.69796C34.9273 5.59541 34.9055 5.48551 34.9055 5.37451C34.9055 5.26352 34.9273 5.15361 34.9698 5.05106C35.0123 4.94852 35.0745 4.85534 35.153 4.77685C35.2315 4.69837 35.3247 4.63611 35.4272 4.59364C35.5298 4.55116 35.6397 4.5293 35.7507 4.5293C35.8617 4.5293 35.9716 4.55116 36.0741 4.59364C36.1767 4.63611 36.2698 4.69837 36.3483 4.77685L41.9733 10.4019C42.0519 10.4803 42.1142 10.5736 42.1567 10.6762C42.1991 10.7788 42.2209 10.8888 42.2208 10.9998C42.2207 11.1109 42.1986 11.2208 42.1559 11.3233C42.1132 11.4258 42.0507 11.5189 41.9719 11.5972Z" fill="#85561D"/>
</svg>
